Auvaiyar-Regular.ufo
<glyph name="exclam" format="2">
  <advance width="304"/>
  <unicode hex="0021"/>
  <outline>
    <contour>
      <point x="206" y="559" type="curve" smooth="yes"/>
      <point x="206" y="595"/>
      <point x="189" y="618"/>
      <point x="152" y="618" type="curve" smooth="yes"/>
      <point x="114" y="618"/>
      <point x="97" y="595"/>
      <point x="97" y="559" type="curve" smooth="yes"/>
      <point x="97" y="545"/>
      <point x="130" y="163"/>
      <point x="130" y="163" type="curve"/>
      <point x="174" y="163" type="line"/>
      <point x="174" y="163"/>
      <point x="206" y="545"/>
    </contour>
    <contour>
      <point x="207" y="44" type="curve" smooth="yes"/>
      <point x="207" y="75"/>
      <point x="182" y="99"/>
      <point x="152" y="99" type="curve" smooth="yes"/>
      <point x="121" y="99"/>
      <point x="97" y="75"/>
      <point x="97" y="44" type="curve" smooth="yes"/>
      <point x="97" y="15"/>
      <point x="121" y="-10"/>
      <point x="152" y="-10" type="curve" smooth="yes"/>
      <point x="182" y="-10"/>
      <point x="207" y="15"/>
    </contour>
  </outline>
</glyph>
<glyph name="quotedbl" format="2">
  <advance width="408"/>
  <unicode hex="0022"/>
  <outline>
    <contour>
      <point x="317" y="366" type="curve"/>
      <point x="345" y="638" type="line"/>
      <point x="324" y="650" type="line"/>
      <point x="311" y="647"/>
      <point x="247" y="625"/>
      <point x="234" y="617" type="curve"/>
      <point x="266" y="357" type="line"/>
      <point x="279" y="357"/>
      <point x="308" y="361"/>
    </contour>
    <contour>
      <point x="146" y="366" type="curve"/>
      <point x="174" y="638" type="line"/>
      <point x="153" y="650" type="line"/>
      <point x="141" y="647"/>
      <point x="76" y="625"/>
      <point x="63" y="617" type="curve"/>
      <point x="95" y="357" type="line"/>
      <point x="109" y="357"/>
      <point x="137" y="361"/>
    </contour>
  </outline>
</glyph>
<glyph name="numbersign" format="2">
  <advance width="668"/>
  <unicode hex="0023"/>
  <outline>
    <contour>
      <point x="613" y="378" type="line"/>
      <point x="613" y="424" type="line"/>
      <point x="487" y="424" type="line"/>
      <point x="556" y="622" type="line"/>
      <point x="508" y="637" type="line"/>
      <point x="437" y="424" type="line"/>
      <point x="305" y="424" type="line"/>
      <point x="375" y="622" type="line"/>
      <point x="329" y="637" type="line"/>
      <point x="257" y="424" type="line"/>
      <point x="96" y="424" type="line"/>
      <point x="96" y="378" type="line"/>
      <point x="242" y="378" type="line"/>
      <point x="198" y="250" type="line"/>
      <point x="55" y="250" type="line"/>
      <point x="55" y="205" type="line"/>
      <point x="183" y="205" type="line"/>
      <point x="111" y="-5" type="line"/>
      <point x="155" y="-20" type="line"/>
      <point x="232" y="205" type="line"/>
      <point x="362" y="205" type="line"/>
      <point x="292" y="-6" type="line"/>
      <point x="337" y="-20" type="line"/>
      <point x="413" y="205" type="line"/>
      <point x="574" y="205" type="line"/>
      <point x="574" y="250" type="line"/>
      <point x="429" y="250" type="line"/>
      <point x="471" y="378" type="line"/>
    </contour>
    <contour>
      <point x="422" y="378" type="line"/>
      <point x="377" y="250" type="line"/>
      <point x="247" y="250" type="line"/>
      <point x="291" y="378" type="line"/>
    </contour>
  </outline>
</glyph>
<glyph name="dollar" format="2">
  <advance width="506"/>
  <unicode hex="0024"/>
  <outline>
    <contour>
      <point x="454" y="170" type="curve" smooth="yes"/>
      <point x="454" y="294"/>
      <point x="354" y="322"/>
      <point x="276" y="345" type="curve"/>
      <point x="276" y="559" type="line"/>
      <point x="323" y="559"/>
      <point x="355" y="551"/>
      <point x="369" y="536" type="curve"/>
      <point x="382" y="441" type="line"/>
      <point x="429" y="441" type="line"/>
      <point x="429" y="583" type="line"/>
      <point x="429" y="583"/>
      <point x="353" y="603"/>
      <point x="276" y="603" type="curve"/>
      <point x="276" y="668" type="line"/>
      <point x="235" y="668" type="line"/>
      <point x="235" y="601" type="line"/>
      <point x="163" y="590"/>
      <point x="66" y="544"/>
      <point x="66" y="435" type="curve" smooth="yes"/>
      <point x="66" y="332"/>
      <point x="155" y="289"/>
      <point x="233" y="271" type="curve"/>
      <point x="233" y="43" type="line"/>
      <point x="184" y="43"/>
      <point x="129" y="55"/>
      <point x="113" y="75" type="curve"/>
      <point x="97" y="176" type="line"/>
      <point x="52" y="176" type="line"/>
      <point x="52" y="23" type="line"/>
      <point x="113" y="5"/>
      <point x="188" y="2"/>
      <point x="233" y="0" type="curve"/>
      <point x="233" y="-92" type="line"/>
      <point x="275" y="-92" type="line"/>
      <point x="275" y="0" type="line"/>
      <point x="334" y="3"/>
      <point x="454" y="60"/>
    </contour>
    <contour>
      <point x="235" y="357" type="line"/>
      <point x="198" y="370"/>
      <point x="150" y="395"/>
      <point x="150" y="453" type="curve" smooth="yes"/>
      <point x="150" y="512"/>
      <point x="187" y="546"/>
      <point x="235" y="556" type="curve"/>
    </contour>
    <contour>
      <point x="372" y="153" type="curve" smooth="yes"/>
      <point x="372" y="89"/>
      <point x="326" y="56"/>
      <point x="275" y="47" type="curve"/>
      <point x="275" y="261" type="line"/>
      <point x="326" y="244"/>
      <point x="372" y="219"/>
    </contour>
  </outline>
</glyph>
<glyph name="ampersand" format="2">
  <advance width="629"/>
  <unicode hex="0026"/>
  <outline>
    <contour>
      <point x="611" y="0" type="line"/>
      <point x="611" y="38" type="line"/>
      <point x="530" y="43" type="line"/>
      <point x="457" y="127" type="line"/>
      <point x="484" y="163"/>
      <point x="517" y="217"/>
      <point x="534" y="279" type="curve"/>
      <point x="599" y="288" type="line"/>
      <point x="599" y="326" type="line"/>
      <point x="414" y="326" type="line"/>
      <point x="414" y="288" type="line"/>
      <point x="463" y="281" type="line" smooth="yes"/>
      <point x="471" y="280"/>
      <point x="479" y="269"/>
      <point x="479" y="264" type="curve" smooth="yes"/>
      <point x="474" y="229"/>
      <point x="447" y="183"/>
      <point x="428" y="159" type="curve"/>
      <point x="277" y="322" type="line"/>
      <point x="342" y="352"/>
      <point x="409" y="391"/>
      <point x="409" y="479" type="curve" smooth="yes"/>
      <point x="409" y="558"/>
      <point x="341" y="615"/>
      <point x="250" y="615" type="curve" smooth="yes"/>
      <point x="153" y="615"/>
      <point x="79" y="553"/>
      <point x="79" y="463" type="curve" smooth="yes"/>
      <point x="79" y="395"/>
      <point x="135" y="345"/>
      <point x="155" y="325" type="curve"/>
      <point x="84" y="296"/>
      <point x="35" y="246"/>
      <point x="35" y="167" type="curve" smooth="yes"/>
      <point x="35" y="64"/>
      <point x="119" y="-10"/>
      <point x="222" y="-10" type="curve" smooth="yes"/>
      <point x="306" y="-10"/>
      <point x="358" y="29"/>
      <point x="405" y="66" type="curve"/>
      <point x="445" y="21" type="line"/>
      <point x="445" y="0" type="line"/>
    </contour>
    <contour>
      <point x="326" y="474" type="curve" smooth="yes"/>
      <point x="326" y="413"/>
      <point x="297" y="378"/>
      <point x="244" y="352" type="curve"/>
      <point x="212" y="384"/>
      <point x="161" y="426"/>
      <point x="161" y="486" type="curve" smooth="yes"/>
      <point x="161" y="533"/>
      <point x="193" y="571"/>
      <point x="242" y="571" type="curve" smooth="yes"/>
      <point x="299" y="571"/>
      <point x="326" y="525"/>
    </contour>
    <contour>
      <point x="376" y="97" type="line"/>
      <point x="345" y="72"/>
      <point x="311" y="47"/>
      <point x="256" y="47" type="curve" smooth="yes"/>
      <point x="183" y="47"/>
      <point x="126" y="107"/>
      <point x="126" y="188" type="curve" smooth="yes"/>
      <point x="126" y="242"/>
      <point x="154" y="274"/>
      <point x="190" y="299" type="curve"/>
    </contour>
  </outline>
</glyph>
<glyph name="quotesingle" format="2">
  <advance width="153"/>
  <unicode hex="0027"/>
  <outline>
    <contour>
      <point x="115" y="598" type="line"/>
      <point x="115" y="626"/>
      <point x="101" y="642"/>
      <point x="76" y="642" type="curve" smooth="yes"/>
      <point x="52" y="642"/>
      <point x="38" y="626"/>
      <point x="38" y="598" type="curve"/>
      <point x="70" y="378" type="line"/>
      <point x="84" y="378" type="line"/>
    </contour>
  </outline>
</glyph>
<glyph name="parenleft" format="2">
  <advance width="338"/>
  <unicode hex="0028"/>
  <outline>
    <contour>
      <point x="308" y="-127" type="curve"/>
      <point x="308" y="-88" type="line"/>
      <point x="181" y="-67"/>
      <point x="136" y="59"/>
      <point x="136" y="259" type="curve" smooth="yes"/>
      <point x="136" y="458"/>
      <point x="181" y="584"/>
      <point x="308" y="605" type="curve"/>
      <point x="308" y="645" type="line"/>
      <point x="120" y="624"/>
      <point x="53" y="455"/>
      <point x="53" y="259" type="curve" smooth="yes"/>
      <point x="53" y="62"/>
      <point x="120" y="-107"/>
    </contour>
  </outline>
</glyph>
<glyph name="asterisk" format="2">
  <advance width="450"/>
  <unicode hex="002A"/>
  <outline>
    <contour>
      <point x="402" y="512" type="line"/>
      <point x="338" y="531" type="line"/>
      <point x="241" y="468" type="line"/>
      <point x="245" y="455" type="line"/>
      <point x="361" y="461" type="line"/>
    </contour>
    <contour>
      <point x="262" y="589" type="line"/>
      <point x="225" y="644" type="line"/>
      <point x="188" y="589" type="line"/>
      <point x="218" y="476" type="line"/>
      <point x="231" y="476" type="line"/>
    </contour>
    <contour>
      <point x="333" y="303" type="line"/>
      <point x="332" y="370" type="line"/>
      <point x="241" y="442" type="line"/>
      <point x="230" y="434" type="line"/>
      <point x="271" y="326" type="line"/>
    </contour>
    <contour>
      <point x="208" y="468" type="line"/>
      <point x="111" y="531" type="line"/>
      <point x="47" y="512" type="line"/>
      <point x="88" y="461" type="line"/>
      <point x="205" y="455" type="line"/>
    </contour>
    <contour>
      <point x="219" y="434" type="line"/>
      <point x="208" y="442" type="line"/>
      <point x="117" y="370" type="line"/>
      <point x="116" y="303" type="line"/>
      <point x="178" y="326" type="line"/>
    </contour>
  </outline>
</glyph>
<glyph name="comma" format="2">
  <advance width="251"/>
  <unicode hex="002C"/>
  <outline>
    <contour>
      <point x="185" y="8" type="curve" smooth="yes"/>
      <point x="185" y="66"/>
      <point x="162" y="109"/>
      <point x="110" y="109" type="curve" smooth="yes"/>
      <point x="78" y="109"/>
      <point x="54" y="79"/>
      <point x="54" y="47" type="curve" smooth="yes"/>
      <point x="54" y="23"/>
      <point x="68" y="8"/>
      <point x="71" y="6" type="curve"/>
      <point x="127" y="6" type="line"/>
      <point x="128" y="-75"/>
      <point x="92" y="-106"/>
      <point x="29" y="-120" type="curve"/>
      <point x="29" y="-152" type="line"/>
      <point x="110" y="-145"/>
      <point x="185" y="-80"/>
    </contour>
  </outline>
</glyph>
<glyph name="hyphen" format="2">
  <advance width="287"/>
  <unicode hex="002D"/>
  <outline>
    <contour>
      <point x="248" y="182" type="line"/>
      <point x="248" y="250" type="line"/>
      <point x="39" y="250" type="line"/>
      <point x="39" y="182" type="line"/>
    </contour>
  </outline>
</glyph>
<glyph name="slash" format="2">
  <advance width="260"/>
  <unicode hex="002F"/>
  <outline>
    <contour>
      <point x="260" y="614" type="line"/>
      <point x="221" y="614" type="line"/>
      <point x="-19" y="-94" type="line"/>
      <point x="21" y="-94" type="line"/>
    </contour>
  </outline>
</glyph>
<glyph name="zero" format="2">
  <advance width="506"/>
  <unicode hex="0030"/>
  <outline>
    <contour>
      <point x="470" y="301" type="curve" smooth="yes"/>
      <point x="470" y="473"/>
      <point x="399" y="618"/>
      <point x="252" y="618" type="curve" smooth="yes"/>
      <point x="106" y="618"/>
      <point x="36" y="473"/>
      <point x="36" y="301" type="curve" smooth="yes"/>
      <point x="36" y="129"/>
      <point x="106" y="-14"/>
      <point x="252" y="-14" type="curve" smooth="yes"/>
      <point x="399" y="-14"/>
      <point x="470" y="129"/>
    </contour>
    <contour>
      <point x="375" y="301" type="curve" smooth="yes"/>
      <point x="375" y="166"/>
      <point x="348" y="30"/>
      <point x="252" y="30" type="curve" smooth="yes"/>
      <point x="157" y="30"/>
      <point x="130" y="166"/>
      <point x="130" y="301" type="curve" smooth="yes"/>
      <point x="130" y="436"/>
      <point x="157" y="573"/>
      <point x="252" y="573" type="curve" smooth="yes"/>
      <point x="348" y="573"/>
      <point x="375" y="436"/>
    </contour>
  </outline>
</glyph>
<glyph name="one" format="2">
  <advance width="347"/>
  <unicode hex="0031"/>
  <outline>
    <contour>
      <point x="232" y="437" type="curve" smooth="yes"/>
      <point x="232" y="446"/>
      <point x="225" y="450"/>
      <point x="211" y="450" type="curve" smooth="yes"/>
      <point x="173" y="450"/>
      <point x="142" y="441"/>
      <point x="119" y="423" type="curve" smooth="yes"/>
      <point x="103" y="412"/>
      <point x="102" y="408"/>
      <point x="61" y="321" type="curve" smooth="yes"/>
      <point x="45" y="290"/>
      <point x="37" y="291"/>
      <point x="34" y="285" type="curve" smooth="yes"/>
      <point x="25" y="279"/>
      <point x="17" y="273"/>
      <point x="9" y="268" type="curve" smooth="yes"/>
      <point x="-5" y="256"/>
      <point x="-2" y="230"/>
      <point x="17" y="230" type="curve" smooth="yes"/>
      <point x="42" y="230"/>
      <point x="81" y="287"/>
      <point x="94" y="327" type="curve"/>
      <point x="93" y="312"/>
      <point x="93" y="297"/>
      <point x="93" y="282" type="curve" smooth="yes"/>
      <point x="88" y="191"/>
      <point x="86" y="142"/>
      <point x="86" y="135" type="curve" smooth="yes"/>
      <point x="86" y="58"/>
      <point x="54" y="18"/>
      <point x="54" y="9" type="curve" smooth="yes"/>
      <point x="54" y="0"/>
      <point x="61" y="-4"/>
      <point x="75" y="-4" type="curve" smooth="yes"/>
      <point x="189" y="-4"/>
      <point x="195" y="107"/>
      <point x="195" y="132" type="curve" smooth="yes"/>
      <point x="195" y="134"/>
      <point x="200" y="287"/>
      <point x="200" y="311" type="curve" smooth="yes"/>
      <point x="200" y="388"/>
      <point x="232" y="428"/>
    </contour>
  </outline>
</glyph>
<glyph name="three" format="2">
  <advance width="506"/>
  <unicode hex="0033"/>
  <outline>
    <contour>
      <point x="464" y="171" type="curve" smooth="yes"/>
      <point x="464" y="270"/>
      <point x="377" y="314"/>
      <point x="302" y="317" type="curve"/>
      <point x="391" y="342"/>
      <point x="441" y="395"/>
      <point x="441" y="462" type="curve" smooth="yes"/>
      <point x="441" y="558"/>
      <point x="360" y="618"/>
      <point x="256" y="618" type="curve" smooth="yes"/>
      <point x="148" y="618"/>
      <point x="57" y="560"/>
      <point x="57" y="492" type="curve" smooth="yes"/>
      <point x="57" y="453"/>
      <point x="88" y="442"/>
      <point x="109" y="442" type="curve" smooth="yes"/>
      <point x="132" y="442"/>
      <point x="146" y="450"/>
      <point x="150" y="453" type="curve"/>
      <point x="150" y="543" type="line"/>
      <point x="164" y="554"/>
      <point x="196" y="568"/>
      <point x="231" y="568" type="curve" smooth="yes"/>
      <point x="292" y="568"/>
      <point x="349" y="526"/>
      <point x="349" y="450" type="curve" smooth="yes"/>
      <point x="349" y="371"/>
      <point x="280" y="336"/>
      <point x="205" y="336" type="curve" smooth="yes"/>
      <point x="195" y="336"/>
      <point x="184" y="337"/>
      <point x="181" y="337" type="curve"/>
      <point x="181" y="281" type="line"/>
      <point x="192" y="283"/>
      <point x="213" y="285"/>
      <point x="236" y="285" type="curve" smooth="yes"/>
      <point x="296" y="285"/>
      <point x="371" y="259"/>
      <point x="371" y="171" type="curve" smooth="yes"/>
      <point x="371" y="99"/>
      <point x="315" y="30"/>
      <point x="231" y="30" type="curve" smooth="yes"/>
      <point x="202" y="30"/>
      <point x="176" y="40"/>
      <point x="152" y="54" type="curve"/>
      <point x="126" y="134" type="line"/>
      <point x="118" y="139"/>
      <point x="102" y="140"/>
      <point x="95" y="140" type="curve" smooth="yes"/>
      <point x="59" y="140"/>
      <point x="42" y="116"/>
      <point x="42" y="91" type="curve" smooth="yes"/>
      <point x="42" y="47"/>
      <point x="107" y="-14"/>
      <point x="228" y="-14" type="curve" smooth="yes"/>
      <point x="358" y="-14"/>
      <point x="464" y="62"/>
    </contour>
  </outline>
</glyph>
<glyph name="four" format="2">
  <advance width="506"/>
  <unicode hex="0034"/>
  <outline>
    <contour>
      <point x="470" y="179" type="line"/>
      <point x="470" y="240" type="line"/>
      <point x="394" y="240" type="line"/>
      <point x="394" y="618" type="line"/>
      <point x="331" y="618" type="line"/>
      <point x="36" y="241" type="line"/>
      <point x="36" y="179" type="line"/>
      <point x="309" y="179" type="line"/>
      <point x="309" y="-14" type="line"/>
      <point x="394" y="-14" type="line"/>
      <point x="394" y="179" type="line"/>
    </contour>
    <contour>
      <point x="309" y="240" type="line"/>
      <point x="107" y="240" type="line"/>
      <point x="309" y="503" type="line"/>
    </contour>
  </outline>
</glyph>
<glyph name="five" format="2">
  <advance width="506"/>
  <unicode hex="0035"/>
  <outline>
    <contour>
      <point x="465" y="195" type="curve" smooth="yes"/>
      <point x="465" y="311"/>
      <point x="387" y="379"/>
      <point x="261" y="379" type="curve" smooth="yes"/>
      <point x="201" y="379"/>
      <point x="142" y="356"/>
      <point x="140" y="356" type="curve"/>
      <point x="140" y="527" type="line"/>
      <point x="424" y="527" type="line"/>
      <point x="424" y="603" type="line"/>
      <point x="76" y="603" type="line"/>
      <point x="76" y="291" type="line"/>
      <point x="76" y="291"/>
      <point x="161" y="322"/>
      <point x="219" y="322" type="curve" smooth="yes"/>
      <point x="306" y="322"/>
      <point x="373" y="274"/>
      <point x="373" y="173" type="curve" smooth="yes"/>
      <point x="373" y="109"/>
      <point x="320" y="29"/>
      <point x="225" y="29" type="curve" smooth="yes"/>
      <point x="204" y="29"/>
      <point x="170" y="42"/>
      <point x="155" y="55" type="curve"/>
      <point x="121" y="138" type="line"/>
      <point x="117" y="139"/>
      <point x="107" y="142"/>
      <point x="97" y="142" type="curve" smooth="yes"/>
      <point x="64" y="142"/>
      <point x="40" y="124"/>
      <point x="40" y="91" type="curve" smooth="yes"/>
      <point x="40" y="44"/>
      <point x="117" y="-14"/>
      <point x="211" y="-14" type="curve" smooth="yes"/>
      <point x="377" y="-14"/>
      <point x="465" y="72"/>
    </contour>
  </outline>
</glyph>
<glyph name="seven" format="2">
  <advance width="455"/>
  <unicode hex="0037"/>
  <outline>
    <contour>
      <point x="230" y="404" type="curve"/>
      <point x="222" y="390"/>
      <point x="219" y="381"/>
      <point x="215" y="347" type="curve" smooth="yes"/>
      <point x="182" y="113" type="line" smooth="yes"/>
      <point x="172" y="48"/>
      <point x="143" y="26"/>
      <point x="143" y="15" type="curve" smooth="yes"/>
      <point x="143" y="3"/>
      <point x="159" y="3"/>
      <point x="171" y="3" type="curve" smooth="yes"/>
      <point x="251" y="3"/>
      <point x="266" y="85"/>
      <point x="268" y="98" type="curve" smooth="yes"/>
      <point x="301" y="332" type="line" smooth="yes"/>
      <point x="310" y="398"/>
      <point x="340" y="421"/>
      <point x="340" y="430" type="curve" smooth="yes"/>
      <point x="340" y="432"/>
      <point x="327" y="449"/>
      <point x="290" y="449" type="curve" smooth="yes"/>
      <point x="289" y="449"/>
      <point x="241" y="444"/>
      <point x="230" y="443" type="curve" smooth="yes"/>
      <point x="201" y="441"/>
      <point x="179" y="429"/>
      <point x="134" y="429" type="curve" smooth="yes"/>
      <point x="101" y="429"/>
      <point x="67" y="435"/>
      <point x="62" y="435" type="curve" smooth="yes"/>
      <point x="52" y="437"/>
      <point x="35" y="447"/>
      <point x="24" y="447" type="curve" smooth="yes"/>
      <point x="15" y="447"/>
      <point x="9" y="442"/>
      <point x="6" y="433" type="curve" smooth="yes"/>
      <point x="-9" y="397"/>
      <point x="112" y="389"/>
      <point x="112" y="389" type="curve" smooth="yes"/>
      <point x="142" y="389"/>
      <point x="162" y="390"/>
    </contour>
  </outline>
</glyph>
<glyph name="eight" format="2">
  <advance width="399"/>
  <unicode hex="0038"/>
  <outline>
    <contour>
      <point x="109" y="40" type="curve" smooth="yes"/>
      <point x="45" y="40"/>
      <point x="40" y="101"/>
      <point x="40" y="121" type="curve" smooth="yes"/>
      <point x="40" y="156"/>
      <point x="51" y="220"/>
      <point x="107" y="220" type="curve" smooth="yes"/>
      <point x="165" y="220"/>
      <point x="179" y="169"/>
      <point x="179" y="121" type="curve" smooth="yes"/>
      <point x="179" y="41"/>
      <point x="127" y="40"/>
    </contour>
    <contour>
      <point x="104" y="410" type="curve" smooth="yes"/>
      <point x="158" y="410"/>
      <point x="170" y="380"/>
      <point x="170" y="328" type="curve" smooth="yes"/>
      <point x="170" y="288"/>
      <point x="148" y="252"/>
      <point x="107" y="245" type="curve"/>
      <point x="63" y="245"/>
      <point x="45" y="288"/>
      <point x="45" y="328" type="curve" smooth="yes"/>
      <point x="45" y="400"/>
      <point x="83" y="410"/>
    </contour>
    <contour>
      <point x="277" y="330" type="curve" smooth="yes"/>
      <point x="277" y="446"/>
      <point x="170" y="453"/>
      <point x="144" y="453" type="curve" smooth="yes"/>
      <point x="97" y="453"/>
      <point x="5" y="445"/>
      <point x="5" y="330" type="curve" smooth="yes"/>
      <point x="5" y="270"/>
      <point x="58" y="237"/>
      <point x="68" y="231" type="curve"/>
      <point x="10" y="203"/>
      <point x="0" y="154"/>
      <point x="0" y="123" type="curve" smooth="yes"/>
      <point x="0" y="11"/>
      <point x="98" y="-2"/>
      <point x="144" y="-2" type="curve" smooth="yes"/>
      <point x="274" y="-2"/>
      <point x="286" y="90"/>
      <point x="286" y="123" type="curve" smooth="yes"/>
      <point x="286" y="195"/>
      <point x="225" y="222"/>
      <point x="183" y="234" type="curve"/>
      <point x="228" y="239"/>
      <point x="277" y="278"/>
    </contour>
  </outline>
</glyph>
<glyph name="nine" format="2">
  <advance width="506"/>
  <unicode hex="0039"/>
  <outline>
    <contour>
      <point x="470" y="345" type="curve" smooth="yes"/>
      <point x="470" y="542"/>
      <point x="375" y="618"/>
      <point x="254" y="618" type="curve" smooth="yes"/>
      <point x="132" y="618"/>
      <point x="36" y="528"/>
      <point x="36" y="396" type="curve" smooth="yes"/>
      <point x="36" y="289"/>
      <point x="109" y="210"/>
      <point x="223" y="210" type="curve" smooth="yes"/>
      <point x="273" y="210"/>
      <point x="323" y="224"/>
      <point x="373" y="267" type="curve"/>
      <point x="354" y="124"/>
      <point x="254" y="36"/>
      <point x="140" y="40" type="curve" smooth="yes"/>
      <point x="109" y="41" type="line"/>
      <point x="109" y="-14" type="line"/>
      <point x="338" y="-14"/>
      <point x="470" y="130"/>
    </contour>
    <contour>
      <point x="377" y="363" type="curve" smooth="yes"/>
      <point x="377" y="350"/>
      <point x="377" y="333"/>
      <point x="375" y="314" type="curve"/>
      <point x="340" y="286"/>
      <point x="292" y="268"/>
      <point x="254" y="268" type="curve" smooth="yes"/>
      <point x="174" y="268"/>
      <point x="127" y="321"/>
      <point x="127" y="409" type="curve" smooth="yes"/>
      <point x="127" y="499"/>
      <point x="167" y="571"/>
      <point x="254" y="571" type="curve" smooth="yes"/>
      <point x="340" y="571"/>
      <point x="377" y="486"/>
    </contour>
  </outline>
</glyph>
<glyph name="at" format="2">
  <advance width="768"/>
  <unicode hex="0040"/>
  <outline>
    <contour>
      <point x="733" y="247" type="curve"/>
      <point x="733" y="479"/>
      <point x="606" y="594"/>
      <point x="421" y="594" type="curve" smooth="yes"/>
      <point x="206" y="594"/>
      <point x="35" y="412"/>
      <point x="35" y="204" type="curve" smooth="yes"/>
      <point x="35" y="-31"/>
      <point x="184" y="-175"/>
      <point x="397" y="-175" type="curve" smooth="yes"/>
      <point x="534" y="-175"/>
      <point x="627" y="-111"/>
      <point x="669" y="-65" type="curve"/>
      <point x="651" y="-31" type="line"/>
      <point x="616" y="-61"/>
      <point x="526" y="-107"/>
      <point x="418" y="-107" type="curve" smooth="yes"/>
      <point x="257" y="-107"/>
      <point x="123" y="11"/>
      <point x="123" y="230" type="curve" smooth="yes"/>
      <point x="123" y="388"/>
      <point x="225" y="526"/>
      <point x="404" y="526" type="curve" smooth="yes"/>
      <point x="555" y="526"/>
      <point x="658" y="424"/>
      <point x="658" y="225" type="curve" smooth="yes"/>
      <point x="658" y="126"/>
      <point x="612" y="63"/>
      <point x="583" y="63" type="curve" smooth="yes"/>
      <point x="557" y="63"/>
      <point x="546" y="83"/>
      <point x="546" y="125" type="curve" smooth="yes"/>
      <point x="546" y="311" type="line" smooth="yes"/>
      <point x="546" y="346"/>
      <point x="554" y="387"/>
      <point x="559" y="408" type="curve"/>
      <point x="546" y="421" type="line"/>
      <point x="523" y="403"/>
      <point x="504" y="392"/>
      <point x="477" y="381" type="curve"/>
      <point x="448" y="415"/>
      <point x="430" y="421"/>
      <point x="403" y="421" type="curve" smooth="yes"/>
      <point x="285" y="421"/>
      <point x="213" y="300"/>
      <point x="213" y="192" type="curve" smooth="yes"/>
      <point x="213" y="55"/>
      <point x="282" y="-13"/>
      <point x="342" y="-13" type="curve" smooth="yes"/>
      <point x="388" y="-13"/>
      <point x="409" y="2"/>
      <point x="457" y="62" type="curve"/>
      <point x="467" y="5"/>
      <point x="493" y="-13"/>
      <point x="526" y="-13" type="curve" smooth="yes"/>
      <point x="620" y="-13"/>
      <point x="733" y="97"/>
    </contour>
    <contour>
      <point x="454" y="321" type="curve"/>
      <point x="454" y="118" type="line"/>
      <point x="418" y="72"/>
      <point x="405" y="61"/>
      <point x="382" y="61" type="curve" smooth="yes"/>
      <point x="347" y="61"/>
      <point x="305" y="106"/>
      <point x="305" y="206" type="curve" smooth="yes"/>
      <point x="305" y="316"/>
      <point x="338" y="366"/>
      <point x="394" y="366" type="curve" smooth="yes"/>
      <point x="425" y="366"/>
      <point x="440" y="349"/>
    </contour>
  </outline>
</glyph>
<glyph name="A" format="2">
  <advance width="606"/>
  <unicode hex="0041"/>
  <outline>
    <contour>
      <point x="602" y="0" type="line"/>
      <point x="602" y="38" type="line"/>
      <point x="561" y="45" type="line" smooth="yes"/>
      <point x="547" y="47"/>
      <point x="547" y="50"/>
      <point x="542" y="62" type="curve" smooth="yes"/>
      <point x="333" y="618" type="line"/>
      <point x="266" y="618" type="line"/>
      <point x="56" y="49" type="line"/>
      <point x="4" y="38" type="line"/>
      <point x="4" y="0" type="line"/>
      <point x="185" y="0" type="line"/>
      <point x="185" y="38" type="line"/>
      <point x="132" y="43" type="line" smooth="yes"/>
      <point x="126" y="43"/>
      <point x="116" y="54"/>
      <point x="119" y="61" type="curve" smooth="yes"/>
      <point x="179" y="223" type="line"/>
      <point x="387" y="223" type="line"/>
      <point x="449" y="58" type="line" smooth="yes"/>
      <point x="450" y="54"/>
      <point x="445" y="43"/>
      <point x="439" y="43" type="curve" smooth="yes"/>
      <point x="388" y="38" type="line"/>
      <point x="388" y="0" type="line"/>
    </contour>
    <contour>
      <point x="370" y="266" type="line"/>
      <point x="195" y="266" type="line"/>
      <point x="282" y="502" type="line"/>
    </contour>
  </outline>
</glyph>
<glyph name="B" format="2">
  <advance width="544"/>
  <unicode hex="0042"/>
  <anchor x="268" y="659" name="U"/>
  <outline>
    <contour>
      <point x="509" y="178" type="curve" smooth="yes"/>
      <point x="509" y="284"/>
      <point x="423" y="320"/>
      <point x="342" y="320" type="curve"/>
      <point x="395" y="333"/>
      <point x="472" y="369"/>
      <point x="472" y="458" type="curve" smooth="yes"/>
      <point x="472" y="548"/>
      <point x="413" y="603"/>
      <point x="269" y="603" type="curve" smooth="yes"/>
      <point x="29" y="603" type="line"/>
      <point x="29" y="565" type="line"/>
      <point x="76" y="561" type="line" smooth="yes"/>
      <point x="89" y="560"/>
      <point x="95" y="550"/>
      <point x="95" y="541" type="curve" smooth="yes"/>
      <point x="95" y="61" type="line" smooth="yes"/>
      <point x="95" y="53"/>
      <point x="89" y="43"/>
      <point x="76" y="42" type="curve" smooth="yes"/>
      <point x="29" y="38" type="line"/>
      <point x="29" y="0" type="line"/>
      <point x="280" y="0" type="line" smooth="yes"/>
      <point x="375" y="0"/>
      <point x="509" y="32"/>
    </contour>
    <contour>
      <point x="375" y="452" type="curve" smooth="yes"/>
      <point x="375" y="375"/>
      <point x="334" y="331"/>
      <point x="217" y="331" type="curve" smooth="yes"/>
      <point x="207" y="331"/>
      <point x="185" y="332"/>
      <point x="185" y="332" type="curve"/>
      <point x="185" y="559" type="line"/>
      <point x="191" y="559"/>
      <point x="217" y="562"/>
      <point x="236" y="562" type="curve" smooth="yes"/>
      <point x="329" y="562"/>
      <point x="375" y="522"/>
    </contour>
    <contour>
      <point x="411" y="170" type="curve" smooth="yes"/>
      <point x="411" y="85"/>
      <point x="367" y="43"/>
      <point x="241" y="43" type="curve" smooth="yes"/>
      <point x="224" y="43"/>
      <point x="185" y="46"/>
      <point x="185" y="46" type="curve"/>
      <point x="185" y="284" type="line"/>
      <point x="190" y="284"/>
      <point x="236" y="289"/>
      <point x="266" y="289" type="curve" smooth="yes"/>
      <point x="361" y="289"/>
      <point x="411" y="252"/>
    </contour>
  </outline>
</glyph>
<glyph name="C" format="2">
  <advance width="564"/>
  <unicode hex="0043"/>
  <outline>
    <contour>
      <point x="529" y="20" type="curve"/>
      <point x="529" y="166" type="line"/>
      <point x="476" y="166" type="line"/>
      <point x="456" y="68" type="line" smooth="yes"/>
      <point x="454" y="61"/>
      <point x="448" y="54"/>
      <point x="439" y="50" type="curve" smooth="yes"/>
      <point x="437" y="49"/>
      <point x="408" y="35"/>
      <point x="366" y="35" type="curve" smooth="yes"/>
      <point x="224" y="35"/>
      <point x="138" y="135"/>
      <point x="138" y="303" type="curve" smooth="yes"/>
      <point x="138" y="475"/>
      <point x="232" y="567"/>
      <point x="354" y="567" type="curve" smooth="yes"/>
      <point x="399" y="567"/>
      <point x="432" y="550"/>
      <point x="446" y="544" type="curve" smooth="yes"/>
      <point x="451" y="541"/>
      <point x="460" y="531"/>
      <point x="461" y="523" type="curve" smooth="yes"/>
      <point x="475" y="442" type="line"/>
      <point x="529" y="442" type="line"/>
      <point x="529" y="583" type="line"/>
      <point x="456" y="605"/>
      <point x="408" y="618"/>
      <point x="350" y="618" type="curve" smooth="yes"/>
      <point x="162" y="618"/>
      <point x="35" y="489"/>
      <point x="35" y="303" type="curve" smooth="yes"/>
      <point x="35" y="138"/>
      <point x="147" y="-14"/>
      <point x="349" y="-14" type="curve" smooth="yes"/>
      <point x="441" y="-14"/>
      <point x="524" y="18"/>
    </contour>
  </outline>
</glyph>
<glyph name="D" format="2">
  <advance width="626"/>
  <unicode hex="0044"/>
  <outline>
    <contour>
      <point x="591" y="303" type="curve" smooth="yes"/>
      <point x="591" y="511"/>
      <point x="450" y="603"/>
      <point x="261" y="603" type="curve" smooth="yes"/>
      <point x="29" y="603" type="line"/>
      <point x="29" y="565" type="line"/>
      <point x="76" y="561" type="line" smooth="yes"/>
      <point x="89" y="560"/>
      <point x="96" y="550"/>
      <point x="96" y="541" type="curve" smooth="yes"/>
      <point x="96" y="61" type="line" smooth="yes"/>
      <point x="96" y="53"/>
      <point x="89" y="43"/>
      <point x="76" y="42" type="curve" smooth="yes"/>
      <point x="29" y="38" type="line"/>
      <point x="29" y="0" type="line"/>
      <point x="279" y="0" type="line" smooth="yes"/>
      <point x="504" y="0"/>
      <point x="591" y="145"/>
    </contour>
    <contour>
      <point x="489" y="301" type="curve" smooth="yes"/>
      <point x="489" y="116"/>
      <point x="398" y="45"/>
      <point x="260" y="43" type="curve" smooth="yes"/>
      <point x="187" y="43" type="line"/>
      <point x="187" y="560" type="line"/>
      <point x="255" y="560" type="line" smooth="yes"/>
      <point x="397" y="560"/>
      <point x="489" y="490"/>
    </contour>
  </outline>
</glyph>
<glyph name="E" format="2">
  <advance width="524"/>
  <unicode hex="0045"/>
  <anchor x="262" y="0" name="H"/>
  <anchor x="262" y="659" name="U"/>
  <outline>
    <contour>
      <point x="495" y="0" type="line"/>
      <point x="495" y="150" type="line"/>
      <point x="447" y="150" type="line"/>
      <point x="431" y="61" type="line" smooth="yes"/>
      <point x="430" y="54"/>
      <point x="422" y="43"/>
      <point x="414" y="43" type="curve" smooth="yes"/>
      <point x="187" y="43" type="line"/>
      <point x="187" y="291" type="line"/>
      <point x="322" y="291" type="line" smooth="yes"/>
      <point x="329" y="291"/>
      <point x="338" y="281"/>
      <point x="338" y="275" type="curve"/>
      <point x="347" y="213" type="line"/>
      <point x="393" y="213" type="line"/>
      <point x="393" y="413" type="line"/>
      <point x="347" y="413" type="line"/>
      <point x="338" y="352" type="line"/>
      <point x="338" y="345"/>
      <point x="330" y="336"/>
      <point x="322" y="336" type="curve" smooth="yes"/>
      <point x="187" y="336" type="line"/>
      <point x="187" y="560" type="line"/>
      <point x="382" y="560" type="line" smooth="yes"/>
      <point x="390" y="560"/>
      <point x="397" y="552"/>
      <point x="398" y="543" type="curve"/>
      <point x="412" y="469" type="line"/>
      <point x="466" y="469" type="line"/>
      <point x="466" y="603" type="line"/>
      <point x="29" y="603" type="line"/>
      <point x="29" y="565" type="line"/>
      <point x="75" y="561" type="line" smooth="yes"/>
      <point x="88" y="560"/>
      <point x="95" y="550"/>
      <point x="95" y="541" type="curve" smooth="yes"/>
      <point x="95" y="61" type="line" smooth="yes"/>
      <point x="95" y="53"/>
      <point x="88" y="43"/>
      <point x="75" y="42" type="curve" smooth="yes"/>
      <point x="29" y="38" type="line"/>
      <point x="29" y="0" type="line"/>
    </contour>
  </outline>
</glyph>
<glyph name="F" format="2">
  <advance width="486"/>
  <unicode hex="0046"/>
  <outline>
    <contour>
      <point x="460" y="460" type="line"/>
      <point x="460" y="603" type="line"/>
      <point x="22" y="603" type="line"/>
      <point x="22" y="565" type="line"/>
      <point x="77" y="561" type="line" smooth="yes"/>
      <point x="90" y="560"/>
      <point x="96" y="550"/>
      <point x="96" y="541" type="curve" smooth="yes"/>
      <point x="96" y="61" type="line" smooth="yes"/>
      <point x="96" y="53"/>
      <point x="90" y="43"/>
      <point x="77" y="42" type="curve" smooth="yes"/>
      <point x="29" y="38" type="line"/>
      <point x="29" y="0" type="line"/>
      <point x="266" y="0" type="line"/>
      <point x="266" y="38" type="line"/>
      <point x="206" y="42" type="line" smooth="yes"/>
      <point x="193" y="43"/>
      <point x="187" y="53"/>
      <point x="187" y="61" type="curve" smooth="yes"/>
      <point x="187" y="281" type="line"/>
      <point x="324" y="281" type="line" smooth="yes"/>
      <point x="332" y="281"/>
      <point x="340" y="271"/>
      <point x="341" y="265" type="curve" smooth="yes"/>
      <point x="349" y="202" type="line"/>
      <point x="394" y="202" type="line"/>
      <point x="394" y="405" type="line"/>
      <point x="349" y="405" type="line"/>
      <point x="341" y="341" type="line" smooth="yes"/>
      <point x="340" y="335"/>
      <point x="333" y="325"/>
      <point x="324" y="325" type="curve" smooth="yes"/>
      <point x="187" y="325" type="line"/>
      <point x="187" y="559" type="line"/>
      <point x="378" y="559" type="line" smooth="yes"/>
      <point x="387" y="559"/>
      <point x="392" y="552"/>
      <point x="394" y="543" type="curve" smooth="yes"/>
      <point x="406" y="460" type="line"/>
    </contour>
  </outline>
</glyph>
<glyph name="G" format="2">
  <advance width="625"/>
  <unicode hex="0047"/>
  <outline>
    <contour>
      <point x="602" y="252" type="line"/>
      <point x="602" y="291" type="line"/>
      <point x="368" y="291" type="line"/>
      <point x="368" y="252" type="line"/>
      <point x="428" y="248" type="line" smooth="yes"/>
      <point x="441" y="247"/>
      <point x="447" y="238"/>
      <point x="447" y="229" type="curve" smooth="yes"/>
      <point x="447" y="49" type="line"/>
      <point x="442" y="49"/>
      <point x="407" y="36"/>
      <point x="368" y="36" type="curve" smooth="yes"/>
      <point x="227" y="36"/>
      <point x="137" y="134"/>
      <point x="137" y="307" type="curve" smooth="yes"/>
      <point x="137" y="475"/>
      <point x="227" y="567"/>
      <point x="357" y="567" type="curve" smooth="yes"/>
      <point x="399" y="567"/>
      <point x="433" y="551"/>
      <point x="450" y="544" type="curve" smooth="yes"/>
      <point x="458" y="540"/>
      <point x="467" y="533"/>
      <point x="468" y="522" type="curve" smooth="yes"/>
      <point x="483" y="442" type="line"/>
      <point x="537" y="442" type="line"/>
      <point x="537" y="587" type="line"/>
      <point x="482" y="602"/>
      <point x="428" y="618"/>
      <point x="360" y="618" type="curve" smooth="yes"/>
      <point x="159" y="618"/>
      <point x="35" y="492"/>
      <point x="35" y="303" type="curve" smooth="yes"/>
      <point x="35" y="136"/>
      <point x="148" y="-14"/>
      <point x="349" y="-14" type="curve" smooth="yes"/>
      <point x="446" y="-14"/>
      <point x="538" y="21"/>
      <point x="538" y="21" type="curve"/>
      <point x="538" y="229" type="line" smooth="yes"/>
      <point x="538" y="238"/>
      <point x="544" y="247"/>
      <point x="557" y="248" type="curve" smooth="yes"/>
    </contour>
  </outline>
</glyph>
<glyph name="H" format="2">
  <advance width="606"/>
  <unicode hex="0048"/>
  <anchor x="129" y="0" name="H"/>
  <anchor x="298" y="602" name="U"/>
  <outline>
    <contour>
      <point x="358" y="0" type="line"/>
      <point x="577" y="0" type="line"/>
      <point x="577" y="27" type="line"/>
      <point x="535" y="35"/>
      <point x="516" y="47"/>
      <point x="516" y="54" type="curve" smooth="yes"/>
      <point x="516" y="498" type="line" smooth="yes"/>
      <point x="516" y="507"/>
      <point x="538" y="517"/>
      <point x="577" y="526" type="curve"/>
      <point x="577" y="553" type="line"/>
      <point x="358" y="553" type="line"/>
      <point x="358" y="526" type="line"/>
      <point x="400" y="517"/>
      <point x="419" y="505"/>
      <point x="419" y="498" type="curve" smooth="yes"/>
      <point x="419" y="54" type="line" smooth="yes"/>
      <point x="419" y="46"/>
      <point x="397" y="35"/>
      <point x="358" y="27" type="curve"/>
    </contour>
    <contour>
      <point x="165" y="265" type="line"/>
      <point x="428" y="265" type="line"/>
      <point x="428" y="314" type="line"/>
      <point x="165" y="314" type="line"/>
    </contour>
    <contour>
      <point x="19" y="0" type="line"/>
      <point x="239" y="0" type="line"/>
      <point x="239" y="27" type="line"/>
      <point x="196" y="35"/>
      <point x="177" y="47"/>
      <point x="177" y="54" type="curve" smooth="yes"/>
      <point x="177" y="498" type="line" smooth="yes"/>
      <point x="177" y="507"/>
      <point x="199" y="517"/>
      <point x="239" y="526" type="curve"/>
      <point x="239" y="553" type="line"/>
      <point x="19" y="553" type="line"/>
      <point x="19" y="526" type="line"/>
      <point x="61" y="517"/>
      <point x="81" y="505"/>
      <point x="81" y="498" type="curve" smooth="yes"/>
      <point x="81" y="54" type="line" smooth="yes"/>
      <point x="81" y="46"/>
      <point x="59" y="35"/>
      <point x="19" y="27" type="curve"/>
    </contour>
  </outline>
</glyph>
<glyph name="I" format="2">
  <advance width="297"/>
  <unicode hex="0049"/>
  <anchor x="148" y="0" name="H"/>
  <anchor x="148" y="659" name="U"/>
  <outline>
    <contour>
      <point x="267" y="0" type="line"/>
      <point x="267" y="38" type="line"/>
      <point x="212" y="42" type="line" smooth="yes"/>
      <point x="199" y="43"/>
      <point x="193" y="53"/>
      <point x="193" y="61" type="curve" smooth="yes"/>
      <point x="193" y="541" type="line" smooth="yes"/>
      <point x="193" y="550"/>
      <point x="199" y="559"/>
      <point x="212" y="560" type="curve" smooth="yes"/>
      <point x="267" y="564" type="line"/>
      <point x="267" y="603" type="line"/>
      <point x="29" y="603" type="line"/>
      <point x="29" y="564" type="line"/>
      <point x="83" y="560" type="line" smooth="yes"/>
      <point x="96" y="559"/>
      <point x="102" y="550"/>
      <point x="102" y="541" type="curve" smooth="yes"/>
      <point x="102" y="61" type="line" smooth="yes"/>
      <point x="102" y="53"/>
      <point x="96" y="43"/>
      <point x="83" y="42" type="curve" smooth="yes"/>
      <point x="29" y="38" type="line"/>
      <point x="29" y="0" type="line"/>
    </contour>
  </outline>
</glyph>
<glyph name="J" format="2">
  <advance width="436"/>
  <unicode hex="004A"/>
  <anchor x="296" y="659" name="U"/>
  <outline>
    <contour>
      <point x="413" y="565" type="line"/>
      <point x="413" y="603" type="line"/>
      <point x="175" y="603" type="line"/>
      <point x="175" y="565" type="line"/>
      <point x="232" y="561" type="line" smooth="yes"/>
      <point x="244" y="560"/>
      <point x="250" y="550"/>
      <point x="250" y="541" type="curve" smooth="yes"/>
      <point x="250" y="221" type="line" smooth="yes"/>
      <point x="250" y="95"/>
      <point x="219" y="31"/>
      <point x="137" y="31" type="curve" smooth="yes"/>
      <point x="119" y="31"/>
      <point x="99" y="36"/>
      <point x="96" y="54" type="curve" smooth="yes"/>
      <point x="76" y="164" type="line"/>
      <point x="22" y="164" type="line"/>
      <point x="22" y="10" type="line"/>
      <point x="27" y="8"/>
      <point x="85" y="-14"/>
      <point x="144" y="-14" type="curve" smooth="yes"/>
      <point x="289" y="-14"/>
      <point x="341" y="78"/>
      <point x="341" y="227" type="curve" smooth="yes"/>
      <point x="341" y="541" type="line" smooth="yes"/>
      <point x="341" y="550"/>
      <point x="348" y="560"/>
      <point x="360" y="561" type="curve" smooth="yes"/>
    </contour>
  </outline>
</glyph>
<glyph name="K" format="2">
  <advance width="574"/>
  <unicode hex="004B"/>
  <outline>
    <contour>
      <point x="574" y="0" type="line"/>
      <point x="574" y="38" type="line"/>
      <point x="509" y="43" type="line"/>
      <point x="307" y="338" type="line"/>
      <point x="491" y="558" type="line"/>
      <point x="496" y="558"/>
      <point x="552" y="565"/>
      <point x="552" y="565" type="curve"/>
      <point x="552" y="603" type="line"/>
      <point x="361" y="603" type="line"/>
      <point x="361" y="565" type="line"/>
      <point x="407" y="560" type="line" smooth="yes"/>
      <point x="413" y="559"/>
      <point x="419" y="550"/>
      <point x="414" y="545" type="curve" smooth="yes"/>
      <point x="218" y="305" type="line"/>
      <point x="186" y="305" type="line"/>
      <point x="186" y="541" type="line" smooth="yes"/>
      <point x="186" y="550"/>
      <point x="193" y="560"/>
      <point x="206" y="561" type="curve" smooth="yes"/>
      <point x="257" y="565" type="line"/>
      <point x="257" y="603" type="line"/>
      <point x="29" y="603" type="line"/>
      <point x="29" y="565" type="line"/>
      <point x="76" y="561" type="line" smooth="yes"/>
      <point x="89" y="560"/>
      <point x="95" y="550"/>
      <point x="95" y="541" type="curve" smooth="yes"/>
      <point x="95" y="61" type="line" smooth="yes"/>
      <point x="95" y="53"/>
      <point x="89" y="43"/>
      <point x="76" y="42" type="curve" smooth="yes"/>
      <point x="29" y="38" type="line"/>
      <point x="29" y="0" type="line"/>
      <point x="257" y="0" type="line"/>
      <point x="257" y="38" type="line"/>
      <point x="206" y="42" type="line" smooth="yes"/>
      <point x="193" y="43"/>
      <point x="186" y="53"/>
      <point x="186" y="61" type="curve" smooth="yes"/>
      <point x="186" y="268" type="line"/>
      <point x="249" y="268" type="line"/>
      <point x="416" y="27" type="line"/>
      <point x="416" y="0" type="line"/>
    </contour>
  </outline>
</glyph>
<glyph name="L" format="2">
  <advance width="477"/>
  <unicode hex="004C"/>
  <anchor x="243" y="0" name="H"/>
  <anchor x="243" y="659" name="U"/>
  <outline>
    <contour>
      <point x="461" y="0" type="line"/>
      <point x="461" y="167" type="line"/>
      <point x="409" y="167" type="line"/>
      <point x="395" y="59" type="line" smooth="yes"/>
      <point x="394" y="51"/>
      <point x="383" y="43"/>
      <point x="375" y="43" type="curve" smooth="yes"/>
      <point x="186" y="43" type="line"/>
      <point x="186" y="541" type="line" smooth="yes"/>
      <point x="186" y="550"/>
      <point x="193" y="560"/>
      <point x="206" y="561" type="curve" smooth="yes"/>
      <point x="254" y="565" type="line"/>
      <point x="254" y="603" type="line"/>
      <point x="24" y="603" type="line"/>
      <point x="24" y="565" type="line"/>
      <point x="76" y="561" type="line" smooth="yes"/>
      <point x="89" y="560"/>
      <point x="95" y="550"/>
      <point x="95" y="541" type="curve" smooth="yes"/>
      <point x="95" y="61" type="line" smooth="yes"/>
      <point x="95" y="53"/>
      <point x="89" y="43"/>
      <point x="76" y="42" type="curve" smooth="yes"/>
      <point x="24" y="38" type="line"/>
      <point x="24" y="0" type="line"/>
    </contour>
  </outline>
</glyph>
<glyph name="M" format="2">
  <advance width="788"/>
  <unicode hex="004D"/>
  <outline>
    <contour>
      <point x="760" y="0" type="line"/>
      <point x="760" y="38" type="line"/>
      <point x="711" y="42" type="line" smooth="yes"/>
      <point x="699" y="43"/>
      <point x="692" y="53"/>
      <point x="692" y="61" type="curve" smooth="yes"/>
      <point x="692" y="541" type="line" smooth="yes"/>
      <point x="692" y="550"/>
      <point x="699" y="560"/>
      <point x="711" y="561" type="curve" smooth="yes"/>
      <point x="760" y="565" type="line"/>
      <point x="760" y="603" type="line"/>
      <point x="553" y="603" type="line"/>
      <point x="553" y="577" type="line"/>
      <point x="390" y="137" type="line"/>
      <point x="227" y="579" type="line"/>
      <point x="227" y="603" type="line"/>
      <point x="25" y="603" type="line"/>
      <point x="25" y="565" type="line"/>
      <point x="77" y="561" type="line" smooth="yes"/>
      <point x="90" y="560"/>
      <point x="96" y="550"/>
      <point x="96" y="541" type="curve" smooth="yes"/>
      <point x="96" y="61" type="line" smooth="yes"/>
      <point x="96" y="53"/>
      <point x="90" y="43"/>
      <point x="77" y="42" type="curve" smooth="yes"/>
      <point x="25" y="38" type="line"/>
      <point x="25" y="0" type="line"/>
      <point x="220" y="0" type="line"/>
      <point x="220" y="38" type="line"/>
      <point x="169" y="42" type="line" smooth="yes"/>
      <point x="156" y="43"/>
      <point x="149" y="53"/>
      <point x="149" y="61" type="curve" smooth="yes"/>
      <point x="149" y="549" type="line"/>
      <point x="349" y="0" type="line"/>
      <point x="394" y="0" type="line"/>
      <point x="601" y="558" type="line"/>
      <point x="601" y="61" type="line" smooth="yes"/>
      <point x="601" y="53"/>
      <point x="594" y="43"/>
      <point x="581" y="42" type="curve" smooth="yes"/>
      <point x="533" y="38" type="line"/>
      <point x="533" y="0" type="line"/>
    </contour>
  </outline>
</glyph>
<glyph name="N" format="2">
  <advance width="649"/>
  <unicode hex="004E"/>
  <anchor x="518" y="0" name="H"/>
  <anchor x="322" y="659" name="U"/>
  <outline>
    <contour>
      <point x="622" y="565" type="line"/>
      <point x="622" y="603" type="line"/>
      <point x="430" y="603" type="line"/>
      <point x="430" y="565" type="line"/>
      <point x="481" y="561" type="line" smooth="yes"/>
      <point x="493" y="560"/>
      <point x="500" y="550"/>
      <point x="500" y="541" type="curve" smooth="yes"/>
      <point x="500" y="128" type="line"/>
      <point x="200" y="581" type="line"/>
      <point x="200" y="603" type="line"/>
      <point x="22" y="603" type="line"/>
      <point x="22" y="565" type="line"/>
      <point x="75" y="561" type="line" smooth="yes"/>
      <point x="88" y="560"/>
      <point x="95" y="550"/>
      <point x="95" y="541" type="curve" smooth="yes"/>
      <point x="95" y="61" type="line" smooth="yes"/>
      <point x="95" y="53"/>
      <point x="88" y="43"/>
      <point x="75" y="42" type="curve" smooth="yes"/>
      <point x="24" y="38" type="line"/>
      <point x="24" y="0" type="line"/>
      <point x="218" y="0" type="line"/>
      <point x="218" y="38" type="line"/>
      <point x="167" y="42" type="line" smooth="yes"/>
      <point x="154" y="43"/>
      <point x="148" y="53"/>
      <point x="148" y="61" type="curve" smooth="yes"/>
      <point x="148" y="504" type="line"/>
      <point x="483" y="0" type="line"/>
      <point x="553" y="0" type="line"/>
      <point x="553" y="541" type="line" smooth="yes"/>
      <point x="553" y="550"/>
      <point x="559" y="560"/>
      <point x="572" y="561" type="curve" smooth="yes"/>
    </contour>
  </outline>
</glyph>
<glyph name="O" format="2">
  <advance width="657"/>
  <unicode hex="004F"/>
  <anchor x="328" y="0" name="H"/>
  <anchor x="328" y="659" name="U"/>
  <outline>
    <contour>
      <point x="622" y="301" type="curve" smooth="yes"/>
      <point x="622" y="475"/>
      <point x="506" y="618"/>
      <point x="328" y="618" type="curve" smooth="yes"/>
      <point x="149" y="618"/>
      <point x="35" y="477"/>
      <point x="35" y="302" type="curve" smooth="yes"/>
      <point x="35" y="121"/>
      <point x="152" y="-14"/>
      <point x="329" y="-14" type="curve" smooth="yes"/>
      <point x="505" y="-14"/>
      <point x="622" y="127"/>
    </contour>
    <contour>
      <point x="518" y="300" type="curve" smooth="yes"/>
      <point x="518" y="158"/>
      <point x="457" y="35"/>
      <point x="327" y="35" type="curve" smooth="yes"/>
      <point x="199" y="35"/>
      <point x="138" y="158"/>
      <point x="138" y="302" type="curve" smooth="yes"/>
      <point x="138" y="445"/>
      <point x="199" y="566"/>
      <point x="329" y="566" type="curve" smooth="yes"/>
      <point x="455" y="566"/>
      <point x="518" y="447"/>
    </contour>
  </outline>
</glyph>
<glyph name="P" format="2">
  <advance width="521"/>
  <unicode hex="0050"/>
  <anchor x="254" y="659" name="U"/>
  <outline>
    <contour>
      <point x="486" y="422" type="curve" smooth="yes"/>
      <point x="486" y="555"/>
      <point x="407" y="603"/>
      <point x="237" y="603" type="curve" smooth="yes"/>
      <point x="22" y="603" type="line"/>
      <point x="22" y="565" type="line"/>
      <point x="76" y="561" type="line" smooth="yes"/>
      <point x="89" y="560"/>
      <point x="96" y="550"/>
      <point x="96" y="541" type="curve" smooth="yes"/>
      <point x="96" y="61" type="line" smooth="yes"/>
      <point x="96" y="53"/>
      <point x="89" y="43"/>
      <point x="76" y="42" type="curve" smooth="yes"/>
      <point x="29" y="38" type="line"/>
      <point x="29" y="0" type="line"/>
      <point x="265" y="0" type="line"/>
      <point x="265" y="38" type="line"/>
      <point x="206" y="42" type="line" smooth="yes"/>
      <point x="193" y="43"/>
      <point x="187" y="53"/>
      <point x="187" y="61" type="curve" smooth="yes"/>
      <point x="187" y="229" type="line"/>
      <point x="191" y="228"/>
      <point x="227" y="225"/>
      <point x="250" y="225" type="curve" smooth="yes"/>
      <point x="381" y="225"/>
      <point x="486" y="289"/>
    </contour>
    <contour>
      <point x="392" y="420" type="curve" smooth="yes"/>
      <point x="392" y="316"/>
      <point x="332" y="269"/>
      <point x="237" y="270" type="curve" smooth="yes"/>
      <point x="220" y="270"/>
      <point x="189" y="275"/>
      <point x="187" y="275" type="curve"/>
      <point x="187" y="558" type="line"/>
      <point x="187" y="558"/>
      <point x="216" y="559"/>
      <point x="232" y="559" type="curve" smooth="yes"/>
      <point x="347" y="559"/>
      <point x="392" y="508"/>
    </contour>
  </outline>
</glyph>
<glyph name="Q" format="2">
  <advance width="553"/>
  <unicode hex="0051"/>
  <anchor x="280" y="602" name="U"/>
  <outline>
    <contour>
      <point x="517" y="284" type="curve"/>
      <point x="517" y="427"/>
      <point x="436" y="566"/>
      <point x="284" y="566" type="curve" smooth="yes"/>
      <point x="135" y="566"/>
      <point x="26" y="428"/>
      <point x="26" y="268" type="curve" smooth="yes"/>
      <point x="26" y="117"/>
      <point x="119" y="-13"/>
      <point x="259" y="-13" type="curve" smooth="yes"/>
      <point x="399" y="-13"/>
      <point x="517" y="125"/>
    </contour>
    <contour>
      <point x="602" y="-53" type="curve"/>
      <point x="584" y="-29" type="line"/>
      <point x="549" y="-55"/>
      <point x="536" y="-61"/>
      <point x="522" y="-61" type="curve" smooth="yes"/>
      <point x="463" y="-61"/>
      <point x="396" y="3"/>
      <point x="320" y="21" type="curve" smooth="yes"/>
      <point x="304" y="25"/>
      <point x="226" y="8"/>
      <point x="226" y="8" type="curve"/>
      <point x="323" y="-7"/>
      <point x="421" y="-140"/>
      <point x="519" y="-140" type="curve" smooth="yes"/>
      <point x="537" y="-140"/>
      <point x="575" y="-104"/>
    </contour>
    <contour>
      <point x="420" y="276" type="curve"/>
      <point x="420" y="121"/>
      <point x="360" y="43"/>
      <point x="276" y="43" type="curve" smooth="yes"/>
      <point x="192" y="43"/>
      <point x="123" y="150"/>
      <point x="123" y="281" type="curve" smooth="yes"/>
      <point x="123" y="424"/>
      <point x="174" y="511"/>
      <point x="265" y="511" type="curve" smooth="yes"/>
      <point x="358" y="511"/>
      <point x="420" y="397"/>
    </contour>
  </outline>
</glyph>
<glyph name="R" format="2">
  <advance width="584"/>
  <unicode hex="0052"/>
  <outline>
    <contour>
      <point x="584" y="-2" type="curve"/>
      <point x="584" y="37" type="line"/>
      <point x="387" y="37"/>
      <point x="531" y="246"/>
      <point x="336" y="293" type="curve"/>
      <point x="413" y="310"/>
      <point x="484" y="349"/>
      <point x="484" y="443" type="curve" smooth="yes"/>
      <point x="484" y="562"/>
      <point x="400" y="603"/>
      <point x="263" y="603" type="curve" smooth="yes"/>
      <point x="29" y="603" type="line"/>
      <point x="29" y="565" type="line"/>
      <point x="75" y="561" type="line" smooth="yes"/>
      <point x="88" y="560"/>
      <point x="95" y="550"/>
      <point x="95" y="541" type="curve" smooth="yes"/>
      <point x="95" y="61" type="line" smooth="yes"/>
      <point x="95" y="53"/>
      <point x="88" y="43"/>
      <point x="75" y="42" type="curve" smooth="yes"/>
      <point x="29" y="38" type="line"/>
      <point x="29" y="0" type="line"/>
      <point x="252" y="0" type="line"/>
      <point x="252" y="38" type="line"/>
      <point x="205" y="42" type="line" smooth="yes"/>
      <point x="192" y="43"/>
      <point x="186" y="53"/>
      <point x="186" y="61" type="curve" smooth="yes"/>
      <point x="186" y="267" type="line"/>
      <point x="188" y="267"/>
      <point x="207" y="268"/>
      <point x="226" y="268" type="curve" smooth="yes"/>
      <point x="447" y="268"/>
      <point x="309" y="-14"/>
      <point x="524" y="-14" type="curve" smooth="yes"/>
      <point x="551" y="-14"/>
      <point x="576" y="-3"/>
    </contour>
    <contour>
      <point x="386" y="439" type="curve" smooth="yes"/>
      <point x="386" y="343"/>
      <point x="331" y="312"/>
      <point x="231" y="312" type="curve" smooth="yes"/>
      <point x="217" y="312"/>
      <point x="188" y="313"/>
      <point x="186" y="313" type="curve"/>
      <point x="186" y="559" type="line"/>
      <point x="188" y="559"/>
      <point x="227" y="559"/>
      <point x="227" y="559" type="curve"/>
      <point x="341" y="559"/>
      <point x="386" y="516"/>
    </contour>
  </outline>
</glyph>
<glyph name="S" format="2">
  <advance width="468"/>
  <unicode hex="0053"/>
  <outline>
    <contour>
      <point x="433" y="169" type="curve" smooth="yes"/>
      <point x="433" y="259"/>
      <point x="371" y="303"/>
      <point x="262" y="344" type="curve" smooth="yes"/>
      <point x="181" y="375"/>
      <point x="137" y="408"/>
      <point x="137" y="463" type="curve" smooth="yes"/>
      <point x="137" y="524"/>
      <point x="181" y="569"/>
      <point x="254" y="569" type="curve" smooth="yes"/>
      <point x="301" y="569"/>
      <point x="323" y="555"/>
      <point x="333" y="548" type="curve" smooth="yes"/>
      <point x="338" y="545"/>
      <point x="345" y="539"/>
      <point x="346" y="533" type="curve" smooth="yes"/>
      <point x="359" y="447" type="line"/>
      <point x="411" y="447" type="line"/>
      <point x="411" y="587" type="line"/>
      <point x="371" y="601"/>
      <point x="315" y="618"/>
      <point x="252" y="618" type="curve" smooth="yes"/>
      <point x="134" y="618"/>
      <point x="44" y="548"/>
      <point x="44" y="442" type="curve" smooth="yes"/>
      <point x="44" y="350"/>
      <point x="109" y="315"/>
      <point x="183" y="279" type="curve" smooth="yes"/>
      <point x="279" y="234"/>
      <point x="341" y="204"/>
      <point x="341" y="142" type="curve" smooth="yes"/>
      <point x="341" y="75"/>
      <point x="286" y="36"/>
      <point x="209" y="36" type="curve" smooth="yes"/>
      <point x="166" y="36"/>
      <point x="137" y="47"/>
      <point x="118" y="56" type="curve" smooth="yes"/>
      <point x="112" y="59"/>
      <point x="104" y="69"/>
      <point x="103" y="76" type="curve" smooth="yes"/>
      <point x="91" y="178" type="line"/>
      <point x="35" y="178" type="line"/>
      <point x="35" y="18" type="line"/>
      <point x="61" y="4"/>
      <point x="124" y="-14"/>
      <point x="195" y="-14" type="curve" smooth="yes"/>
      <point x="364" y="-14"/>
      <point x="433" y="78"/>
    </contour>
  </outline>
</glyph>
<glyph name="T" format="2">
  <advance width="539"/>
  <unicode hex="0054"/>
  <outline>
    <contour>
      <point x="524" y="460" type="line"/>
      <point x="524" y="603" type="line"/>
      <point x="14" y="603" type="line"/>
      <point x="14" y="460" type="line"/>
      <point x="66" y="460" type="line"/>
      <point x="79" y="544" type="line" smooth="yes"/>
      <point x="79" y="553"/>
      <point x="86" y="559"/>
      <point x="94" y="559" type="curve" smooth="yes"/>
      <point x="224" y="559" type="line"/>
      <point x="224" y="61" type="line" smooth="yes"/>
      <point x="224" y="53"/>
      <point x="217" y="43"/>
      <point x="205" y="42" type="curve" smooth="yes"/>
      <point x="147" y="38" type="line"/>
      <point x="147" y="0" type="line"/>
      <point x="391" y="0" type="line"/>
      <point x="391" y="38" type="line"/>
      <point x="333" y="42" type="line" smooth="yes"/>
      <point x="321" y="43"/>
      <point x="315" y="53"/>
      <point x="315" y="61" type="curve" smooth="yes"/>
      <point x="315" y="559" type="line"/>
      <point x="443" y="559" type="line" smooth="yes"/>
      <point x="451" y="559"/>
      <point x="457" y="553"/>
      <point x="458" y="544" type="curve" smooth="yes"/>
      <point x="471" y="460" type="line"/>
    </contour>
  </outline>
</glyph>
<glyph name="U" format="2">
  <advance width="640"/>
  <unicode hex="0055"/>
  <anchor x="322" y="0" name="H"/>
  <anchor x="329" y="659" name="U"/>
  <outline>
    <contour>
      <point x="616" y="565" type="line"/>
      <point x="616" y="603" type="line"/>
      <point x="420" y="603" type="line"/>
      <point x="420" y="565" type="line"/>
      <point x="472" y="561" type="line" smooth="yes"/>
      <point x="485" y="560"/>
      <point x="492" y="550"/>
      <point x="492" y="541" type="curve" smooth="yes"/>
      <point x="492" y="223" type="line" smooth="yes"/>
      <point x="492" y="123"/>
      <point x="462" y="45"/>
      <point x="338" y="45" type="curve" smooth="yes"/>
      <point x="213" y="45"/>
      <point x="186" y="117"/>
      <point x="186" y="223" type="curve" smooth="yes"/>
      <point x="186" y="541" type="line" smooth="yes"/>
      <point x="186" y="550"/>
      <point x="192" y="560"/>
      <point x="205" y="561" type="curve" smooth="yes"/>
      <point x="256" y="565" type="line"/>
      <point x="256" y="603" type="line"/>
      <point x="27" y="603" type="line"/>
      <point x="27" y="565" type="line"/>
      <point x="75" y="561" type="line" smooth="yes"/>
      <point x="88" y="560"/>
      <point x="94" y="550"/>
      <point x="94" y="541" type="curve" smooth="yes"/>
      <point x="94" y="199" type="line" smooth="yes"/>
      <point x="94" y="58"/>
      <point x="165" y="-14"/>
      <point x="314" y="-14" type="curve" smooth="yes"/>
      <point x="464" y="-14"/>
      <point x="545" y="52"/>
      <point x="545" y="199" type="curve" smooth="yes"/>
      <point x="545" y="541" type="line" smooth="yes"/>
      <point x="545" y="550"/>
      <point x="551" y="560"/>
      <point x="564" y="561" type="curve" smooth="yes"/>
    </contour>
  </outline>
</glyph>
<glyph name="V" format="2">
  <advance width="599"/>
  <unicode hex="0056"/>
  <outline>
    <contour>
      <point x="590" y="565" type="line"/>
      <point x="590" y="603" type="line"/>
      <point x="411" y="603" type="line"/>
      <point x="411" y="565" type="line"/>
      <point x="460" y="560" type="line" smooth="yes"/>
      <point x="468" y="559"/>
      <point x="475" y="549"/>
      <point x="473" y="542" type="curve" smooth="yes"/>
      <point x="321" y="99" type="line"/>
      <point x="163" y="544" type="line" smooth="yes"/>
      <point x="161" y="549"/>
      <point x="164" y="559"/>
      <point x="170" y="560" type="curve" smooth="yes"/>
      <point x="224" y="565" type="line"/>
      <point x="224" y="603" type="line"/>
      <point x="8" y="603" type="line"/>
      <point x="8" y="565" type="line"/>
      <point x="61" y="556" type="line"/>
      <point x="268" y="-14" type="line"/>
      <point x="336" y="-14" type="line"/>
      <point x="538" y="555" type="line"/>
    </contour>
  </outline>
</glyph>
<glyph name="W" format="2">
  <advance width="838"/>
  <unicode hex="0057"/>
  <anchor x="431" y="659" name="U"/>
  <outline>
    <contour>
      <point x="828" y="565" type="line"/>
      <point x="828" y="603" type="line"/>
      <point x="645" y="603" type="line"/>
      <point x="645" y="565" type="line"/>
      <point x="701" y="559" type="line" smooth="yes"/>
      <point x="711" y="558"/>
      <point x="716" y="549"/>
      <point x="714" y="541" type="curve" smooth="yes"/>
      <point x="614" y="121" type="line"/>
      <point x="469" y="603" type="line"/>
      <point x="400" y="603" type="line"/>
      <point x="259" y="135" type="line"/>
      <point x="152" y="541" type="line" smooth="yes"/>
      <point x="150" y="549"/>
      <point x="152" y="558"/>
      <point x="161" y="559" type="curve" smooth="yes"/>
      <point x="214" y="565" type="line"/>
      <point x="214" y="603" type="line"/>
      <point x="8" y="603" type="line"/>
      <point x="8" y="565" type="line"/>
      <point x="61" y="554" type="line"/>
      <point x="207" y="-14" type="line"/>
      <point x="272" y="-14" type="line"/>
      <point x="420" y="484" type="line"/>
      <point x="570" y="-14" type="line"/>
      <point x="636" y="-14" type="line"/>
      <point x="773" y="554" type="line"/>
    </contour>
  </outline>
</glyph>
<glyph name="X" format="2">
  <advance width="570"/>
  <unicode hex="0058"/>
  <anchor x="285" y="659" name="U"/>
  <outline>
    <contour>
      <point x="561" y="0" type="line"/>
      <point x="561" y="38" type="line"/>
      <point x="505" y="49" type="line"/>
      <point x="328" y="326" type="line"/>
      <point x="495" y="556" type="line"/>
      <point x="553" y="565" type="line"/>
      <point x="553" y="603" type="line"/>
      <point x="365" y="603" type="line"/>
      <point x="365" y="565" type="line"/>
      <point x="411" y="558" type="line" smooth="yes"/>
      <point x="420" y="558"/>
      <point x="427" y="548"/>
      <point x="420" y="540" type="curve" smooth="yes"/>
      <point x="299" y="373" type="line"/>
      <point x="189" y="542" type="line" smooth="yes"/>
      <point x="185" y="549"/>
      <point x="186" y="559"/>
      <point x="200" y="560" type="curve" smooth="yes"/>
      <point x="246" y="565" type="line"/>
      <point x="246" y="603" type="line"/>
      <point x="20" y="603" type="line"/>
      <point x="20" y="565" type="line"/>
      <point x="79" y="554" type="line"/>
      <point x="243" y="297" type="line"/>
      <point x="62" y="49" type="line"/>
      <point x="8" y="38" type="line"/>
      <point x="8" y="0" type="line"/>
      <point x="199" y="0" type="line"/>
      <point x="199" y="38" type="line"/>
      <point x="145" y="43" type="line" smooth="yes"/>
      <point x="131" y="43"/>
      <point x="130" y="54"/>
      <point x="134" y="60" type="curve" smooth="yes"/>
      <point x="273" y="250" type="line"/>
      <point x="393" y="62" type="line" smooth="yes"/>
      <point x="398" y="54"/>
      <point x="391" y="44"/>
      <point x="382" y="43" type="curve" smooth="yes"/>
      <point x="330" y="38" type="line"/>
      <point x="330" y="0" type="line"/>
    </contour>
  </outline>
</glyph>
<glyph name="Y" format="2">
  <advance width="563"/>
  <unicode hex="0059"/>
  <outline>
    <contour>
      <point x="554" y="565" type="line"/>
      <point x="554" y="603" type="line"/>
      <point x="371" y="603" type="line"/>
      <point x="371" y="565" type="line"/>
      <point x="422" y="558" type="line" smooth="yes"/>
      <point x="431" y="558"/>
      <point x="438" y="548"/>
      <point x="432" y="540" type="curve" smooth="yes"/>
      <point x="293" y="307" type="line"/>
      <point x="166" y="542" type="line" smooth="yes"/>
      <point x="163" y="549"/>
      <point x="163" y="558"/>
      <point x="177" y="560" type="curve" smooth="yes"/>
      <point x="222" y="565" type="line"/>
      <point x="222" y="603" type="line"/>
      <point x="8" y="603" type="line"/>
      <point x="8" y="565" type="line"/>
      <point x="61" y="554" type="line"/>
      <point x="233" y="243" type="line"/>
      <point x="233" y="61" type="line" smooth="yes"/>
      <point x="233" y="53"/>
      <point x="226" y="43"/>
      <point x="214" y="42" type="curve" smooth="yes"/>
      <point x="158" y="38" type="line"/>
      <point x="158" y="0" type="line"/>
      <point x="401" y="0" type="line"/>
      <point x="401" y="38" type="line"/>
      <point x="343" y="42" type="line" smooth="yes"/>
      <point x="331" y="43"/>
      <point x="324" y="53"/>
      <point x="324" y="61" type="curve" smooth="yes"/>
      <point x="324" y="256" type="line"/>
      <point x="505" y="556" type="line"/>
    </contour>
  </outline>
</glyph>
<glyph name="Z" format="2">
  <advance width="517"/>
  <unicode hex="005A"/>
  <outline>
    <contour>
      <point x="482" y="0" type="line"/>
      <point x="482" y="166" type="line"/>
      <point x="429" y="166" type="line"/>
      <point x="413" y="61" type="line" smooth="yes"/>
      <point x="412" y="53"/>
      <point x="406" y="45"/>
      <point x="398" y="45" type="curve" smooth="yes"/>
      <point x="142" y="45" type="line"/>
      <point x="477" y="562" type="line"/>
      <point x="477" y="603" type="line"/>
      <point x="54" y="603" type="line"/>
      <point x="54" y="460" type="line"/>
      <point x="107" y="460" type="line"/>
      <point x="120" y="543" type="line" smooth="yes"/>
      <point x="122" y="552"/>
      <point x="127" y="558"/>
      <point x="135" y="558" type="curve" smooth="yes"/>
      <point x="370" y="558" type="line"/>
      <point x="35" y="39" type="line"/>
      <point x="35" y="0" type="line"/>
    </contour>
  </outline>
</glyph>
<glyph name="bracketleft" format="2">
  <advance width="380"/>
  <unicode hex="005B"/>
  <outline>
    <contour>
      <point x="341" y="-118" type="line"/>
      <point x="341" y="-77" type="line"/>
      <point x="200" y="-77" type="line"/>
      <point x="200" y="596" type="line"/>
      <point x="341" y="596" type="line"/>
      <point x="341" y="637" type="line"/>
      <point x="122" y="637" type="line"/>
      <point x="122" y="-118" type="line"/>
    </contour>
  </outline>
</glyph>
<glyph name="backslash" format="2">
  <advance width="422"/>
  <unicode hex="005C"/>
  <outline>
    <contour>
      <point x="384" y="-147" type="curve"/>
      <point x="402" y="-134" type="line"/>
      <point x="98" y="679" type="line"/>
      <point x="82" y="689"/>
      <point x="55" y="698"/>
      <point x="38" y="703" type="curve"/>
      <point x="19" y="691" type="line"/>
      <point x="323" y="-122" type="line"/>
      <point x="333" y="-130"/>
      <point x="370" y="-142"/>
    </contour>
  </outline>
</glyph>
<glyph name="bracketright" format="2">
  <advance width="276"/>
  <unicode hex="005D"/>
  <outline>
    <contour>
      <point x="30" y="-147" type="line"/>
      <point x="237" y="-147" type="line"/>
      <point x="237" y="703" type="line"/>
      <point x="27" y="703" type="line"/>
      <point x="23" y="693"/>
      <point x="15" y="670"/>
      <point x="13" y="658" type="curve"/>
      <point x="30" y="643" type="line"/>
      <point x="149" y="643" type="line"/>
      <point x="149" y="-87" type="line"/>
      <point x="27" y="-87" type="line"/>
      <point x="23" y="-95"/>
      <point x="16" y="-118"/>
      <point x="14" y="-132" type="curve"/>
    </contour>
  </outline>
</glyph>
<glyph name="asciicircum" format="2">
  <advance width="442"/>
  <unicode hex="005E"/>
  <anchor x="221" y="742" name="U"/>
  <outline>
    <contour>
      <point x="398" y="279" type="curve"/>
      <point x="243" y="681" type="line"/>
      <point x="227" y="673"/>
      <point x="199" y="656"/>
      <point x="185" y="642" type="curve"/>
      <point x="43" y="260" type="line"/>
      <point x="54" y="248" type="line"/>
      <point x="65" y="254"/>
      <point x="89" y="267"/>
      <point x="101" y="279" type="curve"/>
      <point x="211" y="577" type="line"/>
      <point x="335" y="260" type="line"/>
      <point x="352" y="248" type="line"/>
      <point x="371" y="257"/>
      <point x="384" y="265"/>
    </contour>
  </outline>
</glyph>
<glyph name="underscore" format="2">
  <advance width="301"/>
  <unicode hex="005F"/>
  <outline>
    <contour>
      <point x="301" y="-134" type="line"/>
      <point x="301" y="-76" type="line"/>
      <point x="0" y="-76" type="line"/>
      <point x="0" y="-134" type="line"/>
    </contour>
  </outline>
</glyph>
<glyph name="a" format="2">
  <advance width="457"/>
  <unicode hex="0061"/>
  <outline>
    <contour>
      <point x="442" y="0" type="line"/>
      <point x="442" y="35" type="line"/>
      <point x="399" y="37" type="line" smooth="yes"/>
      <point x="388" y="38"/>
      <point x="380" y="46"/>
      <point x="380" y="57" type="curve" smooth="yes"/>
      <point x="380" y="309" type="line" smooth="yes"/>
      <point x="380" y="388"/>
      <point x="350" y="444"/>
      <point x="238" y="444" type="curve" smooth="yes"/>
      <point x="149" y="444"/>
      <point x="51" y="412"/>
      <point x="51" y="338" type="curve" smooth="yes"/>
      <point x="51" y="315"/>
      <point x="68" y="312"/>
      <point x="84" y="312" type="curve" smooth="yes"/>
      <point x="150" y="312" type="line"/>
      <point x="150" y="390" type="line"/>
      <point x="159" y="394"/>
      <point x="182" y="402"/>
      <point x="214" y="402" type="curve" smooth="yes"/>
      <point x="271" y="402"/>
      <point x="297" y="373"/>
      <point x="297" y="313" type="curve" smooth="yes"/>
      <point x="297" y="313"/>
      <point x="297" y="277"/>
      <point x="297" y="274" type="curve"/>
      <point x="61" y="223"/>
      <point x="30" y="177"/>
      <point x="30" y="110" type="curve" smooth="yes"/>
      <point x="30" y="35"/>
      <point x="82" y="-10"/>
      <point x="147" y="-10" type="curve" smooth="yes"/>
      <point x="217" y="-10"/>
      <point x="297" y="53"/>
      <point x="297" y="53" type="curve"/>
      <point x="309" y="0" type="line"/>
    </contour>
    <contour>
      <point x="297" y="84" type="line"/>
      <point x="297" y="84"/>
      <point x="235" y="42"/>
      <point x="187" y="42" type="curve" smooth="yes"/>
      <point x="144" y="42"/>
      <point x="119" y="79"/>
      <point x="119" y="116" type="curve" smooth="yes"/>
      <point x="119" y="161"/>
      <point x="135" y="199"/>
      <point x="297" y="240" type="curve"/>
    </contour>
  </outline>
</glyph>
<glyph name="b" format="2">
  <advance width="499"/>
  <unicode hex="0062"/>
  <outline>
    <contour>
      <point x="468" y="237" type="curve" smooth="yes"/>
      <point x="468" y="348"/>
      <point x="406" y="444"/>
      <point x="288" y="444" type="curve" smooth="yes"/>
      <point x="235" y="444"/>
      <point x="185" y="420"/>
      <point x="164" y="411" type="curve"/>
      <point x="164" y="663" type="line"/>
      <point x="128" y="663" type="line"/>
      <point x="12" y="628" type="line"/>
      <point x="12" y="598" type="line"/>
      <point x="80" y="598" type="line"/>
      <point x="80" y="0" type="line"/>
      <point x="210" y="0" type="line" smooth="yes"/>
      <point x="391" y="0"/>
      <point x="468" y="102"/>
    </contour>
    <contour>
      <point x="377" y="219" type="curve" smooth="yes"/>
      <point x="377" y="88"/>
      <point x="315" y="42"/>
      <point x="208" y="42" type="curve" smooth="yes"/>
      <point x="191" y="42"/>
      <point x="164" y="43"/>
      <point x="164" y="43" type="curve"/>
      <point x="164" y="377" type="line"/>
      <point x="182" y="383"/>
      <point x="219" y="391"/>
      <point x="239" y="391" type="curve" smooth="yes"/>
      <point x="326" y="391"/>
      <point x="377" y="333"/>
    </contour>
  </outline>
</glyph>
<glyph name="c" format="2">
  <advance width="419"/>
  <unicode hex="0063"/>
  <outline>
    <contour>
      <point x="388" y="33" type="curve"/>
      <point x="388" y="84" type="line"/>
      <point x="350" y="59"/>
      <point x="313" y="45"/>
      <point x="271" y="45" type="curve" smooth="yes"/>
      <point x="172" y="45"/>
      <point x="122" y="126"/>
      <point x="122" y="225" type="curve" smooth="yes"/>
      <point x="122" y="330"/>
      <point x="170" y="406"/>
      <point x="250" y="406" type="curve" smooth="yes"/>
      <point x="262" y="406"/>
      <point x="276" y="402"/>
      <point x="288" y="395" type="curve"/>
      <point x="288" y="316" type="line"/>
      <point x="299" y="309"/>
      <point x="314" y="301"/>
      <point x="333" y="301" type="curve" smooth="yes"/>
      <point x="360" y="301"/>
      <point x="387" y="319"/>
      <point x="387" y="354" type="curve" smooth="yes"/>
      <point x="387" y="413"/>
      <point x="326" y="444"/>
      <point x="247" y="444" type="curve" smooth="yes"/>
      <point x="132" y="444"/>
      <point x="30" y="365"/>
      <point x="30" y="214" type="curve" smooth="yes"/>
      <point x="30" y="84"/>
      <point x="110" y="-10"/>
      <point x="236" y="-10" type="curve" smooth="yes"/>
      <point x="297" y="-10"/>
      <point x="348" y="11"/>
    </contour>
  </outline>
</glyph>
<glyph name="d" format="2">
  <advance width="507"/>
  <unicode hex="0064"/>
  <outline>
    <contour>
      <point x="484" y="0" type="line"/>
      <point x="484" y="35" type="line"/>
      <point x="445" y="37" type="line" smooth="yes"/>
      <point x="434" y="38"/>
      <point x="426" y="46"/>
      <point x="426" y="57" type="curve" smooth="yes"/>
      <point x="426" y="663" type="line"/>
      <point x="390" y="663" type="line"/>
      <point x="274" y="628" type="line"/>
      <point x="274" y="598" type="line"/>
      <point x="342" y="598" type="line"/>
      <point x="342" y="433" type="line"/>
      <point x="328" y="437"/>
      <point x="288" y="444"/>
      <point x="260" y="444" type="curve" smooth="yes"/>
      <point x="105" y="444"/>
      <point x="30" y="327"/>
      <point x="30" y="205" type="curve" smooth="yes"/>
      <point x="30" y="103"/>
      <point x="82" y="-10"/>
      <point x="203" y="-10" type="curve" smooth="yes"/>
      <point x="255" y="-10"/>
      <point x="301" y="16"/>
      <point x="342" y="47" type="curve"/>
      <point x="342" y="0" type="line"/>
    </contour>
    <contour>
      <point x="342" y="81" type="line"/>
      <point x="319" y="67"/>
      <point x="286" y="50"/>
      <point x="250" y="50" type="curve" smooth="yes"/>
      <point x="167" y="50"/>
      <point x="119" y="122"/>
      <point x="119" y="220" type="curve" smooth="yes"/>
      <point x="119" y="329"/>
      <point x="177" y="401"/>
      <point x="266" y="401" type="curve" smooth="yes"/>
      <point x="292" y="401"/>
      <point x="327" y="393"/>
      <point x="342" y="388" type="curve"/>
    </contour>
  </outline>
</glyph>
<glyph name="e" format="2">
  <advance width="441"/>
  <unicode hex="0065"/>
  <anchor x="220" y="0" name="H"/>
  <anchor x="235" y="483" name="U"/>
  <outline>
    <contour>
      <point x="410" y="44" type="curve"/>
      <point x="410" y="99" type="line"/>
      <point x="370" y="72"/>
      <point x="319" y="43"/>
      <point x="268" y="43" type="curve" smooth="yes"/>
      <point x="152" y="43"/>
      <point x="117" y="143"/>
      <point x="117" y="235" type="curve"/>
      <point x="409" y="235" type="line"/>
      <point x="410" y="243"/>
      <point x="410" y="254"/>
      <point x="410" y="260" type="curve" smooth="yes"/>
      <point x="410" y="367"/>
      <point x="353" y="444"/>
      <point x="242" y="444" type="curve" smooth="yes"/>
      <point x="119" y="444"/>
      <point x="30" y="352"/>
      <point x="30" y="212" type="curve" smooth="yes"/>
      <point x="30" y="61"/>
      <point x="130" y="-10"/>
      <point x="239" y="-10" type="curve" smooth="yes"/>
      <point x="300" y="-10"/>
      <point x="359" y="13"/>
    </contour>
    <contour>
      <point x="320" y="275" type="line"/>
      <point x="122" y="275" type="line"/>
      <point x="127" y="352"/>
      <point x="173" y="400"/>
      <point x="232" y="400" type="curve" smooth="yes"/>
      <point x="292" y="400"/>
      <point x="320" y="354"/>
      <point x="320" y="295" type="curve" smooth="yes"/>
    </contour>
  </outline>
</glyph>
<glyph name="f" format="2">
  <advance width="293"/>
  <unicode hex="0066"/>
  <outline>
    <contour>
      <point x="350" y="609" type="curve" smooth="yes"/>
      <point x="350" y="638"/>
      <point x="323" y="663"/>
      <point x="272" y="663" type="curve" smooth="yes"/>
      <point x="214" y="663"/>
      <point x="154" y="631"/>
      <point x="119" y="563" type="curve" smooth="yes"/>
      <point x="97" y="520"/>
      <point x="89" y="487"/>
      <point x="89" y="428" type="curve"/>
      <point x="31" y="412" type="line"/>
      <point x="31" y="380" type="line"/>
      <point x="89" y="380" type="line"/>
      <point x="89" y="57" type="line" smooth="yes"/>
      <point x="89" y="46"/>
      <point x="80" y="38"/>
      <point x="70" y="37" type="curve" smooth="yes"/>
      <point x="25" y="35" type="line"/>
      <point x="25" y="0" type="line"/>
      <point x="244" y="0" type="line"/>
      <point x="244" y="35" type="line"/>
      <point x="191" y="37" type="line" smooth="yes"/>
      <point x="181" y="38"/>
      <point x="172" y="46"/>
      <point x="172" y="57" type="curve" smooth="yes"/>
      <point x="172" y="380" type="line"/>
      <point x="284" y="380" type="line"/>
      <point x="284" y="426" type="line"/>
      <point x="172" y="426" type="line"/>
      <point x="172" y="484" type="line" smooth="yes"/>
      <point x="172" y="568"/>
      <point x="199" y="605"/>
      <point x="225" y="619" type="curve"/>
      <point x="227" y="617"/>
      <point x="304" y="564"/>
      <point x="308" y="560" type="curve"/>
      <point x="315" y="562"/>
      <point x="350" y="572"/>
    </contour>
  </outline>
</glyph>
<glyph name="g" format="2">
  <advance width="472"/>
  <unicode hex="0067"/>
  <anchor x="221" y="-189" name="H"/>
  <anchor x="221" y="483" name="U"/>
  <outline>
    <contour>
      <point x="457" y="373" type="line"/>
      <point x="457" y="417" type="line"/>
      <point x="335" y="417" type="line"/>
      <point x="312" y="428"/>
      <point x="273" y="444"/>
      <point x="231" y="444" type="curve" smooth="yes"/>
      <point x="123" y="444"/>
      <point x="50" y="386"/>
      <point x="50" y="291" type="curve" smooth="yes"/>
      <point x="50" y="218"/>
      <point x="102" y="170"/>
      <point x="162" y="156" type="curve"/>
      <point x="130" y="124"/>
      <point x="116" y="95"/>
      <point x="116" y="72" type="curve" smooth="yes"/>
      <point x="116" y="52"/>
      <point x="119" y="49"/>
      <point x="126" y="30" type="curve"/>
      <point x="61" y="18"/>
      <point x="30" y="-25"/>
      <point x="30" y="-78" type="curve" smooth="yes"/>
      <point x="30" y="-151"/>
      <point x="92" y="-206"/>
      <point x="199" y="-206" type="curve" smooth="yes"/>
      <point x="330" y="-206"/>
      <point x="433" y="-121"/>
      <point x="433" y="-36" type="curve" smooth="yes"/>
      <point x="433" y="71"/>
      <point x="270" y="81"/>
      <point x="189" y="90" type="curve"/>
      <point x="188" y="92"/>
      <point x="182" y="127"/>
      <point x="197" y="150" type="curve"/>
      <point x="297" y="143"/>
      <point x="391" y="197"/>
      <point x="391" y="292" type="curve" smooth="yes"/>
      <point x="391" y="327"/>
      <point x="380" y="352"/>
      <point x="367" y="373" type="curve"/>
    </contour>
    <contour>
      <point x="305" y="297" type="curve" smooth="yes"/>
      <point x="305" y="236"/>
      <point x="276" y="187"/>
      <point x="222" y="187" type="curve" smooth="yes"/>
      <point x="165" y="187"/>
      <point x="136" y="236"/>
      <point x="136" y="297" type="curve" smooth="yes"/>
      <point x="136" y="366"/>
      <point x="171" y="407"/>
      <point x="222" y="407" type="curve" smooth="yes"/>
      <point x="276" y="407"/>
      <point x="305" y="354"/>
    </contour>
    <contour>
      <point x="356" y="-60" type="curve" smooth="yes"/>
      <point x="356" y="-103"/>
      <point x="315" y="-164"/>
      <point x="229" y="-164" type="curve" smooth="yes"/>
      <point x="148" y="-164"/>
      <point x="111" y="-103"/>
      <point x="111" y="-60" type="curve" smooth="yes"/>
      <point x="111" y="-30"/>
      <point x="127" y="5"/>
      <point x="180" y="24" type="curve"/>
      <point x="233" y="13"/>
      <point x="356" y="14"/>
    </contour>
  </outline>
</glyph>
<glyph name="h" format="2">
  <advance width="516"/>
  <unicode hex="0068"/>
  <anchor x="123" y="0" name="H"/>
  <anchor x="254" y="676" name="U"/>
  <outline>
    <contour>
      <point x="495" y="0" type="line"/>
      <point x="495" y="35" type="line"/>
      <point x="455" y="37" type="line" smooth="yes"/>
      <point x="444" y="38"/>
      <point x="435" y="46"/>
      <point x="435" y="57" type="curve" smooth="yes"/>
      <point x="435" y="308" type="line" smooth="yes"/>
      <point x="435" y="401"/>
      <point x="382" y="444"/>
      <point x="313" y="444" type="curve" smooth="yes"/>
      <point x="266" y="444"/>
      <point x="197" y="408"/>
      <point x="164" y="388" type="curve"/>
      <point x="164" y="663" type="line"/>
      <point x="128" y="663" type="line"/>
      <point x="13" y="628" type="line"/>
      <point x="13" y="598" type="line"/>
      <point x="80" y="598" type="line"/>
      <point x="80" y="57" type="line" smooth="yes"/>
      <point x="80" y="46"/>
      <point x="72" y="38"/>
      <point x="61" y="37" type="curve" smooth="yes"/>
      <point x="18" y="35" type="line"/>
      <point x="18" y="0" type="line"/>
      <point x="221" y="0" type="line"/>
      <point x="221" y="35" type="line"/>
      <point x="182" y="37" type="line" smooth="yes"/>
      <point x="171" y="38"/>
      <point x="164" y="46"/>
      <point x="164" y="57" type="curve" smooth="yes"/>
      <point x="164" y="352" type="line"/>
      <point x="190" y="367"/>
      <point x="231" y="378"/>
      <point x="262" y="378" type="curve" smooth="yes"/>
      <point x="332" y="378"/>
      <point x="352" y="341"/>
      <point x="352" y="289" type="curve" smooth="yes"/>
      <point x="352" y="57" type="line" smooth="yes"/>
      <point x="352" y="46"/>
      <point x="342" y="38"/>
      <point x="332" y="37" type="curve" smooth="yes"/>
      <point x="295" y="35" type="line"/>
      <point x="295" y="0" type="line"/>
    </contour>
  </outline>
</glyph>
<glyph name="j" format="2">
  <advance width="262"/>
  <unicode hex="006A"/>
  <anchor x="144" y="483" name="U"/>
  <outline>
    <contour>
      <point x="191" y="582" type="curve" smooth="yes"/>
      <point x="191" y="613"/>
      <point x="167" y="637"/>
      <point x="136" y="637" type="curve" smooth="yes"/>
      <point x="106" y="637"/>
      <point x="80" y="613"/>
      <point x="80" y="582" type="curve" smooth="yes"/>
      <point x="80" y="551"/>
      <point x="106" y="526"/>
      <point x="136" y="526" type="curve" smooth="yes"/>
      <point x="167" y="526"/>
      <point x="191" y="551"/>
    </contour>
    <contour>
      <point x="181" y="57" type="curve"/>
      <point x="181" y="444" type="line"/>
      <point x="145" y="444" type="line"/>
      <point x="34" y="410" type="line"/>
      <point x="34" y="380" type="line"/>
      <point x="97" y="380" type="line"/>
      <point x="97" y="-18" type="line" smooth="yes"/>
      <point x="97" y="-88"/>
      <point x="88" y="-145"/>
      <point x="54" y="-164" type="curve"/>
      <point x="-32" y="-104" type="line"/>
      <point x="-50" y="-110"/>
      <point x="-71" y="-126"/>
      <point x="-71" y="-156" type="curve" smooth="yes"/>
      <point x="-71" y="-190"/>
      <point x="-39" y="-206"/>
      <point x="-2" y="-206" type="curve" smooth="yes"/>
      <point x="54" y="-206"/>
      <point x="109" y="-179"/>
      <point x="146" y="-122" type="curve" smooth="yes"/>
      <point x="177" y="-74"/>
      <point x="181" y="3"/>
    </contour>
  </outline>
</glyph>
<glyph name="k" format="2">
  <advance width="480"/>
  <unicode hex="006B"/>
  <anchor x="123" y="0" name="H"/>
  <anchor x="242" y="676" name="U"/>
  <outline>
    <contour>
      <point x="471" y="0" type="line"/>
      <point x="471" y="35" type="line"/>
      <point x="424" y="40" type="line"/>
      <point x="268" y="265" type="line"/>
      <point x="388" y="392" type="line"/>
      <point x="445" y="398" type="line"/>
      <point x="445" y="433" type="line"/>
      <point x="270" y="433" type="line"/>
      <point x="270" y="398" type="line"/>
      <point x="307" y="395" type="line" smooth="yes"/>
      <point x="315" y="394"/>
      <point x="319" y="385"/>
      <point x="315" y="379" type="curve" smooth="yes"/>
      <point x="182" y="230" type="line"/>
      <point x="164" y="230" type="line"/>
      <point x="164" y="663" type="line"/>
      <point x="127" y="663" type="line"/>
      <point x="12" y="628" type="line"/>
      <point x="12" y="598" type="line"/>
      <point x="80" y="598" type="line"/>
      <point x="80" y="57" type="line" smooth="yes"/>
      <point x="80" y="46"/>
      <point x="72" y="38"/>
      <point x="61" y="37" type="curve" smooth="yes"/>
      <point x="18" y="35" type="line"/>
      <point x="18" y="0" type="line"/>
      <point x="222" y="0" type="line"/>
      <point x="222" y="35" type="line"/>
      <point x="183" y="37" type="line" smooth="yes"/>
      <point x="172" y="38"/>
      <point x="164" y="46"/>
      <point x="164" y="57" type="curve" smooth="yes"/>
      <point x="164" y="204" type="line"/>
      <point x="214" y="204" type="line"/>
      <point x="327" y="35" type="line"/>
      <point x="327" y="0" type="line"/>
    </contour>
  </outline>
</glyph>
<glyph name="l" format="2">
  <advance width="267"/>
  <unicode hex="006C"/>
  <outline>
    <contour>
      <point x="243" y="0" type="line"/>
      <point x="243" y="35" type="line"/>
      <point x="194" y="37" type="line" smooth="yes"/>
      <point x="186" y="38"/>
      <point x="175" y="48"/>
      <point x="175" y="56" type="curve" smooth="yes"/>
      <point x="175" y="663" type="line"/>
      <point x="138" y="663" type="line"/>
      <point x="23" y="628" type="line"/>
      <point x="23" y="598" type="line"/>
      <point x="91" y="598" type="line"/>
      <point x="91" y="56" type="line" smooth="yes"/>
      <point x="91" y="48"/>
      <point x="79" y="38"/>
      <point x="72" y="37" type="curve" smooth="yes"/>
      <point x="24" y="35" type="line"/>
      <point x="24" y="0" type="line"/>
    </contour>
  </outline>
</glyph>
<glyph name="m" format="2">
  <advance width="765"/>
  <unicode hex="006D"/>
  <anchor x="641" y="0" name="H"/>
  <anchor x="381" y="483" name="U"/>
  <outline>
    <contour>
      <point x="745" y="0" type="line"/>
      <point x="745" y="35" type="line"/>
      <point x="701" y="37" type="line" smooth="yes"/>
      <point x="691" y="38"/>
      <point x="682" y="46"/>
      <point x="682" y="57" type="curve" smooth="yes"/>
      <point x="682" y="306" type="line" smooth="yes"/>
      <point x="682" y="368"/>
      <point x="661" y="444"/>
      <point x="566" y="444" type="curve" smooth="yes"/>
      <point x="519" y="444"/>
      <point x="446" y="405"/>
      <point x="410" y="382" type="curve"/>
      <point x="395" y="412"/>
      <point x="363" y="444"/>
      <point x="311" y="444" type="curve" smooth="yes"/>
      <point x="264" y="444"/>
      <point x="205" y="413"/>
      <point x="164" y="388" type="curve"/>
      <point x="164" y="433" type="line"/>
      <point x="127" y="433" type="line"/>
      <point x="18" y="399" type="line"/>
      <point x="18" y="370" type="line"/>
      <point x="80" y="370" type="line"/>
      <point x="80" y="57" type="line" smooth="yes"/>
      <point x="80" y="46"/>
      <point x="72" y="38"/>
      <point x="61" y="37" type="curve" smooth="yes"/>
      <point x="18" y="35" type="line"/>
      <point x="18" y="0" type="line"/>
      <point x="221" y="0" type="line"/>
      <point x="221" y="35" type="line"/>
      <point x="183" y="37" type="line" smooth="yes"/>
      <point x="172" y="38"/>
      <point x="164" y="46"/>
      <point x="164" y="57" type="curve" smooth="yes"/>
      <point x="164" y="352" type="line"/>
      <point x="185" y="364"/>
      <point x="226" y="378"/>
      <point x="261" y="378" type="curve" smooth="yes"/>
      <point x="318" y="378"/>
      <point x="340" y="343"/>
      <point x="340" y="292" type="curve" smooth="yes"/>
      <point x="340" y="57" type="line" smooth="yes"/>
      <point x="340" y="46"/>
      <point x="332" y="38"/>
      <point x="321" y="37" type="curve" smooth="yes"/>
      <point x="283" y="35" type="line"/>
      <point x="283" y="0" type="line"/>
      <point x="480" y="0" type="line"/>
      <point x="480" y="35" type="line"/>
      <point x="442" y="37" type="line" smooth="yes"/>
      <point x="431" y="38"/>
      <point x="424" y="46"/>
      <point x="424" y="57" type="curve" smooth="yes"/>
      <point x="424" y="353" type="line"/>
      <point x="451" y="368"/>
      <point x="490" y="378"/>
      <point x="520" y="378" type="curve" smooth="yes"/>
      <point x="580" y="378"/>
      <point x="600" y="342"/>
      <point x="600" y="286" type="curve" smooth="yes"/>
      <point x="600" y="57" type="line" smooth="yes"/>
      <point x="600" y="46"/>
      <point x="592" y="38"/>
      <point x="581" y="37" type="curve" smooth="yes"/>
      <point x="543" y="35" type="line"/>
      <point x="543" y="0" type="line"/>
    </contour>
  </outline>
</glyph>
<glyph name="n" format="2">
  <advance width="510"/>
  <unicode hex="006E"/>
  <anchor x="391" y="0" name="H"/>
  <anchor x="254" y="483" name="U"/>
  <outline>
    <contour>
      <point x="492" y="0" type="line"/>
      <point x="492" y="35" type="line"/>
      <point x="452" y="37" type="line" smooth="yes"/>
      <point x="442" y="38"/>
      <point x="433" y="46"/>
      <point x="433" y="57" type="curve" smooth="yes"/>
      <point x="433" y="305" type="line" smooth="yes"/>
      <point x="433" y="393"/>
      <point x="391" y="444"/>
      <point x="313" y="444" type="curve" smooth="yes"/>
      <point x="271" y="444"/>
      <point x="214" y="417"/>
      <point x="164" y="388" type="curve"/>
      <point x="164" y="433" type="line"/>
      <point x="127" y="433" type="line"/>
      <point x="18" y="399" type="line"/>
      <point x="18" y="370" type="line"/>
      <point x="80" y="370" type="line"/>
      <point x="80" y="57" type="line" smooth="yes"/>
      <point x="80" y="46"/>
      <point x="72" y="38"/>
      <point x="61" y="37" type="curve" smooth="yes"/>
      <point x="18" y="35" type="line"/>
      <point x="18" y="0" type="line"/>
      <point x="221" y="0" type="line"/>
      <point x="221" y="35" type="line"/>
      <point x="183" y="37" type="line" smooth="yes"/>
      <point x="172" y="38"/>
      <point x="164" y="46"/>
      <point x="164" y="57" type="curve" smooth="yes"/>
      <point x="164" y="352" type="line"/>
      <point x="195" y="368"/>
      <point x="229" y="378"/>
      <point x="263" y="378" type="curve" smooth="yes"/>
      <point x="326" y="378"/>
      <point x="350" y="348"/>
      <point x="350" y="291" type="curve" smooth="yes"/>
      <point x="350" y="57" type="line" smooth="yes"/>
      <point x="350" y="46"/>
      <point x="341" y="38"/>
      <point x="331" y="37" type="curve" smooth="yes"/>
      <point x="293" y="35" type="line"/>
      <point x="293" y="0" type="line"/>
    </contour>
  </outline>
</glyph>
<glyph name="o" format="2">
  <advance width="489"/>
  <unicode hex="006F"/>
  <outline>
    <contour>
      <point x="458" y="216" type="curve" smooth="yes"/>
      <point x="458" y="342"/>
      <point x="380" y="444"/>
      <point x="246" y="444" type="curve" smooth="yes"/>
      <point x="113" y="444"/>
      <point x="30" y="344"/>
      <point x="30" y="216" type="curve" smooth="yes"/>
      <point x="30" y="86"/>
      <point x="112" y="-10"/>
      <point x="243" y="-10" type="curve" smooth="yes"/>
      <point x="375" y="-10"/>
      <point x="458" y="88"/>
    </contour>
    <contour>
      <point x="365" y="217" type="curve" smooth="yes"/>
      <point x="365" y="118"/>
      <point x="327" y="29"/>
      <point x="244" y="29" type="curve" smooth="yes"/>
      <point x="163" y="29"/>
      <point x="125" y="119"/>
      <point x="125" y="217" type="curve" smooth="yes"/>
      <point x="125" y="315"/>
      <point x="162" y="404"/>
      <point x="245" y="404" type="curve" smooth="yes"/>
      <point x="326" y="404"/>
      <point x="365" y="315"/>
    </contour>
  </outline>
</glyph>
<glyph name="p" format="2">
  <advance width="494"/>
  <unicode hex="0070"/>
  <anchor x="127" y="-211" name="H"/>
  <anchor x="242" y="461" name="U"/>
  <outline>
    <contour>
      <point x="293" y="-13" type="curve" smooth="yes"/>
      <point x="370" y="-13"/>
      <point x="463" y="107"/>
      <point x="463" y="218" type="curve" smooth="yes"/>
      <point x="463" y="353"/>
      <point x="398" y="421"/>
      <point x="318" y="421" type="curve" smooth="yes"/>
      <point x="285" y="421"/>
      <point x="233" y="400"/>
      <point x="170" y="339" type="curve"/>
      <point x="166" y="404" type="line"/>
      <point x="149" y="421" type="line"/>
      <point x="108" y="405"/>
      <point x="79" y="397"/>
      <point x="21" y="388" type="curve"/>
      <point x="21" y="362" type="line"/>
      <point x="77" y="359"/>
      <point x="81" y="349"/>
      <point x="81" y="305" type="curve" smooth="yes"/>
      <point x="81" y="-156" type="line" smooth="yes"/>
      <point x="81" y="-166"/>
      <point x="60" y="-174"/>
      <point x="21" y="-183" type="curve"/>
      <point x="21" y="-210" type="line"/>
      <point x="247" y="-210" type="line"/>
      <point x="247" y="-183" type="line"/>
      <point x="192" y="-174"/>
      <point x="173" y="-165"/>
      <point x="173" y="-156" type="curve" smooth="yes"/>
      <point x="173" y="38" type="line"/>
      <point x="221" y="2"/>
      <point x="259" y="-13"/>
    </contour>
    <contour>
      <point x="273" y="353" type="curve" smooth="yes"/>
      <point x="326" y="353"/>
      <point x="377" y="296"/>
      <point x="377" y="187" type="curve" smooth="yes"/>
      <point x="377" y="101"/>
      <point x="341" y="54"/>
      <point x="290" y="54" type="curve" smooth="yes"/>
      <point x="261" y="54"/>
      <point x="232" y="60"/>
      <point x="173" y="97" type="curve"/>
      <point x="173" y="287" type="line"/>
      <point x="225" y="341"/>
      <point x="252" y="353"/>
    </contour>
  </outline>
</glyph>
<glyph name="q" format="2">
  <advance width="493"/>
  <unicode hex="0071"/>
  <outline>
    <contour>
      <point x="480" y="-195" type="line"/>
      <point x="480" y="-162" type="line"/>
      <point x="437" y="-157" type="line"/>
      <point x="426" y="-155"/>
      <point x="418" y="-149"/>
      <point x="418" y="-138" type="curve" smooth="yes"/>
      <point x="418" y="430" type="line"/>
      <point x="380" y="439"/>
      <point x="323" y="444"/>
      <point x="290" y="444" type="curve" smooth="yes"/>
      <point x="127" y="444"/>
      <point x="30" y="352"/>
      <point x="30" y="206" type="curve" smooth="yes"/>
      <point x="30" y="86"/>
      <point x="97" y="-10"/>
      <point x="208" y="-10" type="curve" smooth="yes"/>
      <point x="249" y="-10"/>
      <point x="301" y="7"/>
      <point x="334" y="24" type="curve"/>
      <point x="334" y="-138" type="line" smooth="yes"/>
      <point x="334" y="-149"/>
      <point x="326" y="-156"/>
      <point x="315" y="-157" type="curve" smooth="yes"/>
      <point x="262" y="-162" type="line"/>
      <point x="262" y="-195" type="line"/>
    </contour>
    <contour>
      <point x="334" y="54" type="line"/>
      <point x="315" y="48"/>
      <point x="279" y="42"/>
      <point x="257" y="42" type="curve" smooth="yes"/>
      <point x="160" y="42"/>
      <point x="121" y="127"/>
      <point x="121" y="220" type="curve" smooth="yes"/>
      <point x="121" y="330"/>
      <point x="174" y="403"/>
      <point x="272" y="403" type="curve" smooth="yes"/>
      <point x="297" y="403"/>
      <point x="318" y="396"/>
      <point x="334" y="393" type="curve"/>
    </contour>
  </outline>
</glyph>
<glyph name="r" format="2">
  <advance width="352"/>
  <unicode hex="0072"/>
  <outline>
    <contour>
      <point x="342" y="341" type="line"/>
      <point x="342" y="431" type="line"/>
      <point x="331" y="437"/>
      <point x="306" y="444"/>
      <point x="287" y="444" type="curve" smooth="yes"/>
      <point x="256" y="444"/>
      <point x="220" y="412"/>
      <point x="169" y="353" type="curve"/>
      <point x="169" y="433" type="line"/>
      <point x="132" y="433" type="line"/>
      <point x="20" y="399" type="line"/>
      <point x="20" y="370" type="line"/>
      <point x="85" y="370" type="line"/>
      <point x="85" y="57" type="line" smooth="yes"/>
      <point x="85" y="46"/>
      <point x="77" y="38"/>
      <point x="66" y="37" type="curve" smooth="yes"/>
      <point x="22" y="34" type="line"/>
      <point x="22" y="0" type="line"/>
      <point x="247" y="0" type="line"/>
      <point x="247" y="35" type="line"/>
      <point x="188" y="37" type="line" smooth="yes"/>
      <point x="177" y="38"/>
      <point x="169" y="46"/>
      <point x="169" y="57" type="curve" smooth="yes"/>
      <point x="169" y="310" type="line"/>
      <point x="199" y="345"/>
      <point x="230" y="366"/>
      <point x="259" y="366" type="curve" smooth="yes"/>
      <point x="281" y="366"/>
      <point x="296" y="355"/>
      <point x="307" y="341" type="curve"/>
    </contour>
  </outline>
</glyph>
<glyph name="s" format="2">
  <advance width="358"/>
  <unicode hex="0073"/>
  <outline>
    <contour>
      <point x="327" y="130" type="curve" smooth="yes"/>
      <point x="327" y="188"/>
      <point x="281" y="220"/>
      <point x="218" y="248" type="curve"/>
      <point x="143" y="283"/>
      <point x="118" y="300"/>
      <point x="118" y="341" type="curve" smooth="yes"/>
      <point x="118" y="376"/>
      <point x="142" y="401"/>
      <point x="191" y="401" type="curve" smooth="yes"/>
      <point x="219" y="401"/>
      <point x="247" y="390"/>
      <point x="260" y="380" type="curve"/>
      <point x="267" y="317" type="line"/>
      <point x="314" y="317" type="line"/>
      <point x="314" y="424" type="line"/>
      <point x="296" y="431"/>
      <point x="251" y="444"/>
      <point x="199" y="444" type="curve" smooth="yes"/>
      <point x="95" y="444"/>
      <point x="36" y="394"/>
      <point x="36" y="314" type="curve" smooth="yes"/>
      <point x="36" y="260"/>
      <point x="72" y="231"/>
      <point x="138" y="199" type="curve" smooth="yes"/>
      <point x="207" y="166"/>
      <point x="248" y="150"/>
      <point x="248" y="99" type="curve" smooth="yes"/>
      <point x="248" y="63"/>
      <point x="218" y="29"/>
      <point x="167" y="29" type="curve" smooth="yes"/>
      <point x="132" y="29"/>
      <point x="105" y="43"/>
      <point x="87" y="54" type="curve"/>
      <point x="76" y="131" type="line"/>
      <point x="30" y="131" type="line"/>
      <point x="30" y="11" type="line"/>
      <point x="48" y="4"/>
      <point x="100" y="-10"/>
      <point x="155" y="-10" type="curve" smooth="yes"/>
      <point x="262" y="-10"/>
      <point x="327" y="42"/>
    </contour>
  </outline>
</glyph>
<glyph name="t" format="2">
  <advance width="305"/>
  <unicode hex="0074"/>
  <outline>
    <contour>
      <point x="299" y="18" type="curve"/>
      <point x="299" y="54" type="line"/>
      <point x="288" y="48"/>
      <point x="263" y="39"/>
      <point x="237" y="39" type="curve" smooth="yes"/>
      <point x="189" y="39"/>
      <point x="165" y="65"/>
      <point x="165" y="137" type="curve" smooth="yes"/>
      <point x="165" y="388" type="line"/>
      <point x="292" y="388" type="line"/>
      <point x="292" y="433" type="line"/>
      <point x="165" y="433" type="line"/>
      <point x="165" y="542" type="line"/>
      <point x="126" y="542" type="line"/>
      <point x="85" y="447" type="line"/>
      <point x="24" y="418" type="line"/>
      <point x="24" y="388" type="line"/>
      <point x="81" y="388" type="line"/>
      <point x="81" y="90" type="line" smooth="yes"/>
      <point x="81" y="18"/>
      <point x="110" y="-10"/>
      <point x="178" y="-10" type="curve" smooth="yes"/>
      <point x="225" y="-10"/>
      <point x="275" y="6"/>
    </contour>
  </outline>
</glyph>
<glyph name="u" format="2">
  <advance width="511"/>
  <unicode hex="0075"/>
  <outline>
    <contour>
      <point x="492" y="0" type="line"/>
      <point x="492" y="35" type="line"/>
      <point x="452" y="37" type="line" smooth="yes"/>
      <point x="442" y="38"/>
      <point x="432" y="46"/>
      <point x="432" y="57" type="curve" smooth="yes"/>
      <point x="432" y="444" type="line"/>
      <point x="395" y="444" type="line"/>
      <point x="286" y="409" type="line"/>
      <point x="286" y="378" type="line"/>
      <point x="349" y="378" type="line"/>
      <point x="349" y="77" type="line"/>
      <point x="327" y="66"/>
      <point x="288" y="50"/>
      <point x="251" y="50" type="curve" smooth="yes"/>
      <point x="188" y="50"/>
      <point x="164" y="88"/>
      <point x="164" y="152" type="curve" smooth="yes"/>
      <point x="164" y="444" type="line"/>
      <point x="128" y="444" type="line"/>
      <point x="18" y="409" type="line"/>
      <point x="18" y="378" type="line"/>
      <point x="80" y="378" type="line"/>
      <point x="80" y="134" type="line" smooth="yes"/>
      <point x="80" y="33"/>
      <point x="127" y="-10"/>
      <point x="205" y="-10" type="curve" smooth="yes"/>
      <point x="258" y="-10"/>
      <point x="318" y="27"/>
      <point x="349" y="51" type="curve"/>
      <point x="349" y="0" type="line"/>
    </contour>
  </outline>
</glyph>
<glyph name="v" format="2">
  <advance width="475"/>
  <unicode hex="0076"/>
  <anchor x="232" y="0" name="H"/>
  <anchor x="237" y="483" name="U"/>
  <outline>
    <contour>
      <point x="467" y="398" type="line"/>
      <point x="467" y="433" type="line"/>
      <point x="309" y="433" type="line"/>
      <point x="309" y="398" type="line"/>
      <point x="350" y="395" type="line" smooth="yes"/>
      <point x="359" y="395"/>
      <point x="366" y="385"/>
      <point x="362" y="376" type="curve" smooth="yes"/>
      <point x="251" y="94" type="line"/>
      <point x="151" y="376" type="line" smooth="yes"/>
      <point x="147" y="386"/>
      <point x="154" y="395"/>
      <point x="164" y="395" type="curve" smooth="yes"/>
      <point x="207" y="398" type="line"/>
      <point x="207" y="433" type="line"/>
      <point x="8" y="433" type="line"/>
      <point x="8" y="398" type="line"/>
      <point x="58" y="393" type="line"/>
      <point x="203" y="0" type="line"/>
      <point x="261" y="0" type="line"/>
      <point x="419" y="393" type="line"/>
    </contour>
  </outline>
</glyph>
<glyph name="w" format="2">
  <advance width="704"/>
  <unicode hex="0077"/>
  <outline>
    <contour>
      <point x="695" y="398" type="line"/>
      <point x="695" y="433" type="line"/>
      <point x="538" y="433" type="line"/>
      <point x="538" y="398" type="line"/>
      <point x="579" y="395" type="line" smooth="yes"/>
      <point x="589" y="395"/>
      <point x="595" y="385"/>
      <point x="592" y="376" type="curve" smooth="yes"/>
      <point x="509" y="96" type="line"/>
      <point x="405" y="433" type="line"/>
      <point x="341" y="433" type="line"/>
      <point x="225" y="96" type="line"/>
      <point x="150" y="376" type="line" smooth="yes"/>
      <point x="147" y="386"/>
      <point x="153" y="395"/>
      <point x="163" y="395" type="curve" smooth="yes"/>
      <point x="206" y="398" type="line"/>
      <point x="206" y="433" type="line"/>
      <point x="8" y="433" type="line"/>
      <point x="8" y="398" type="line"/>
      <point x="58" y="393" type="line"/>
      <point x="173" y="0" type="line"/>
      <point x="237" y="0" type="line"/>
      <point x="356" y="336" type="line"/>
      <point x="462" y="0" type="line"/>
      <point x="526" y="0" type="line"/>
      <point x="649" y="393" type="line"/>
    </contour>
  </outline>
</glyph>
<glyph name="x" format="2">
  <advance width="458"/>
  <unicode hex="0078"/>
  <outline>
    <contour>
      <point x="450" y="0" type="line"/>
      <point x="450" y="35" type="line"/>
      <point x="401" y="42" type="line"/>
      <point x="268" y="236" type="line"/>
      <point x="388" y="390" type="line"/>
      <point x="437" y="398" type="line"/>
      <point x="437" y="433" type="line"/>
      <point x="275" y="433" type="line"/>
      <point x="275" y="398" type="line"/>
      <point x="314" y="394" type="line" smooth="yes"/>
      <point x="322" y="393"/>
      <point x="324" y="383"/>
      <point x="320" y="377" type="curve" smooth="yes"/>
      <point x="242" y="277" type="line"/>
      <point x="170" y="377" type="line"/>
      <point x="167" y="384"/>
      <point x="171" y="393"/>
      <point x="180" y="394" type="curve" smooth="yes"/>
      <point x="211" y="398" type="line"/>
      <point x="211" y="433" type="line"/>
      <point x="13" y="433" type="line"/>
      <point x="13" y="398" type="line"/>
      <point x="66" y="390" type="line"/>
      <point x="188" y="209" type="line"/>
      <point x="60" y="42" type="line"/>
      <point x="8" y="35" type="line"/>
      <point x="8" y="0" type="line"/>
      <point x="180" y="0" type="line"/>
      <point x="180" y="35" type="line"/>
      <point x="134" y="38" type="line" smooth="yes"/>
      <point x="127" y="39"/>
      <point x="125" y="49"/>
      <point x="129" y="54" type="curve" smooth="yes"/>
      <point x="217" y="170" type="line"/>
      <point x="295" y="54" type="line" smooth="yes"/>
      <point x="298" y="48"/>
      <point x="295" y="39"/>
      <point x="286" y="38" type="curve" smooth="yes"/>
      <point x="256" y="35" type="line"/>
      <point x="256" y="0" type="line"/>
    </contour>
  </outline>
</glyph>
<glyph name="y" format="2">
  <advance width="476"/>
  <unicode hex="0079"/>
  <outline>
    <contour>
      <point x="468" y="398" type="line"/>
      <point x="468" y="433" type="line"/>
      <point x="307" y="433" type="line"/>
      <point x="307" y="398" type="line"/>
      <point x="350" y="395" type="line" smooth="yes"/>
      <point x="359" y="395"/>
      <point x="366" y="385"/>
      <point x="362" y="376" type="curve" smooth="yes"/>
      <point x="255" y="110" type="line"/>
      <point x="151" y="376" type="line" smooth="yes"/>
      <point x="147" y="386"/>
      <point x="154" y="395"/>
      <point x="164" y="395" type="curve" smooth="yes"/>
      <point x="207" y="398" type="line"/>
      <point x="207" y="433" type="line"/>
      <point x="8" y="433" type="line"/>
      <point x="8" y="398" type="line"/>
      <point x="58" y="393" type="line"/>
      <point x="211" y="0" type="line"/>
      <point x="198" y="-38"/>
      <point x="165" y="-109"/>
      <point x="135" y="-139" type="curve"/>
      <point x="51" y="-100" type="line"/>
      <point x="30" y="-117"/>
      <point x="22" y="-134"/>
      <point x="22" y="-154" type="curve" smooth="yes"/>
      <point x="22" y="-181"/>
      <point x="45" y="-206"/>
      <point x="88" y="-206" type="curve" smooth="yes"/>
      <point x="118" y="-206"/>
      <point x="145" y="-193"/>
      <point x="166" y="-171" type="curve" smooth="yes"/>
      <point x="204" y="-134"/>
      <point x="236" y="-56"/>
      <point x="248" y="-27" type="curve" smooth="yes"/>
      <point x="420" y="393" type="line"/>
    </contour>
  </outline>
</glyph>
<glyph name="z" format="2">
  <advance width="415"/>
  <unicode hex="007A"/>
  <anchor x="212" y="0" name="H"/>
  <anchor x="212" y="483" name="U"/>
  <outline>
    <contour>
      <point x="385" y="0" type="line"/>
      <point x="385" y="135" type="line"/>
      <point x="336" y="135" type="line"/>
      <point x="327" y="64" type="line" smooth="yes"/>
      <point x="326" y="55"/>
      <point x="315" y="43"/>
      <point x="307" y="43" type="curve" smooth="yes"/>
      <point x="126" y="43" type="line"/>
      <point x="372" y="396" type="line"/>
      <point x="372" y="433" type="line"/>
      <point x="39" y="433" type="line"/>
      <point x="39" y="305" type="line"/>
      <point x="85" y="305" type="line"/>
      <point x="94" y="372" type="line"/>
      <point x="96" y="380"/>
      <point x="103" y="391"/>
      <point x="112" y="391" type="curve" smooth="yes"/>
      <point x="268" y="391" type="line"/>
      <point x="30" y="47" type="line"/>
      <point x="30" y="0" type="line"/>
    </contour>
  </outline>
</glyph>
<glyph name="braceleft" format="2">
  <advance width="439"/>
  <unicode hex="007B"/>
  <outline>
    <contour>
      <point x="377" y="-110" type="curve"/>
      <point x="377" y="-73" type="line"/>
      <point x="361" y="-73"/>
      <point x="307" y="-71"/>
      <point x="285" y="-46" type="curve" smooth="yes"/>
      <point x="260" y="-19"/>
      <point x="263" y="36"/>
      <point x="263" y="86" type="curve" smooth="yes"/>
      <point x="263" y="127"/>
      <point x="261" y="179"/>
      <point x="237" y="209" type="curve" smooth="yes"/>
      <point x="214" y="240"/>
      <point x="179" y="254"/>
      <point x="142" y="261" type="curve"/>
      <point x="179" y="269"/>
      <point x="214" y="282"/>
      <point x="237" y="313" type="curve" smooth="yes"/>
      <point x="261" y="343"/>
      <point x="263" y="395"/>
      <point x="263" y="436" type="curve" smooth="yes"/>
      <point x="263" y="486"/>
      <point x="260" y="542"/>
      <point x="285" y="569" type="curve" smooth="yes"/>
      <point x="307" y="594"/>
      <point x="361" y="596"/>
      <point x="377" y="596" type="curve"/>
      <point x="377" y="633" type="line"/>
      <point x="313" y="633"/>
      <point x="250" y="625"/>
      <point x="220" y="594" type="curve" smooth="yes"/>
      <point x="180" y="551"/>
      <point x="183" y="493"/>
      <point x="183" y="433" type="curve" smooth="yes"/>
      <point x="183" y="394"/>
      <point x="186" y="333"/>
      <point x="158" y="305" type="curve" smooth="yes"/>
      <point x="136" y="285"/>
      <point x="106" y="281"/>
      <point x="54" y="281" type="curve"/>
      <point x="54" y="241" type="line"/>
      <point x="106" y="241"/>
      <point x="136" y="237"/>
      <point x="158" y="217" type="curve" smooth="yes"/>
      <point x="186" y="189"/>
      <point x="183" y="128"/>
      <point x="183" y="89" type="curve" smooth="yes"/>
      <point x="183" y="29"/>
      <point x="180" y="-29"/>
      <point x="220" y="-71" type="curve" smooth="yes"/>
      <point x="250" y="-102"/>
      <point x="313" y="-110"/>
    </contour>
  </outline>
</glyph>
<glyph name="bar" format="2">
  <advance width="219"/>
  <unicode hex="007C"/>
  <outline>
    <contour>
      <point x="145" y="-173" type="curve"/>
      <point x="145" y="722" type="line"/>
      <point x="127" y="733" type="line"/>
      <point x="109" y="729"/>
      <point x="90" y="719"/>
      <point x="74" y="710" type="curve"/>
      <point x="74" y="-186" type="line"/>
      <point x="92" y="-198" type="line"/>
      <point x="106" y="-194"/>
      <point x="134" y="-183"/>
    </contour>
  </outline>
</glyph>
<glyph name="braceright" format="2">
  <advance width="310"/>
  <unicode hex="007D"/>
  <outline>
    <contour>
      <point x="271" y="281" type="curve"/>
      <point x="263" y="314" type="line"/>
      <point x="246" y="311"/>
      <point x="251" y="311"/>
      <point x="235" y="311" type="curve" smooth="yes"/>
      <point x="195" y="311"/>
      <point x="173" y="332"/>
      <point x="173" y="379" type="curve" smooth="yes"/>
      <point x="173" y="447"/>
      <point x="190" y="473"/>
      <point x="190" y="537" type="curve" smooth="yes"/>
      <point x="190" y="622"/>
      <point x="136" y="663"/>
      <point x="31" y="702" type="curve"/>
      <point x="17" y="667" type="line"/>
      <point x="78" y="633"/>
      <point x="91" y="604"/>
      <point x="91" y="549" type="curve" smooth="yes"/>
      <point x="91" y="496"/>
      <point x="74" y="461"/>
      <point x="74" y="395" type="curve" smooth="yes"/>
      <point x="74" y="330"/>
      <point x="98" y="288"/>
      <point x="157" y="277" type="curve"/>
      <point x="107" y="255"/>
      <point x="74" y="208"/>
      <point x="74" y="159" type="curve" smooth="yes"/>
      <point x="74" y="95"/>
      <point x="91" y="74"/>
      <point x="91" y="10" type="curve" smooth="yes"/>
      <point x="91" y="-39"/>
      <point x="58" y="-80"/>
      <point x="12" y="-108" type="curve"/>
      <point x="29" y="-138" type="line"/>
      <point x="122" y="-99"/>
      <point x="190" y="-43"/>
      <point x="190" y="35" type="curve" smooth="yes"/>
      <point x="190" y="103"/>
      <point x="173" y="118"/>
      <point x="173" y="185" type="curve" smooth="yes"/>
      <point x="173" y="229"/>
      <point x="204" y="263"/>
    </contour>
  </outline>
</glyph>
<glyph name="asciitilde" format="2">
  <advance width="439"/>
  <unicode hex="007E"/>
  <outline>
    <contour>
      <point x="421" y="342" type="curve"/>
      <point x="394" y="355" type="line"/>
      <point x="370" y="307"/>
      <point x="340" y="285"/>
      <point x="314" y="285" type="curve" smooth="yes"/>
      <point x="267" y="285"/>
      <point x="213" y="355"/>
      <point x="154" y="355" type="curve" smooth="yes"/>
      <point x="94" y="355"/>
      <point x="42" y="275"/>
      <point x="17" y="218" type="curve"/>
      <point x="44" y="204" type="line"/>
      <point x="69" y="253"/>
      <point x="97" y="275"/>
      <point x="123" y="275" type="curve" smooth="yes"/>
      <point x="174" y="275"/>
      <point x="235" y="205"/>
      <point x="284" y="205" type="curve" smooth="yes"/>
      <point x="344" y="205"/>
      <point x="397" y="284"/>
    </contour>
  </outline>
</glyph>
<glyph name="exclamdown" format="2">
  <advance width="266"/>
  <unicode hex="00A1"/>
  <outline>
    <contour>
      <point x="196" y="366" type="curve"/>
      <point x="196" y="404"/>
      <point x="172" y="422"/>
      <point x="139" y="422" type="curve" smooth="yes"/>
      <point x="98" y="422"/>
      <point x="65" y="392"/>
      <point x="65" y="348" type="curve" smooth="yes"/>
      <point x="65" y="309"/>
      <point x="90" y="291"/>
      <point x="122" y="291" type="curve" smooth="yes"/>
      <point x="161" y="291"/>
      <point x="196" y="322"/>
    </contour>
    <contour>
      <point x="187" y="-202" type="curve"/>
      <point x="157" y="235" type="line"/>
      <point x="145" y="243" type="line"/>
      <point x="130" y="239"/>
      <point x="114" y="235"/>
      <point x="103" y="226" type="curve"/>
      <point x="73" y="-234" type="line"/>
      <point x="94" y="-247" type="line"/>
      <point x="116" y="-239"/>
      <point x="162" y="-216"/>
    </contour>
  </outline>
</glyph>
<glyph name="cent" format="2">
  <advance width="506"/>
  <unicode hex="00A2"/>
  <outline>
    <contour>
      <point x="438" y="20" type="curve"/>
      <point x="438" y="156" type="line"/>
      <point x="394" y="156" type="line"/>
      <point x="382" y="70" type="line"/>
      <point x="380" y="65"/>
      <point x="377" y="58"/>
      <point x="371" y="55" type="curve"/>
      <point x="371" y="55"/>
      <point x="346" y="43"/>
      <point x="308" y="43" type="curve"/>
      <point x="308" y="411" type="line"/>
      <point x="345" y="410"/>
      <point x="359" y="405"/>
      <point x="371" y="397" type="curve"/>
      <point x="378" y="395"/>
      <point x="380" y="386"/>
      <point x="382" y="378" type="curve"/>
      <point x="395" y="300" type="line"/>
      <point x="438" y="300" type="line"/>
      <point x="438" y="432" type="line"/>
      <point x="391" y="448"/>
      <point x="353" y="455"/>
      <point x="308" y="455" type="curve"/>
      <point x="308" y="543" type="line"/>
      <point x="265" y="543" type="line"/>
      <point x="265" y="451" type="line"/>
      <point x="147" y="435"/>
      <point x="68" y="346"/>
      <point x="68" y="226" type="curve" smooth="yes"/>
      <point x="68" y="104"/>
      <point x="143" y="15"/>
      <point x="265" y="1" type="curve"/>
      <point x="265" y="-89" type="line"/>
      <point x="308" y="-89" type="line"/>
      <point x="308" y="0" type="line"/>
      <point x="393" y="0"/>
      <point x="435" y="18"/>
    </contour>
    <contour>
      <point x="265" y="45" type="line"/>
      <point x="205" y="60"/>
      <point x="154" y="122"/>
      <point x="154" y="229" type="curve" smooth="yes"/>
      <point x="154" y="342"/>
      <point x="218" y="397"/>
      <point x="265" y="408" type="curve"/>
    </contour>
  </outline>
</glyph>
<glyph name="sterling" format="2">
  <advance width="506"/>
  <unicode hex="00A3"/>
  <outline>
    <contour>
      <point x="466" y="0" type="line"/>
      <point x="466" y="73" type="line"/>
      <point x="199" y="73" type="line" smooth="yes"/>
      <point x="186" y="73"/>
      <point x="149" y="70"/>
      <point x="125" y="68" type="curve"/>
      <point x="204" y="119"/>
      <point x="220" y="181"/>
      <point x="220" y="296" type="curve"/>
      <point x="388" y="296" type="line"/>
      <point x="388" y="340" type="line"/>
      <point x="220" y="340" type="line"/>
      <point x="219" y="366"/>
      <point x="218" y="410"/>
      <point x="218" y="439" type="curve" smooth="yes"/>
      <point x="218" y="522"/>
      <point x="235" y="618"/>
      <point x="339" y="618" type="curve" smooth="yes"/>
      <point x="352" y="618"/>
      <point x="370" y="614"/>
      <point x="379" y="611" type="curve"/>
      <point x="379" y="521" type="line"/>
      <point x="388" y="519"/>
      <point x="402" y="516"/>
      <point x="412" y="516" type="curve" smooth="yes"/>
      <point x="441" y="516"/>
      <point x="468" y="538"/>
      <point x="468" y="567" type="curve" smooth="yes"/>
      <point x="468" y="637"/>
      <point x="381" y="663"/>
      <point x="325" y="663" type="curve" smooth="yes"/>
      <point x="194" y="663"/>
      <point x="134" y="563"/>
      <point x="134" y="439" type="curve" smooth="yes"/>
      <point x="134" y="419"/>
      <point x="134" y="371"/>
      <point x="134" y="340" type="curve"/>
      <point x="72" y="340" type="line"/>
      <point x="72" y="296" type="line"/>
      <point x="136" y="296" type="line"/>
      <point x="136" y="230" type="line"/>
      <point x="136" y="134"/>
      <point x="112" y="73"/>
      <point x="38" y="54" type="curve"/>
      <point x="38" y="0" type="line"/>
    </contour>
  </outline>
</glyph>
<glyph name="yen" format="2">
  <advance width="536"/>
  <unicode hex="00A5"/>
  <outline>
    <contour>
      <point x="527" y="566" type="line"/>
      <point x="527" y="603" type="line"/>
      <point x="355" y="603" type="line"/>
      <point x="355" y="566" type="line"/>
      <point x="398" y="558" type="line" smooth="yes"/>
      <point x="414" y="556"/>
      <point x="413" y="544"/>
      <point x="410" y="539" type="curve" smooth="yes"/>
      <point x="279" y="307" type="line"/>
      <point x="161" y="540" type="line" smooth="yes"/>
      <point x="156" y="548"/>
      <point x="162" y="558"/>
      <point x="171" y="559" type="curve" smooth="yes"/>
      <point x="210" y="566" type="line"/>
      <point x="210" y="603" type="line"/>
      <point x="8" y="603" type="line"/>
      <point x="8" y="566" type="line"/>
      <point x="61" y="555" type="line"/>
      <point x="151" y="384" type="line"/>
      <point x="29" y="384" type="line"/>
      <point x="29" y="344" type="line"/>
      <point x="172" y="344" type="line"/>
      <point x="221" y="252" type="line"/>
      <point x="29" y="252" type="line"/>
      <point x="29" y="213" type="line"/>
      <point x="223" y="213" type="line"/>
      <point x="223" y="61" type="line" smooth="yes"/>
      <point x="223" y="55"/>
      <point x="217" y="43"/>
      <point x="200" y="42" type="curve" smooth="yes"/>
      <point x="147" y="37" type="line"/>
      <point x="147" y="0" type="line"/>
      <point x="382" y="0" type="line"/>
      <point x="382" y="37" type="line"/>
      <point x="330" y="42" type="line" smooth="yes"/>
      <point x="314" y="43"/>
      <point x="306" y="55"/>
      <point x="306" y="61" type="curve" smooth="yes"/>
      <point x="306" y="213" type="line"/>
      <point x="507" y="213" type="line"/>
      <point x="507" y="252" type="line"/>
      <point x="305" y="252" type="line"/>
      <point x="358" y="344" type="line"/>
      <point x="507" y="344" type="line"/>
      <point x="507" y="384" type="line"/>
      <point x="380" y="384" type="line"/>
      <point x="476" y="554" type="line"/>
    </contour>
  </outline>
</glyph>
<glyph name="brokenbar" format="2">
  <advance width="310"/>
  <unicode hex="00A6"/>
  <outline>
    <contour>
      <point x="178" y="302" type="line"/>
      <point x="178" y="662" type="line"/>
      <point x="132" y="662" type="line"/>
      <point x="132" y="302" type="line"/>
    </contour>
    <contour>
      <point x="178" y="-178" type="line"/>
      <point x="178" y="181" type="line"/>
      <point x="132" y="181" type="line"/>
      <point x="132" y="-178" type="line"/>
    </contour>
  </outline>
</glyph>
<glyph name="section" format="2">
  <advance width="450"/>
  <unicode hex="00A7"/>
  <outline>
    <contour>
      <point x="396" y="292" type="curve" smooth="yes"/>
      <point x="396" y="449"/>
      <point x="143" y="457"/>
      <point x="143" y="547" type="curve" smooth="yes"/>
      <point x="143" y="591"/>
      <point x="179" y="623"/>
      <point x="232" y="623" type="curve" smooth="yes"/>
      <point x="268" y="623"/>
      <point x="297" y="608"/>
      <point x="317" y="597" type="curve"/>
      <point x="326" y="524" type="line"/>
      <point x="369" y="524" type="line"/>
      <point x="369" y="641" type="line"/>
      <point x="351" y="649"/>
      <point x="296" y="663"/>
      <point x="243" y="663" type="curve" smooth="yes"/>
      <point x="127" y="663"/>
      <point x="69" y="613"/>
      <point x="69" y="530" type="curve" smooth="yes"/>
      <point x="69" y="477"/>
      <point x="105" y="442"/>
      <point x="159" y="415" type="curve"/>
      <point x="100" y="388"/>
      <point x="53" y="354"/>
      <point x="53" y="274" type="curve" smooth="yes"/>
      <point x="53" y="106"/>
      <point x="309" y="110"/>
      <point x="309" y="5" type="curve" smooth="yes"/>
      <point x="309" y="-39"/>
      <point x="269" y="-67"/>
      <point x="217" y="-67" type="curve" smooth="yes"/>
      <point x="190" y="-67"/>
      <point x="153" y="-58"/>
      <point x="132" y="-43" type="curve"/>
      <point x="123" y="18"/>
      <point x="125" y="3"/>
      <point x="119" y="36" type="curve"/>
      <point x="74" y="36" type="line"/>
      <point x="74" y="-80" type="line"/>
      <point x="97" y="-90"/>
      <point x="151" y="-109"/>
      <point x="213" y="-109" type="curve" smooth="yes"/>
      <point x="310" y="-109"/>
      <point x="380" y="-53"/>
      <point x="380" y="27" type="curve" smooth="yes"/>
      <point x="380" y="85"/>
      <point x="340" y="122"/>
      <point x="287" y="146" type="curve"/>
      <point x="342" y="168"/>
      <point x="396" y="222"/>
    </contour>
    <contour>
      <point x="326" y="269" type="curve" smooth="yes"/>
      <point x="326" y="223"/>
      <point x="277" y="178"/>
      <point x="250" y="164" type="curve"/>
      <point x="163" y="206"/>
      <point x="121" y="240"/>
      <point x="121" y="295" type="curve" smooth="yes"/>
      <point x="121" y="334"/>
      <point x="147" y="377"/>
      <point x="202" y="396" type="curve"/>
      <point x="280" y="364"/>
      <point x="326" y="323"/>
    </contour>
  </outline>
</glyph>
<glyph name="copyright" format="2">
  <advance width="753"/>
  <unicode hex="00A9"/>
  <outline>
    <contour>
      <point x="722" y="315" type="curve" smooth="yes"/>
      <point x="722" y="504"/>
      <point x="570" y="663"/>
      <point x="377" y="663" type="curve" smooth="yes"/>
      <point x="185" y="663"/>
      <point x="30" y="506"/>
      <point x="30" y="315" type="curve" smooth="yes"/>
      <point x="30" y="124"/>
      <point x="186" y="-32"/>
      <point x="376" y="-32" type="curve" smooth="yes"/>
      <point x="567" y="-32"/>
      <point x="722" y="124"/>
    </contour>
    <contour>
      <point x="683" y="315" type="curve" smooth="yes"/>
      <point x="683" y="145"/>
      <point x="545" y="5"/>
      <point x="376" y="5" type="curve" smooth="yes"/>
      <point x="206" y="5"/>
      <point x="69" y="145"/>
      <point x="69" y="315" type="curve" smooth="yes"/>
      <point x="69" y="486"/>
      <point x="206" y="625"/>
      <point x="377" y="625" type="curve" smooth="yes"/>
      <point x="547" y="625"/>
      <point x="683" y="485"/>
    </contour>
    <contour>
      <point x="518" y="124" type="curve"/>
      <point x="518" y="237" type="line"/>
      <point x="479" y="237" type="line"/>
      <point x="466" y="161" type="line"/>
      <point x="450" y="153"/>
      <point x="420" y="144"/>
      <point x="391" y="144" type="curve" smooth="yes"/>
      <point x="321" y="144"/>
      <point x="252" y="206"/>
      <point x="252" y="316" type="curve" smooth="yes"/>
      <point x="252" y="423"/>
      <point x="323" y="484"/>
      <point x="400" y="484" type="curve" smooth="yes"/>
      <point x="425" y="484"/>
      <point x="450" y="474"/>
      <point x="464" y="465" type="curve"/>
      <point x="477" y="396" type="line"/>
      <point x="518" y="396" type="line"/>
      <point x="518" y="504" type="line"/>
      <point x="479" y="515"/>
      <point x="438" y="526"/>
      <point x="391" y="526" type="curve" smooth="yes"/>
      <point x="257" y="526"/>
      <point x="170" y="439"/>
      <point x="170" y="315" type="curve" smooth="yes"/>
      <point x="170" y="201"/>
      <point x="249" y="102"/>
      <point x="390" y="102" type="curve" smooth="yes"/>
      <point x="457" y="102"/>
      <point x="515" y="123"/>
    </contour>
  </outline>
</glyph>
<glyph name="ordfeminine" format="2">
  <advance width="306"/>
  <unicode hex="00AA"/>
  <outline>
    <contour>
      <point x="292" y="344" type="line"/>
      <point x="292" y="365" type="line"/>
      <point x="263" y="367" type="line" smooth="yes"/>
      <point x="257" y="368"/>
      <point x="251" y="372"/>
      <point x="251" y="378" type="curve" smooth="yes"/>
      <point x="251" y="529" type="line" smooth="yes"/>
      <point x="251" y="577"/>
      <point x="232" y="611"/>
      <point x="159" y="611" type="curve" smooth="yes"/>
      <point x="101" y="611"/>
      <point x="37" y="592"/>
      <point x="37" y="547" type="curve" smooth="yes"/>
      <point x="37" y="533"/>
      <point x="48" y="531"/>
      <point x="59" y="531" type="curve" smooth="yes"/>
      <point x="101" y="531" type="line"/>
      <point x="101" y="578" type="line"/>
      <point x="108" y="580"/>
      <point x="123" y="585"/>
      <point x="144" y="585" type="curve" smooth="yes"/>
      <point x="181" y="585"/>
      <point x="198" y="568"/>
      <point x="198" y="532" type="curve" smooth="yes"/>
      <point x="198" y="532"/>
      <point x="198" y="511"/>
      <point x="198" y="509" type="curve"/>
      <point x="43" y="479"/>
      <point x="24" y="450"/>
      <point x="24" y="411" type="curve" smooth="yes"/>
      <point x="24" y="365"/>
      <point x="58" y="338"/>
      <point x="99" y="338" type="curve" smooth="yes"/>
      <point x="145" y="338"/>
      <point x="198" y="376"/>
      <point x="198" y="376" type="curve"/>
      <point x="206" y="344" type="line"/>
    </contour>
    <contour>
      <point x="289" y="273" type="line"/>
      <point x="289" y="300" type="line"/>
      <point x="27" y="300" type="line"/>
      <point x="27" y="273" type="line"/>
    </contour>
    <contour>
      <point x="198" y="395" type="line"/>
      <point x="198" y="395"/>
      <point x="157" y="370"/>
      <point x="126" y="370" type="curve" smooth="yes"/>
      <point x="97" y="370"/>
      <point x="81" y="392"/>
      <point x="81" y="414" type="curve" smooth="yes"/>
      <point x="81" y="441"/>
      <point x="92" y="464"/>
      <point x="198" y="488" type="curve"/>
    </contour>
  </outline>
</glyph>
<glyph name="guillemetleft" format="2">
  <advance width="454"/>
  <unicode hex="00AB"/>
  <outline>
    <contour>
      <point x="204" y="188" type="curve"/>
      <point x="373" y="3" type="line"/>
      <point x="397" y="20" type="line"/>
      <point x="304" y="205" type="line"/>
      <point x="303" y="204"/>
      <point x="397" y="388"/>
      <point x="396" y="388" type="curve"/>
      <point x="373" y="405" type="line"/>
      <point x="205" y="221" type="line"/>
      <point x="204" y="219"/>
      <point x="204" y="188"/>
    </contour>
    <contour>
      <point x="30" y="188" type="curve"/>
      <point x="200" y="3" type="line"/>
      <point x="223" y="20" type="line"/>
      <point x="130" y="205" type="line"/>
      <point x="129" y="204"/>
      <point x="223" y="388"/>
      <point x="223" y="388" type="curve"/>
      <point x="200" y="405" type="line"/>
      <point x="31" y="221" type="line"/>
      <point x="30" y="219"/>
      <point x="30" y="188"/>
    </contour>
  </outline>
</glyph>
<glyph name="logicalnot" format="2">
  <advance width="558"/>
  <unicode hex="00AC"/>
  <outline>
    <contour>
      <point x="522" y="170" type="line"/>
      <point x="522" y="377" type="line"/>
      <point x="36" y="377" type="line"/>
      <point x="36" y="323" type="line"/>
      <point x="468" y="323" type="line"/>
      <point x="468" y="170" type="line"/>
    </contour>
  </outline>
</glyph>
<glyph name="registered" format="2">
  <advance width="753"/>
  <unicode hex="00AE"/>
  <outline>
    <contour>
      <point x="722" y="315" type="curve" smooth="yes"/>
      <point x="722" y="507"/>
      <point x="566" y="663"/>
      <point x="377" y="663" type="curve" smooth="yes"/>
      <point x="185" y="663"/>
      <point x="30" y="506"/>
      <point x="30" y="315" type="curve" smooth="yes"/>
      <point x="30" y="123"/>
      <point x="186" y="-32"/>
      <point x="375" y="-32" type="curve" smooth="yes"/>
      <point x="567" y="-32"/>
      <point x="722" y="123"/>
    </contour>
    <contour>
      <point x="683" y="315" type="curve" smooth="yes"/>
      <point x="683" y="145"/>
      <point x="546" y="5"/>
      <point x="376" y="5" type="curve" smooth="yes"/>
      <point x="206" y="5"/>
      <point x="69" y="145"/>
      <point x="69" y="313" type="curve" smooth="yes"/>
      <point x="69" y="488"/>
      <point x="208" y="625"/>
      <point x="377" y="625" type="curve" smooth="yes"/>
      <point x="546" y="625"/>
      <point x="683" y="486"/>
    </contour>
    <contour>
      <point x="600" y="127" type="curve"/>
      <point x="600" y="152" type="line"/>
      <point x="442" y="152"/>
      <point x="557" y="287"/>
      <point x="413" y="319" type="curve"/>
      <point x="468" y="331"/>
      <point x="519" y="356"/>
      <point x="519" y="417" type="curve" smooth="yes"/>
      <point x="519" y="494"/>
      <point x="460" y="522"/>
      <point x="361" y="522" type="curve" smooth="yes"/>
      <point x="194" y="522" type="line"/>
      <point x="194" y="496" type="line"/>
      <point x="228" y="493" type="line" smooth="yes"/>
      <point x="237" y="493"/>
      <point x="242" y="486"/>
      <point x="242" y="481" type="curve" smooth="yes"/>
      <point x="242" y="168" type="line" smooth="yes"/>
      <point x="242" y="163"/>
      <point x="237" y="156"/>
      <point x="228" y="155" type="curve" smooth="yes"/>
      <point x="194" y="152" type="line"/>
      <point x="194" y="127" type="line"/>
      <point x="353" y="127" type="line"/>
      <point x="353" y="152" type="line"/>
      <point x="319" y="155" type="line" smooth="yes"/>
      <point x="310" y="156"/>
      <point x="305" y="163"/>
      <point x="305" y="168" type="curve" smooth="yes"/>
      <point x="305" y="302" type="line"/>
      <point x="307" y="302"/>
      <point x="322" y="303"/>
      <point x="335" y="303" type="curve" smooth="yes"/>
      <point x="494" y="303"/>
      <point x="388" y="123"/>
      <point x="547" y="123" type="curve" smooth="yes"/>
      <point x="566" y="123"/>
      <point x="595" y="127"/>
    </contour>
    <contour>
      <point x="449" y="414" type="curve" smooth="yes"/>
      <point x="449" y="352"/>
      <point x="410" y="331"/>
      <point x="339" y="331" type="curve" smooth="yes"/>
      <point x="329" y="331"/>
      <point x="307" y="332"/>
      <point x="305" y="332" type="curve"/>
      <point x="305" y="493" type="line"/>
      <point x="307" y="493"/>
      <point x="336" y="493"/>
      <point x="336" y="493" type="curve"/>
      <point x="417" y="493"/>
      <point x="449" y="464"/>
    </contour>
  </outline>
</glyph>
<glyph name="degree" format="2">
  <advance width="322"/>
  <unicode hex="00B0"/>
  <outline>
    <contour>
      <point x="268" y="460" type="curve"/>
      <point x="268" y="508"/>
      <point x="227" y="550"/>
      <point x="178" y="550" type="curve" smooth="yes"/>
      <point x="119" y="550"/>
      <point x="54" y="493"/>
      <point x="54" y="415" type="curve" smooth="yes"/>
      <point x="54" y="366"/>
      <point x="91" y="325"/>
      <point x="143" y="325" type="curve" smooth="yes"/>
      <point x="201" y="325"/>
      <point x="268" y="383"/>
    </contour>
    <contour>
      <point x="207" y="437" type="curve"/>
      <point x="207" y="401"/>
      <point x="181" y="380"/>
      <point x="156" y="380" type="curve" smooth="yes"/>
      <point x="130" y="380"/>
      <point x="114" y="408"/>
      <point x="114" y="438" type="curve" smooth="yes"/>
      <point x="114" y="473"/>
      <point x="139" y="495"/>
      <point x="165" y="495" type="curve" smooth="yes"/>
      <point x="191" y="495"/>
      <point x="207" y="468"/>
    </contour>
  </outline>
</glyph>
<glyph name="plusminus" format="2">
  <advance width="900"/>
  <unicode hex="00B1"/>
  <outline>
    <contour>
      <point x="719" y="322" type="line"/>
      <point x="719" y="377" type="line"/>
      <point x="477" y="377" type="line"/>
      <point x="477" y="540" type="line"/>
      <point x="422" y="540" type="line"/>
      <point x="422" y="377" type="line"/>
      <point x="180" y="377" type="line"/>
      <point x="180" y="322" type="line"/>
      <point x="422" y="322" type="line"/>
      <point x="422" y="160" type="line"/>
      <point x="477" y="160" type="line"/>
      <point x="477" y="322" type="line"/>
    </contour>
    <contour>
      <point x="719" y="0" type="line"/>
      <point x="719" y="55" type="line"/>
      <point x="180" y="55" type="line"/>
      <point x="180" y="0" type="line"/>
    </contour>
  </outline>
</glyph>
<glyph name="twosuperior" format="2">
  <advance width="329"/>
  <unicode hex="00B2"/>
  <anchor x="164" y="725" name="U"/>
  <outline>
    <contour>
      <point x="301" y="344" type="line"/>
      <point x="301" y="436" type="line"/>
      <point x="272" y="436" type="line"/>
      <point x="262" y="390" type="line"/>
      <point x="89" y="390" type="line"/>
      <point x="194" y="467"/>
      <point x="294" y="533"/>
      <point x="294" y="610" type="curve" smooth="yes"/>
      <point x="294" y="673"/>
      <point x="239" y="712"/>
      <point x="163" y="712" type="curve" smooth="yes"/>
      <point x="95" y="712"/>
      <point x="35" y="681"/>
      <point x="35" y="635" type="curve" smooth="yes"/>
      <point x="35" y="613"/>
      <point x="52" y="602"/>
      <point x="70" y="602" type="curve" smooth="yes"/>
      <point x="88" y="602"/>
      <point x="98" y="613"/>
      <point x="98" y="613" type="curve"/>
      <point x="98" y="672" type="line"/>
      <point x="101" y="673"/>
      <point x="120" y="683"/>
      <point x="147" y="683" type="curve" smooth="yes"/>
      <point x="192" y="683"/>
      <point x="231" y="656"/>
      <point x="231" y="604" type="curve" smooth="yes"/>
      <point x="231" y="529"/>
      <point x="146" y="471"/>
      <point x="27" y="380" type="curve"/>
      <point x="27" y="344" type="line"/>
    </contour>
  </outline>
</glyph>
<glyph name="SupThree" format="2">
  <advance width="329"/>
  <unicode hex="00B3"/>
  <outline>
    <contour>
      <point x="301" y="448" type="curve" smooth="yes"/>
      <point x="301" y="507"/>
      <point x="246" y="532"/>
      <point x="197" y="534" type="curve"/>
      <point x="254" y="549"/>
      <point x="286" y="581"/>
      <point x="286" y="621" type="curve" smooth="yes"/>
      <point x="286" y="679"/>
      <point x="233" y="712"/>
      <point x="166" y="712" type="curve" smooth="yes"/>
      <point x="96" y="712"/>
      <point x="37" y="681"/>
      <point x="37" y="639" type="curve" smooth="yes"/>
      <point x="37" y="616"/>
      <point x="57" y="609"/>
      <point x="71" y="609" type="curve" smooth="yes"/>
      <point x="85" y="609"/>
      <point x="95" y="616"/>
      <point x="97" y="617" type="curve"/>
      <point x="97" y="670" type="line"/>
      <point x="97" y="670"/>
      <point x="118" y="683"/>
      <point x="150" y="683" type="curve" smooth="yes"/>
      <point x="189" y="683"/>
      <point x="226" y="660"/>
      <point x="226" y="615" type="curve" smooth="yes"/>
      <point x="226" y="567"/>
      <point x="182" y="546"/>
      <point x="133" y="546" type="curve" smooth="yes"/>
      <point x="127" y="546"/>
      <point x="119" y="547"/>
      <point x="117" y="547" type="curve"/>
      <point x="117" y="512" type="line"/>
      <point x="117" y="512"/>
      <point x="132" y="515"/>
      <point x="152" y="515" type="curve" smooth="yes"/>
      <point x="191" y="515"/>
      <point x="241" y="500"/>
      <point x="241" y="448" type="curve" smooth="yes"/>
      <point x="241" y="405"/>
      <point x="204" y="365"/>
      <point x="150" y="365" type="curve" smooth="yes"/>
      <point x="131" y="365"/>
      <point x="115" y="369"/>
      <point x="99" y="377" type="curve"/>
      <point x="81" y="425" type="line"/>
      <point x="77" y="428"/>
      <point x="66" y="429"/>
      <point x="61" y="429" type="curve" smooth="yes"/>
      <point x="38" y="429"/>
      <point x="27" y="413"/>
      <point x="27" y="399" type="curve" smooth="yes"/>
      <point x="27" y="373"/>
      <point x="69" y="337"/>
      <point x="148" y="337" type="curve" smooth="yes"/>
      <point x="232" y="337"/>
      <point x="301" y="382"/>
    </contour>
  </outline>
</glyph>
<glyph name="threesuperior" format="2">
  <advance width="310"/>
  <unicode hex="00B3"/>
  <anchor x="155" y="626" name="U"/>
  <outline>
    <contour>
      <point x="274" y="373" type="curve"/>
      <point x="274" y="415"/>
      <point x="240" y="451"/>
      <point x="191" y="456" type="curve"/>
      <point x="230" y="467"/>
      <point x="256" y="498"/>
      <point x="256" y="525" type="curve" smooth="yes"/>
      <point x="256" y="560"/>
      <point x="227" y="598"/>
      <point x="156" y="598" type="curve" smooth="yes"/>
      <point x="84" y="598"/>
      <point x="30" y="553"/>
      <point x="30" y="524" type="curve"/>
      <point x="39" y="510" type="line"/>
      <point x="60" y="512"/>
      <point x="87" y="518"/>
      <point x="103" y="526" type="curve"/>
      <point x="96" y="550"/>
      <point x="114" y="567"/>
      <point x="138" y="567" type="curve" smooth="yes"/>
      <point x="171" y="567"/>
      <point x="183" y="544"/>
      <point x="183" y="520" type="curve" smooth="yes"/>
      <point x="183" y="498"/>
      <point x="174" y="469"/>
      <point x="103" y="453" type="curve"/>
      <point x="108" y="430" type="line"/>
      <point x="120" y="431"/>
      <point x="120" y="431"/>
      <point x="132" y="431" type="curve" smooth="yes"/>
      <point x="161" y="431"/>
      <point x="200" y="415"/>
      <point x="200" y="365" type="curve" smooth="yes"/>
      <point x="200" y="320"/>
      <point x="170" y="299"/>
      <point x="128" y="299" type="curve" smooth="yes"/>
      <point x="97" y="299"/>
      <point x="69" y="308"/>
      <point x="32" y="331" type="curve"/>
      <point x="20" y="308" type="line"/>
      <point x="57" y="278"/>
      <point x="103" y="264"/>
      <point x="137" y="264" type="curve" smooth="yes"/>
      <point x="219" y="264"/>
      <point x="274" y="313"/>
    </contour>
  </outline>
</glyph>
<glyph name="mu" format="2">
  <advance width="492"/>
  <unicode hex="00B5"/>
  <outline>
    <contour>
      <point x="497" y="97" type="curve"/>
      <point x="479" y="97" type="line"/>
      <point x="470" y="53"/>
      <point x="460" y="40"/>
      <point x="442" y="40" type="curve" smooth="yes"/>
      <point x="424" y="40"/>
      <point x="411" y="42"/>
      <point x="411" y="123" type="curve" smooth="yes"/>
      <point x="411" y="433" type="line"/>
      <point x="327" y="433" type="line"/>
      <point x="327" y="108" type="line"/>
      <point x="291" y="67"/>
      <point x="264" y="45"/>
      <point x="229" y="45" type="curve" smooth="yes"/>
      <point x="200" y="45"/>
      <point x="180" y="65"/>
      <point x="172" y="88" type="curve" smooth="yes"/>
      <point x="167" y="104"/>
      <point x="164" y="132"/>
      <point x="164" y="177" type="curve" smooth="yes"/>
      <point x="164" y="433" type="line"/>
      <point x="80" y="433" type="line"/>
      <point x="80" y="90" type="line" smooth="yes"/>
      <point x="80" y="-81"/>
      <point x="52" y="-93"/>
      <point x="52" y="-150" type="curve" smooth="yes"/>
      <point x="52" y="-179"/>
      <point x="71" y="-199"/>
      <point x="91" y="-199" type="curve" smooth="yes"/>
      <point x="114" y="-199"/>
      <point x="134" y="-178"/>
      <point x="134" y="-148" type="curve" smooth="yes"/>
      <point x="134" y="-111"/>
      <point x="113" y="-50"/>
      <point x="113" y="7" type="curve" smooth="yes"/>
      <point x="113" y="29" type="line"/>
      <point x="135" y="-8"/>
      <point x="180" y="-10"/>
      <point x="193" y="-10" type="curve" smooth="yes"/>
      <point x="241" y="-10"/>
      <point x="276" y="17"/>
      <point x="327" y="76" type="curve"/>
      <point x="336" y="8"/>
      <point x="370" y="-10"/>
      <point x="406" y="-10" type="curve" smooth="yes"/>
      <point x="453" y="-10"/>
      <point x="492" y="19"/>
    </contour>
  </outline>
</glyph>
<glyph name="paragraph" format="2">
  <advance width="529"/>
  <unicode hex="00B6"/>
  <outline>
    <contour>
      <point x="467" y="553" type="curve"/>
      <point x="467" y="553"/>
      <point x="283" y="566"/>
      <point x="232" y="566" type="curve" smooth="yes"/>
      <point x="102" y="566"/>
      <point x="17" y="496"/>
      <point x="17" y="396" type="curve" smooth="yes"/>
      <point x="17" y="286"/>
      <point x="110" y="228"/>
      <point x="230" y="228" type="curve" smooth="yes"/>
      <point x="289" y="228"/>
      <point x="306" y="245"/>
      <point x="306" y="245" type="curve"/>
      <point x="302" y="278" type="line"/>
      <point x="302" y="278"/>
      <point x="287" y="274"/>
      <point x="249" y="274" type="curve" smooth="yes"/>
      <point x="157" y="274"/>
      <point x="118" y="348"/>
      <point x="118" y="412" type="curve" smooth="yes"/>
      <point x="118" y="477"/>
      <point x="173" y="521"/>
      <point x="234" y="521" type="curve" smooth="yes"/>
      <point x="266" y="521"/>
      <point x="344" y="516"/>
      <point x="401" y="495" type="curve"/>
      <point x="405" y="490"/>
      <point x="467" y="553"/>
    </contour>
    <contour>
      <point x="206" y="-109" type="line"/>
      <point x="496" y="-109" type="line"/>
      <point x="496" y="-82" type="line"/>
      <point x="454" y="-73"/>
      <point x="434" y="-62"/>
      <point x="434" y="-54" type="curve" smooth="yes"/>
      <point x="434" y="498" type="line" smooth="yes"/>
      <point x="434" y="507"/>
      <point x="457" y="517"/>
      <point x="496" y="526" type="curve"/>
      <point x="496" y="553" type="line"/>
      <point x="205" y="553" type="line"/>
      <point x="205" y="526" type="line"/>
      <point x="247" y="517"/>
      <point x="269" y="534"/>
      <point x="269" y="527" type="curve" smooth="yes"/>
      <point x="268" y="-54" type="line" smooth="yes"/>
      <point x="268" y="-63"/>
      <point x="246" y="-73"/>
      <point x="206" y="-82" type="curve"/>
    </contour>
    <contour>
      <point x="369" y="520" type="line"/>
      <point x="369" y="-54" type="line"/>
      <point x="369" y="-61"/>
      <point x="358" y="-66"/>
      <point x="351" y="-68" type="curve"/>
      <point x="346" y="-66"/>
      <point x="334" y="-61"/>
      <point x="334" y="-54" type="curve" smooth="yes"/>
      <point x="334" y="528" type="line"/>
    </contour>
  </outline>
</glyph>
<glyph name="onesuperior" format="2">
  <advance width="329"/>
  <unicode hex="00B9"/>
  <anchor x="152" y="725" name="U"/>
  <outline>
    <contour>
      <point x="261" y="344" type="line"/>
      <point x="261" y="369" type="line"/>
      <point x="206" y="370" type="line" smooth="yes"/>
      <point x="199" y="370"/>
      <point x="192" y="376"/>
      <point x="192" y="382" type="curve" smooth="yes"/>
      <point x="192" y="712" type="line"/>
      <point x="170" y="712" type="line"/>
      <point x="43" y="676" type="line"/>
      <point x="43" y="653" type="line"/>
      <point x="134" y="667" type="line"/>
      <point x="134" y="382" type="line" smooth="yes"/>
      <point x="134" y="376"/>
      <point x="129" y="370"/>
      <point x="122" y="370" type="curve" smooth="yes"/>
      <point x="62" y="369" type="line"/>
      <point x="62" y="344" type="line"/>
    </contour>
  </outline>
</glyph>
<glyph name="ordmasculine" format="2">
  <advance width="322"/>
  <unicode hex="00BA"/>
  <outline>
    <contour>
      <point x="300" y="474" type="curve" smooth="yes"/>
      <point x="300" y="549"/>
      <point x="250" y="611"/>
      <point x="163" y="611" type="curve" smooth="yes"/>
      <point x="75" y="611"/>
      <point x="21" y="551"/>
      <point x="21" y="474" type="curve" smooth="yes"/>
      <point x="21" y="395"/>
      <point x="75" y="338"/>
      <point x="161" y="338" type="curve" smooth="yes"/>
      <point x="246" y="338"/>
      <point x="300" y="397"/>
    </contour>
    <contour>
      <point x="298" y="273" type="line"/>
      <point x="298" y="300" type="line"/>
      <point x="24" y="300" type="line"/>
      <point x="24" y="273" type="line"/>
    </contour>
    <contour>
      <point x="240" y="474" type="curve" smooth="yes"/>
      <point x="240" y="415"/>
      <point x="214" y="362"/>
      <point x="161" y="362" type="curve" smooth="yes"/>
      <point x="108" y="362"/>
      <point x="83" y="416"/>
      <point x="83" y="474" type="curve" smooth="yes"/>
      <point x="83" y="533"/>
      <point x="108" y="586"/>
      <point x="162" y="586" type="curve" smooth="yes"/>
      <point x="214" y="586"/>
      <point x="240" y="533"/>
    </contour>
  </outline>
</glyph>
<glyph name="guillemetright" format="2">
  <advance width="397"/>
  <unicode hex="00BB"/>
  <outline>
    <contour>
      <point x="228" y="433" type="line"/>
      <point x="184" y="433" type="line"/>
      <point x="296" y="217" type="line"/>
      <point x="184" y="0" type="line"/>
      <point x="228" y="0" type="line"/>
      <point x="373" y="194" type="line"/>
      <point x="373" y="239" type="line"/>
    </contour>
    <contour>
      <point x="61" y="433" type="line"/>
      <point x="17" y="433" type="line"/>
      <point x="129" y="217" type="line"/>
      <point x="17" y="0" type="line"/>
      <point x="61" y="0" type="line"/>
      <point x="206" y="194" type="line"/>
      <point x="206" y="239" type="line"/>
    </contour>
  </outline>
</glyph>
<glyph name="onequarter" format="2">
  <advance width="787"/>
  <unicode hex="00BC"/>
  <outline>
    <contour>
      <point x="744" y="102" type="line"/>
      <point x="744" y="139" type="line"/>
      <point x="677" y="139" type="line"/>
      <point x="677" y="365" type="line"/>
      <point x="638" y="365" type="line"/>
      <point x="439" y="140" type="line"/>
      <point x="439" y="102" type="line"/>
      <point x="627" y="102" type="line"/>
      <point x="627" y="-18" type="line"/>
      <point x="677" y="-18" type="line"/>
      <point x="677" y="102" type="line"/>
    </contour>
    <contour>
      <point x="620" y="628" type="line"/>
      <point x="564" y="628" type="line"/>
      <point x="164" y="0" type="line"/>
      <point x="222" y="0" type="line"/>
    </contour>
    <contour>
      <point x="260" y="265" type="line"/>
      <point x="260" y="289" type="line"/>
      <point x="205" y="291" type="line"/>
      <point x="198" y="292"/>
      <point x="191" y="297"/>
      <point x="191" y="303" type="curve" smooth="yes"/>
      <point x="191" y="634" type="line"/>
      <point x="170" y="634" type="line"/>
      <point x="43" y="598" type="line"/>
      <point x="43" y="574" type="line"/>
      <point x="134" y="588" type="line"/>
      <point x="134" y="303" type="line" smooth="yes"/>
      <point x="134" y="297"/>
      <point x="128" y="292"/>
      <point x="121" y="291" type="curve"/>
      <point x="61" y="289" type="line"/>
      <point x="61" y="265" type="line"/>
    </contour>
    <contour>
      <point x="627" y="139" type="line"/>
      <point x="486" y="139" type="line"/>
      <point x="627" y="302" type="line"/>
    </contour>
  </outline>
</glyph>
<glyph name="onehalf" format="2">
  <advance width="787"/>
  <unicode hex="00BD"/>
  <outline>
    <contour>
      <point x="747" y="0" type="line"/>
      <point x="747" y="92" type="line"/>
      <point x="717" y="92" type="line"/>
      <point x="707" y="45" type="line"/>
      <point x="534" y="45" type="line"/>
      <point x="639" y="122"/>
      <point x="733" y="188"/>
      <point x="733" y="265" type="curve" smooth="yes"/>
      <point x="733" y="328"/>
      <point x="685" y="369"/>
      <point x="610" y="369" type="curve" smooth="yes"/>
      <point x="541" y="369"/>
      <point x="483" y="336"/>
      <point x="483" y="290" type="curve" smooth="yes"/>
      <point x="483" y="268"/>
      <point x="500" y="259"/>
      <point x="518" y="259" type="curve" smooth="yes"/>
      <point x="536" y="259"/>
      <point x="547" y="268"/>
      <point x="547" y="268" type="curve"/>
      <point x="547" y="327" type="line"/>
      <point x="549" y="328"/>
      <point x="567" y="339"/>
      <point x="595" y="339" type="curve" smooth="yes"/>
      <point x="639" y="339"/>
      <point x="671" y="313"/>
      <point x="671" y="261" type="curve" smooth="yes"/>
      <point x="671" y="185"/>
      <point x="591" y="127"/>
      <point x="472" y="36" type="curve"/>
      <point x="472" y="0" type="line"/>
    </contour>
    <contour>
      <point x="614" y="628" type="line"/>
      <point x="558" y="628" type="line"/>
      <point x="158" y="0" type="line"/>
      <point x="214" y="0" type="line"/>
    </contour>
    <contour>
      <point x="258" y="265" type="line"/>
      <point x="258" y="289" type="line"/>
      <point x="203" y="291" type="line"/>
      <point x="195" y="292"/>
      <point x="189" y="297"/>
      <point x="189" y="303" type="curve" smooth="yes"/>
      <point x="189" y="634" type="line"/>
      <point x="168" y="634" type="line"/>
      <point x="41" y="598" type="line"/>
      <point x="41" y="574" type="line"/>
      <point x="132" y="588" type="line"/>
      <point x="132" y="303" type="line" smooth="yes"/>
      <point x="132" y="297"/>
      <point x="127" y="292"/>
      <point x="119" y="291" type="curve"/>
      <point x="60" y="289" type="line"/>
      <point x="60" y="265" type="line"/>
    </contour>
  </outline>
</glyph>
<glyph name="threequarters" format="2">
  <advance width="787"/>
  <unicode hex="00BE"/>
  <outline>
    <contour>
      <point x="754" y="102" type="line"/>
      <point x="754" y="139" type="line"/>
      <point x="687" y="139" type="line"/>
      <point x="687" y="365" type="line"/>
      <point x="648" y="365" type="line"/>
      <point x="450" y="140" type="line"/>
      <point x="450" y="102" type="line"/>
      <point x="637" y="102" type="line"/>
      <point x="637" y="-18" type="line"/>
      <point x="687" y="-18" type="line"/>
      <point x="687" y="102" type="line"/>
    </contour>
    <contour>
      <point x="631" y="628" type="line"/>
      <point x="574" y="628" type="line"/>
      <point x="174" y="0" type="line"/>
      <point x="231" y="0" type="line"/>
    </contour>
    <contour>
      <point x="301" y="370" type="curve" smooth="yes"/>
      <point x="301" y="430"/>
      <point x="246" y="455"/>
      <point x="197" y="457" type="curve"/>
      <point x="254" y="472"/>
      <point x="286" y="503"/>
      <point x="286" y="543" type="curve" smooth="yes"/>
      <point x="286" y="601"/>
      <point x="236" y="635"/>
      <point x="169" y="635" type="curve" smooth="yes"/>
      <point x="98" y="635"/>
      <point x="43" y="603"/>
      <point x="43" y="562" type="curve" smooth="yes"/>
      <point x="43" y="539"/>
      <point x="63" y="531"/>
      <point x="77" y="531" type="curve" smooth="yes"/>
      <point x="91" y="531"/>
      <point x="101" y="538"/>
      <point x="103" y="539" type="curve"/>
      <point x="103" y="593" type="line"/>
      <point x="103" y="593"/>
      <point x="122" y="605"/>
      <point x="153" y="605" type="curve" smooth="yes"/>
      <point x="193" y="605"/>
      <point x="227" y="582"/>
      <point x="227" y="537" type="curve" smooth="yes"/>
      <point x="227" y="489"/>
      <point x="188" y="468"/>
      <point x="139" y="468" type="curve" smooth="yes"/>
      <point x="134" y="468"/>
      <point x="126" y="468"/>
      <point x="124" y="468" type="curve"/>
      <point x="124" y="435" type="line"/>
      <point x="124" y="435"/>
      <point x="136" y="437"/>
      <point x="157" y="437" type="curve" smooth="yes"/>
      <point x="195" y="437"/>
      <point x="242" y="423"/>
      <point x="242" y="370" type="curve" smooth="yes"/>
      <point x="242" y="327"/>
      <point x="207" y="287"/>
      <point x="153" y="287" type="curve" smooth="yes"/>
      <point x="134" y="287"/>
      <point x="121" y="291"/>
      <point x="106" y="299" type="curve"/>
      <point x="88" y="347" type="line"/>
      <point x="83" y="350"/>
      <point x="72" y="352"/>
      <point x="68" y="352" type="curve" smooth="yes"/>
      <point x="44" y="352"/>
      <point x="34" y="335"/>
      <point x="34" y="321" type="curve" smooth="yes"/>
      <point x="34" y="295"/>
      <point x="72" y="261"/>
      <point x="152" y="261" type="curve" smooth="yes"/>
      <point x="236" y="261"/>
      <point x="301" y="304"/>
    </contour>
    <contour>
      <point x="637" y="139" type="line"/>
      <point x="496" y="139" type="line"/>
      <point x="637" y="302" type="line"/>
    </contour>
  </outline>
</glyph>
<glyph name="questiondown" format="2">
  <advance width="437"/>
  <unicode hex="00BF"/>
  <outline>
    <contour>
      <point x="312" y="388" type="curve" smooth="yes"/>
      <point x="312" y="419"/>
      <point x="287" y="444"/>
      <point x="257" y="444" type="curve" smooth="yes"/>
      <point x="226" y="444"/>
      <point x="201" y="420"/>
      <point x="201" y="389" type="curve" smooth="yes"/>
      <point x="201" y="359"/>
      <point x="225" y="333"/>
      <point x="257" y="333" type="curve" smooth="yes"/>
      <point x="287" y="333"/>
      <point x="312" y="358"/>
    </contour>
    <contour>
      <point x="392" y="-96" type="curve" smooth="yes"/>
      <point x="392" y="-61"/>
      <point x="366" y="-46"/>
      <point x="333" y="-46" type="curve" smooth="yes"/>
      <point x="332" y="-46"/>
      <point x="318" y="-48"/>
      <point x="318" y="-48" type="curve"/>
      <point x="281" y="-139" type="line"/>
      <point x="199" y="-139"/>
      <point x="152" y="-99"/>
      <point x="152" y="-16" type="curve" smooth="yes"/>
      <point x="152" y="72"/>
      <point x="226" y="123"/>
      <point x="283" y="142" type="curve"/>
      <point x="283" y="272" type="line"/>
      <point x="232" y="272" type="line"/>
      <point x="232" y="171" type="line"/>
      <point x="163" y="141"/>
      <point x="61" y="90"/>
      <point x="61" y="-23" type="curve" smooth="yes"/>
      <point x="61" y="-121"/>
      <point x="143" y="-184"/>
      <point x="249" y="-184" type="curve" smooth="yes"/>
      <point x="347" y="-184"/>
      <point x="392" y="-138"/>
    </contour>
  </outline>
</glyph>
<glyph name="AE" format="2">
  <advance width="839"/>
  <unicode hex="00C6"/>
  <anchor x="483" y="659" name="U"/>
  <outline>
    <contour>
      <point x="810" y="0" type="line"/>
      <point x="810" y="150" type="line"/>
      <point x="759" y="150" type="line"/>
      <point x="746" y="61" type="line" smooth="yes"/>
      <point x="745" y="54"/>
      <point x="736" y="43"/>
      <point x="729" y="43" type="curve" smooth="yes"/>
      <point x="523" y="43" type="line"/>
      <point x="523" y="291" type="line"/>
      <point x="637" y="291" type="line" smooth="yes"/>
      <point x="644" y="291"/>
      <point x="652" y="282"/>
      <point x="653" y="276" type="curve" smooth="yes"/>
      <point x="661" y="213" type="line"/>
      <point x="705" y="213" type="line"/>
      <point x="705" y="413" type="line"/>
      <point x="661" y="413" type="line"/>
      <point x="653" y="352" type="line" smooth="yes"/>
      <point x="652" y="345"/>
      <point x="645" y="335"/>
      <point x="637" y="335" type="curve" smooth="yes"/>
      <point x="523" y="336" type="line"/>
      <point x="523" y="560" type="line"/>
      <point x="698" y="560" type="line" smooth="yes"/>
      <point x="706" y="560"/>
      <point x="711" y="552"/>
      <point x="713" y="543" type="curve" smooth="yes"/>
      <point x="726" y="469" type="line"/>
      <point x="778" y="469" type="line"/>
      <point x="778" y="603" type="line"/>
      <point x="301" y="603" type="line"/>
      <point x="301" y="566" type="line"/>
      <point x="345" y="561" type="line" smooth="yes"/>
      <point x="353" y="560"/>
      <point x="363" y="551"/>
      <point x="358" y="542" type="curve" smooth="yes"/>
      <point x="52" y="45" type="line"/>
      <point x="4" y="38" type="line"/>
      <point x="4" y="0" type="line"/>
      <point x="181" y="0" type="line"/>
      <point x="181" y="38" type="line"/>
      <point x="130" y="43" type="line" smooth="yes"/>
      <point x="122" y="43"/>
      <point x="117" y="52"/>
      <point x="124" y="61" type="curve" smooth="yes"/>
      <point x="225" y="225" type="line"/>
      <point x="432" y="225" type="line"/>
      <point x="432" y="61" type="line" smooth="yes"/>
      <point x="432" y="54"/>
      <point x="422" y="43"/>
      <point x="409" y="42" type="curve" smooth="yes"/>
      <point x="365" y="38" type="line"/>
      <point x="365" y="0" type="line"/>
    </contour>
    <contour>
      <point x="432" y="268" type="line"/>
      <point x="250" y="268" type="line"/>
      <point x="432" y="562" type="line"/>
    </contour>
  </outline>
</glyph>
<glyph name="Eth" format="2">
  <advance width="626"/>
  <unicode hex="00D0"/>
  <outline>
    <component base="D"/>
    <contour>
      <point x="12" y="293" type="line"/>
      <point x="329" y="293" type="line"/>
      <point x="329" y="339" type="line"/>
      <point x="12" y="339" type="line"/>
    </contour>
  </outline>
</glyph>
<glyph name="Oslash" format="2">
  <advance width="657"/>
  <unicode hex="00D8"/>
  <anchor x="328" y="659" name="U"/>
  <outline>
    <contour>
      <point x="622" y="301" type="curve" smooth="yes"/>
      <point x="622" y="408"/>
      <point x="579" y="503"/>
      <point x="504" y="560" type="curve"/>
      <point x="523" y="592"/>
      <point x="541" y="621"/>
      <point x="557" y="648" type="curve"/>
      <point x="514" y="673" type="line"/>
      <point x="463" y="586" type="line"/>
      <point x="424" y="606"/>
      <point x="378" y="618"/>
      <point x="328" y="618" type="curve" smooth="yes"/>
      <point x="149" y="618"/>
      <point x="35" y="477"/>
      <point x="35" y="302" type="curve" smooth="yes"/>
      <point x="35" y="197"/>
      <point x="75" y="106"/>
      <point x="144" y="49" type="curve"/>
      <point x="87" y="-45" type="line"/>
      <point x="128" y="-71" type="line"/>
      <point x="147" y="-40"/>
      <point x="165" y="-10"/>
      <point x="184" y="21" type="curve"/>
      <point x="225" y="-1"/>
      <point x="275" y="-14"/>
      <point x="329" y="-14" type="curve" smooth="yes"/>
      <point x="505" y="-14"/>
      <point x="622" y="127"/>
    </contour>
    <contour>
      <point x="518" y="300" type="curve" smooth="yes"/>
      <point x="518" y="158"/>
      <point x="457" y="35"/>
      <point x="327" y="35" type="curve" smooth="yes"/>
      <point x="282" y="35"/>
      <point x="246" y="50"/>
      <point x="217" y="76" type="curve"/>
      <point x="306" y="226"/>
      <point x="395" y="374"/>
      <point x="467" y="495" type="curve"/>
      <point x="501" y="447"/>
      <point x="518" y="377"/>
    </contour>
    <contour>
      <point x="431" y="532" type="curve"/>
      <point x="184" y="116" type="line"/>
      <point x="153" y="165"/>
      <point x="138" y="231"/>
      <point x="138" y="302" type="curve" smooth="yes"/>
      <point x="138" y="445"/>
      <point x="199" y="566"/>
      <point x="329" y="566" type="curve" smooth="yes"/>
      <point x="370" y="566"/>
      <point x="404" y="554"/>
    </contour>
  </outline>
</glyph>
<glyph name="Thorn" format="2">
  <advance width="520"/>
  <unicode hex="00DE"/>
  <anchor x="257" y="659" name="U"/>
  <outline>
    <contour>
      <point x="485" y="311" type="curve" smooth="yes"/>
      <point x="485" y="438"/>
      <point x="411" y="487"/>
      <point x="247" y="490" type="curve" smooth="yes"/>
      <point x="186" y="491" type="line"/>
      <point x="186" y="541" type="line" smooth="yes"/>
      <point x="186" y="552"/>
      <point x="195" y="560"/>
      <point x="206" y="561" type="curve" smooth="yes"/>
      <point x="258" y="565" type="line"/>
      <point x="258" y="603" type="line"/>
      <point x="29" y="603" type="line"/>
      <point x="29" y="565" type="line"/>
      <point x="74" y="561" type="line" smooth="yes"/>
      <point x="85" y="560"/>
      <point x="94" y="552"/>
      <point x="94" y="541" type="curve" smooth="yes"/>
      <point x="94" y="61" type="line" smooth="yes"/>
      <point x="94" y="51"/>
      <point x="85" y="43"/>
      <point x="74" y="42" type="curve" smooth="yes"/>
      <point x="29" y="38" type="line"/>
      <point x="29" y="0" type="line"/>
      <point x="258" y="0" type="line"/>
      <point x="258" y="38" type="line"/>
      <point x="206" y="42" type="line" smooth="yes"/>
      <point x="195" y="43"/>
      <point x="186" y="51"/>
      <point x="186" y="61" type="curve" smooth="yes"/>
      <point x="186" y="123" type="line"/>
      <point x="186" y="123"/>
      <point x="225" y="118"/>
      <point x="250" y="118" type="curve" smooth="yes"/>
      <point x="388" y="117"/>
      <point x="485" y="186"/>
    </contour>
    <contour>
      <point x="382" y="311" type="curve" smooth="yes"/>
      <point x="382" y="209"/>
      <point x="334" y="163"/>
      <point x="238" y="164" type="curve" smooth="yes"/>
      <point x="221" y="164"/>
      <point x="186" y="168"/>
      <point x="186" y="168" type="curve"/>
      <point x="186" y="446" type="line"/>
      <point x="186" y="446"/>
      <point x="225" y="450"/>
      <point x="228" y="448" type="curve"/>
      <point x="344" y="452"/>
      <point x="382" y="401"/>
    </contour>
  </outline>
</glyph>
<glyph name="germandbls" format="2">
  <advance width="565"/>
  <unicode hex="00DF"/>
  <anchor x="277" y="676" name="U"/>
  <outline>
    <contour>
      <point x="534" y="134" type="curve" smooth="yes"/>
      <point x="534" y="263"/>
      <point x="346" y="265"/>
      <point x="346" y="353" type="curve" smooth="yes"/>
      <point x="346" y="389"/>
      <point x="369" y="422"/>
      <point x="430" y="422" type="curve" smooth="yes"/>
      <point x="442" y="422"/>
      <point x="448" y="420"/>
      <point x="450" y="420" type="curve"/>
      <point x="450" y="424"/>
      <point x="465" y="469"/>
      <point x="465" y="513" type="curve" smooth="yes"/>
      <point x="465" y="604"/>
      <point x="411" y="663"/>
      <point x="307" y="663" type="curve" smooth="yes"/>
      <point x="149" y="663"/>
      <point x="80" y="531"/>
      <point x="80" y="407" type="curve" smooth="yes"/>
      <point x="80" y="59" type="line" smooth="yes"/>
      <point x="80" y="51"/>
      <point x="73" y="39"/>
      <point x="62" y="38" type="curve" smooth="yes"/>
      <point x="19" y="34" type="line"/>
      <point x="19" y="0" type="line"/>
      <point x="224" y="0" type="line"/>
      <point x="224" y="34" type="line"/>
      <point x="178" y="37" type="line" smooth="yes"/>
      <point x="171" y="38"/>
      <point x="164" y="45"/>
      <point x="164" y="59" type="curve" smooth="yes"/>
      <point x="164" y="416" type="line" smooth="yes"/>
      <point x="164" y="480"/>
      <point x="180" y="618"/>
      <point x="291" y="618" type="curve" smooth="yes"/>
      <point x="353" y="618"/>
      <point x="382" y="567"/>
      <point x="382" y="513" type="curve" smooth="yes"/>
      <point x="382" y="489"/>
      <point x="374" y="449"/>
      <point x="374" y="449" type="curve"/>
      <point x="312" y="435"/>
      <point x="265" y="390"/>
      <point x="265" y="325" type="curve" smooth="yes"/>
      <point x="265" y="210"/>
      <point x="457" y="207"/>
      <point x="457" y="108" type="curve" smooth="yes"/>
      <point x="457" y="68"/>
      <point x="427" y="31"/>
      <point x="382" y="31" type="curve" smooth="yes"/>
      <point x="357" y="31"/>
      <point x="338" y="44"/>
      <point x="328" y="54" type="curve"/>
      <point x="320" y="132" type="line"/>
      <point x="271" y="132" type="line"/>
      <point x="271" y="11" type="line"/>
      <point x="271" y="11"/>
      <point x="336" y="-10"/>
      <point x="377" y="-10" type="curve" smooth="yes"/>
      <point x="463" y="-10"/>
      <point x="534" y="45"/>
    </contour>
  </outline>
</glyph>
<glyph name="ae" format="2">
  <advance width="649"/>
  <unicode hex="00E6"/>
  <anchor x="338" y="0" name="H"/>
  <anchor x="338" y="483" name="U"/>
  <outline>
    <contour>
      <point x="618" y="44" type="curve"/>
      <point x="618" y="98" type="line"/>
      <point x="585" y="72"/>
      <point x="551" y="49"/>
      <point x="497" y="49" type="curve" smooth="yes"/>
      <point x="433" y="49"/>
      <point x="393" y="84"/>
      <point x="367" y="110" type="curve"/>
      <point x="367" y="230" type="line"/>
      <point x="616" y="230" type="line"/>
      <point x="616" y="230"/>
      <point x="618" y="251"/>
      <point x="618" y="261" type="curve" smooth="yes"/>
      <point x="618" y="358"/>
      <point x="576" y="444"/>
      <point x="468" y="444" type="curve" smooth="yes"/>
      <point x="399" y="444"/>
      <point x="361" y="408"/>
      <point x="347" y="391" type="curve"/>
      <point x="333" y="411"/>
      <point x="312" y="444"/>
      <point x="227" y="444" type="curve" smooth="yes"/>
      <point x="145" y="444"/>
      <point x="51" y="412"/>
      <point x="51" y="338" type="curve" smooth="yes"/>
      <point x="51" y="317"/>
      <point x="61" y="312"/>
      <point x="85" y="312" type="curve" smooth="yes"/>
      <point x="85" y="312"/>
      <point x="140" y="312"/>
      <point x="148" y="312" type="curve"/>
      <point x="148" y="390" type="line"/>
      <point x="157" y="394"/>
      <point x="176" y="402"/>
      <point x="205" y="402" type="curve" smooth="yes"/>
      <point x="265" y="402"/>
      <point x="283" y="370"/>
      <point x="283" y="311" type="curve" smooth="yes"/>
      <point x="283" y="274" type="line"/>
      <point x="100" y="227"/>
      <point x="30" y="202"/>
      <point x="30" y="107" type="curve" smooth="yes"/>
      <point x="30" y="40"/>
      <point x="71" y="-10"/>
      <point x="146" y="-10" type="curve" smooth="yes"/>
      <point x="225" y="-10"/>
      <point x="304" y="57"/>
      <point x="304" y="57" type="curve"/>
      <point x="304" y="57"/>
      <point x="364" y="-10"/>
      <point x="468" y="-10" type="curve" smooth="yes"/>
      <point x="540" y="-10"/>
      <point x="592" y="25"/>
    </contour>
    <contour>
      <point x="529" y="268" type="line"/>
      <point x="367" y="268" type="line"/>
      <point x="367" y="333"/>
      <point x="386" y="402"/>
      <point x="452" y="402" type="curve" smooth="yes"/>
      <point x="505" y="402"/>
      <point x="529" y="350"/>
      <point x="529" y="296" type="curve" smooth="yes"/>
    </contour>
    <contour>
      <point x="283" y="84" type="line"/>
      <point x="283" y="84"/>
      <point x="227" y="43"/>
      <point x="185" y="43" type="curve" smooth="yes"/>
      <point x="138" y="43"/>
      <point x="116" y="79"/>
      <point x="116" y="119" type="curve" smooth="yes"/>
      <point x="116" y="173"/>
      <point x="151" y="204"/>
      <point x="283" y="240" type="curve"/>
    </contour>
  </outline>
</glyph>
<glyph name="eth" format="2">
  <advance width="485"/>
  <unicode hex="00F0"/>
  <anchor x="242" y="676" name="U"/>
  <outline>
    <contour>
      <point x="454" y="243" type="curve" smooth="yes"/>
      <point x="454" y="393"/>
      <point x="335" y="527"/>
      <point x="304" y="563" type="curve"/>
      <point x="395" y="619" type="line"/>
      <point x="375" y="655" type="line"/>
      <point x="277" y="596" type="line"/>
      <point x="212" y="663" type="line"/>
      <point x="101" y="630" type="line"/>
      <point x="101" y="604" type="line"/>
      <point x="177" y="595" type="line"/>
      <point x="208" y="558" type="line"/>
      <point x="105" y="496" type="line"/>
      <point x="125" y="460" type="line"/>
      <point x="239" y="529" type="line"/>
      <point x="242" y="526"/>
      <point x="290" y="463"/>
      <point x="308" y="431" type="curve"/>
      <point x="307" y="431"/>
      <point x="273" y="444"/>
      <point x="248" y="444" type="curve" smooth="yes"/>
      <point x="124" y="444"/>
      <point x="30" y="352"/>
      <point x="30" y="219" type="curve" smooth="yes"/>
      <point x="30" y="85"/>
      <point x="115" y="-10"/>
      <point x="243" y="-10" type="curve" smooth="yes"/>
      <point x="366" y="-10"/>
      <point x="454" y="89"/>
    </contour>
    <contour>
      <point x="367" y="225" type="curve" smooth="yes"/>
      <point x="367" y="130"/>
      <point x="333" y="29"/>
      <point x="245" y="29" type="curve" smooth="yes"/>
      <point x="158" y="29"/>
      <point x="124" y="123"/>
      <point x="124" y="218" type="curve" smooth="yes"/>
      <point x="124" y="322"/>
      <point x="168" y="405"/>
      <point x="263" y="405" type="curve" smooth="yes"/>
      <point x="291" y="405"/>
      <point x="332" y="387"/>
      <point x="332" y="387" type="curve"/>
      <point x="354" y="350"/>
      <point x="367" y="297"/>
    </contour>
  </outline>
</glyph>
<glyph name="divide" format="2">
  <advance width="375"/>
  <unicode hex="00F7"/>
  <outline>
    <contour>
      <point x="351" y="263" type="curve"/>
      <point x="338" y="276" type="line"/>
      <point x="42" y="276" type="line"/>
      <point x="37" y="264"/>
      <point x="27" y="243"/>
      <point x="24" y="230" type="curve"/>
      <point x="37" y="217" type="line"/>
      <point x="333" y="217" type="line"/>
      <point x="337" y="227"/>
      <point x="348" y="251"/>
    </contour>
    <contour>
      <point x="230" y="367" type="curve"/>
      <point x="230" y="393"/>
      <point x="219" y="407"/>
      <point x="195" y="407" type="curve" smooth="yes"/>
      <point x="168" y="407"/>
      <point x="146" y="382"/>
      <point x="146" y="350" type="curve" smooth="yes"/>
      <point x="146" y="324"/>
      <point x="157" y="310"/>
      <point x="182" y="310" type="curve" smooth="yes"/>
      <point x="209" y="310"/>
      <point x="230" y="336"/>
    </contour>
    <contour>
      <point x="230" y="144" type="curve"/>
      <point x="230" y="171"/>
      <point x="219" y="184"/>
      <point x="195" y="184" type="curve" smooth="yes"/>
      <point x="168" y="184"/>
      <point x="146" y="159"/>
      <point x="146" y="127" type="curve" smooth="yes"/>
      <point x="146" y="101"/>
      <point x="157" y="87"/>
      <point x="182" y="87" type="curve" smooth="yes"/>
      <point x="209" y="87"/>
      <point x="230" y="113"/>
    </contour>
  </outline>
</glyph>
<glyph name="oslash" format="2">
  <advance width="489"/>
  <unicode hex="00F8"/>
  <outline>
    <contour>
      <point x="458" y="216" type="curve" smooth="yes"/>
      <point x="458" y="297"/>
      <point x="426" y="368"/>
      <point x="368" y="408" type="curve"/>
      <point x="413" y="486" type="line"/>
      <point x="380" y="504" type="line"/>
      <point x="335" y="426" type="line"/>
      <point x="309" y="438"/>
      <point x="279" y="444"/>
      <point x="246" y="444" type="curve" smooth="yes"/>
      <point x="113" y="444"/>
      <point x="30" y="344"/>
      <point x="30" y="216" type="curve" smooth="yes"/>
      <point x="30" y="139"/>
      <point x="59" y="73"/>
      <point x="110" y="33" type="curve"/>
      <point x="60" y="-54" type="line"/>
      <point x="91" y="-73" type="line"/>
      <point x="141" y="13" type="line"/>
      <point x="170" y="-1"/>
      <point x="205" y="-10"/>
      <point x="243" y="-10" type="curve" smooth="yes"/>
      <point x="375" y="-10"/>
      <point x="458" y="88"/>
    </contour>
    <contour>
      <point x="309" y="380" type="curve"/>
      <point x="148" y="98" type="line"/>
      <point x="133" y="132"/>
      <point x="125" y="173"/>
      <point x="125" y="217" type="curve" smooth="yes"/>
      <point x="125" y="315"/>
      <point x="162" y="404"/>
      <point x="245" y="404" type="curve" smooth="yes"/>
      <point x="270" y="404"/>
      <point x="292" y="395"/>
    </contour>
    <contour>
      <point x="365" y="217" type="curve" smooth="yes"/>
      <point x="365" y="118"/>
      <point x="327" y="29"/>
      <point x="244" y="29" type="curve" smooth="yes"/>
      <point x="214" y="29"/>
      <point x="189" y="43"/>
      <point x="170" y="63" type="curve"/>
      <point x="334" y="350" type="line"/>
      <point x="355" y="315"/>
      <point x="365" y="267"/>
    </contour>
  </outline>
</glyph>
<glyph name="thorn" format="2">
  <advance width="503"/>
  <unicode hex="00FE"/>
  <anchor x="245" y="676" name="U"/>
  <outline>
    <contour>
      <point x="472" y="223" type="curve" smooth="yes"/>
      <point x="472" y="357"/>
      <point x="393" y="444"/>
      <point x="300" y="444" type="curve" smooth="yes"/>
      <point x="230" y="444"/>
      <point x="164" y="388"/>
      <point x="164" y="388" type="curve"/>
      <point x="164" y="663" type="line"/>
      <point x="129" y="663" type="line"/>
      <point x="18" y="629" type="line"/>
      <point x="18" y="599" type="line"/>
      <point x="80" y="599" type="line"/>
      <point x="80" y="-136" type="line" smooth="yes"/>
      <point x="80" y="-147"/>
      <point x="72" y="-154"/>
      <point x="61" y="-155" type="curve" smooth="yes"/>
      <point x="18" y="-161" type="line"/>
      <point x="18" y="-195" type="line"/>
      <point x="237" y="-195" type="line"/>
      <point x="237" y="-161" type="line"/>
      <point x="184" y="-155" type="line" smooth="yes"/>
      <point x="173" y="-154"/>
      <point x="164" y="-147"/>
      <point x="164" y="-136" type="curve" smooth="yes"/>
      <point x="164" y="-2" type="line"/>
      <point x="164" y="-2"/>
      <point x="212" y="-10"/>
      <point x="244" y="-10" type="curve" smooth="yes"/>
      <point x="387" y="-10"/>
      <point x="472" y="81"/>
    </contour>
    <contour>
      <point x="382" y="210" type="curve" smooth="yes"/>
      <point x="382" y="116"/>
      <point x="336" y="30"/>
      <point x="237" y="30" type="curve" smooth="yes"/>
      <point x="200" y="30"/>
      <point x="164" y="44"/>
      <point x="164" y="44" type="curve"/>
      <point x="164" y="354" type="line"/>
      <point x="164" y="354"/>
      <point x="211" y="381"/>
      <point x="256" y="381" type="curve" smooth="yes"/>
      <point x="339" y="381"/>
      <point x="382" y="303"/>
    </contour>
  </outline>
</glyph>
<glyph name="dotlessi" format="2">
  <advance width="272"/>
  <unicode hex="0131"/>
  <anchor x="136" y="0" name="H"/>
  <anchor x="136" y="483" name="U"/>
  <outline>
    <contour>
      <point x="242" y="0" type="line"/>
      <point x="242" y="35" type="line"/>
      <point x="195" y="37" type="line" smooth="yes"/>
      <point x="185" y="38"/>
      <point x="177" y="46"/>
      <point x="177" y="57" type="curve" smooth="yes"/>
      <point x="177" y="444" type="line"/>
      <point x="141" y="444" type="line"/>
      <point x="31" y="410" type="line"/>
      <point x="31" y="378" type="line"/>
      <point x="93" y="378" type="line"/>
      <point x="93" y="57" type="line" smooth="yes"/>
      <point x="93" y="46"/>
      <point x="85" y="38"/>
      <point x="74" y="37" type="curve" smooth="yes"/>
      <point x="30" y="35" type="line"/>
      <point x="30" y="0" type="line"/>
    </contour>
  </outline>
</glyph>
<glyph name="OE" format="2">
  <advance width="899"/>
  <unicode hex="0152"/>
  <anchor x="452" y="659" name="U"/>
  <outline>
    <contour>
      <point x="870" y="0" type="line"/>
      <point x="870" y="150" type="line"/>
      <point x="821" y="150" type="line"/>
      <point x="806" y="61" type="line"/>
      <point x="804" y="54"/>
      <point x="796" y="43"/>
      <point x="789" y="43" type="curve" smooth="yes"/>
      <point x="561" y="43" type="line"/>
      <point x="561" y="291" type="line"/>
      <point x="696" y="291" type="line" smooth="yes"/>
      <point x="704" y="291"/>
      <point x="712" y="281"/>
      <point x="712" y="275" type="curve"/>
      <point x="721" y="213" type="line"/>
      <point x="767" y="213" type="line"/>
      <point x="767" y="413" type="line"/>
      <point x="721" y="413" type="line"/>
      <point x="712" y="352" type="line"/>
      <point x="712" y="345"/>
      <point x="704" y="336"/>
      <point x="696" y="336" type="curve" smooth="yes"/>
      <point x="561" y="336" type="line"/>
      <point x="561" y="560" type="line"/>
      <point x="756" y="560" type="line" smooth="yes"/>
      <point x="765" y="560"/>
      <point x="772" y="552"/>
      <point x="772" y="543" type="curve"/>
      <point x="786" y="469" type="line"/>
      <point x="840" y="469" type="line"/>
      <point x="840" y="603" type="line"/>
      <point x="469" y="603" type="line"/>
      <point x="469" y="554" type="line"/>
      <point x="428" y="595"/>
      <point x="370" y="618"/>
      <point x="297" y="618" type="curve" smooth="yes"/>
      <point x="118" y="618"/>
      <point x="35" y="477"/>
      <point x="35" y="302" type="curve" smooth="yes"/>
      <point x="35" y="121"/>
      <point x="122" y="-14"/>
      <point x="298" y="-14" type="curve" smooth="yes"/>
      <point x="370" y="-14"/>
      <point x="428" y="8"/>
      <point x="469" y="49" type="curve"/>
      <point x="469" y="0" type="line"/>
    </contour>
    <contour>
      <point x="457" y="300" type="curve" smooth="yes"/>
      <point x="457" y="158"/>
      <point x="426" y="35"/>
      <point x="297" y="35" type="curve" smooth="yes"/>
      <point x="169" y="35"/>
      <point x="138" y="158"/>
      <point x="138" y="302" type="curve" smooth="yes"/>
      <point x="138" y="445"/>
      <point x="168" y="566"/>
      <point x="298" y="566" type="curve" smooth="yes"/>
      <point x="424" y="566"/>
      <point x="457" y="447"/>
    </contour>
  </outline>
</glyph>
<glyph name="oe" format="2">
  <advance width="737"/>
  <unicode hex="0153"/>
  <outline>
    <contour>
      <point x="707" y="260" type="curve" smooth="yes"/>
      <point x="707" y="368"/>
      <point x="653" y="444"/>
      <point x="548" y="444" type="curve" smooth="yes"/>
      <point x="487" y="444"/>
      <point x="430" y="411"/>
      <point x="398" y="359" type="curve"/>
      <point x="376" y="400"/>
      <point x="320" y="444"/>
      <point x="236" y="444" type="curve" smooth="yes"/>
      <point x="106" y="444"/>
      <point x="30" y="341"/>
      <point x="30" y="217" type="curve" smooth="yes"/>
      <point x="30" y="93"/>
      <point x="105" y="-10"/>
      <point x="235" y="-10" type="curve" smooth="yes"/>
      <point x="313" y="-10"/>
      <point x="359" y="34"/>
      <point x="393" y="78" type="curve"/>
      <point x="423" y="35"/>
      <point x="471" y="-10"/>
      <point x="552" y="-10" type="curve" smooth="yes"/>
      <point x="617" y="-10"/>
      <point x="668" y="18"/>
      <point x="706" y="44" type="curve"/>
      <point x="706" y="99" type="line"/>
      <point x="675" y="76"/>
      <point x="631" y="49"/>
      <point x="582" y="49" type="curve" smooth="yes"/>
      <point x="472" y="49"/>
      <point x="435" y="145"/>
      <point x="435" y="235" type="curve"/>
      <point x="706" y="235" type="line"/>
      <point x="707" y="243"/>
      <point x="707" y="254"/>
    </contour>
    <contour>
      <point x="616" y="275" type="line"/>
      <point x="439" y="275" type="line"/>
      <point x="446" y="345"/>
      <point x="482" y="401"/>
      <point x="540" y="401" type="curve" smooth="yes"/>
      <point x="590" y="401"/>
      <point x="616" y="353"/>
      <point x="616" y="295" type="curve" smooth="yes"/>
    </contour>
    <contour>
      <point x="350" y="214" type="curve" smooth="yes"/>
      <point x="350" y="118"/>
      <point x="314" y="30"/>
      <point x="237" y="30" type="curve" smooth="yes"/>
      <point x="162" y="30"/>
      <point x="124" y="119"/>
      <point x="124" y="219" type="curve" smooth="yes"/>
      <point x="124" y="315"/>
      <point x="159" y="401"/>
      <point x="237" y="401" type="curve" smooth="yes"/>
      <point x="315" y="401"/>
      <point x="350" y="317"/>
    </contour>
  </outline>
</glyph>
<glyph name="florin" format="2">
  <advance width="275"/>
  <unicode hex="0192"/>
  <anchor x="120" y="742" name="U"/>
  <outline>
    <contour>
      <point x="370" y="638" type="curve"/>
      <point x="370" y="649"/>
      <point x="318" y="681"/>
      <point x="271" y="681" type="curve" smooth="yes"/>
      <point x="239" y="681"/>
      <point x="188" y="661"/>
      <point x="151" y="627" type="curve" smooth="yes"/>
      <point x="107" y="587"/>
      <point x="72" y="538"/>
      <point x="72" y="422" type="curve" smooth="yes"/>
      <point x="72" y="408" type="line"/>
      <point x="40" y="408" type="line"/>
      <point x="6" y="373" type="line"/>
      <point x="18" y="358" type="line"/>
      <point x="72" y="358" type="line"/>
      <point x="72" y="19" type="line" smooth="yes"/>
      <point x="72" y="-118"/>
      <point x="44" y="-147"/>
      <point x="11" y="-147" type="curve" smooth="yes"/>
      <point x="-10" y="-147"/>
      <point x="-35" y="-139"/>
      <point x="-59" y="-116" type="curve"/>
      <point x="-81" y="-126"/>
      <point x="-128" y="-168"/>
      <point x="-128" y="-180" type="curve" smooth="yes"/>
      <point x="-128" y="-191"/>
      <point x="-81" y="-217"/>
      <point x="-37" y="-217" type="curve" smooth="yes"/>
      <point x="-5" y="-217"/>
      <point x="36" y="-197"/>
      <point x="69" y="-172" type="curve" smooth="yes"/>
      <point x="116" y="-136"/>
      <point x="164" y="-87"/>
      <point x="164" y="43" type="curve" smooth="yes"/>
      <point x="164" y="358" type="line"/>
      <point x="210" y="358"/>
      <point x="233" y="350"/>
      <point x="246" y="343" type="curve"/>
      <point x="258" y="348"/>
      <point x="280" y="377"/>
      <point x="290" y="393" type="curve"/>
      <point x="276" y="408" type="line"/>
      <point x="164" y="408" type="line"/>
      <point x="164" y="439" type="line" smooth="yes"/>
      <point x="164" y="578"/>
      <point x="193" y="618"/>
      <point x="228" y="618" type="curve" smooth="yes"/>
      <point x="245" y="618"/>
      <point x="274" y="603"/>
      <point x="303" y="572" type="curve"/>
      <point x="320" y="580"/>
      <point x="370" y="622"/>
    </contour>
  </outline>
</glyph>
<glyph name="glottalstopsmall" format="2">
  <advance width="348"/>
  <unicode hex="0242"/>
  <outline>
    <contour>
      <point x="317" y="313" type="curve" smooth="yes"/>
      <point x="317" y="391"/>
      <point x="263" y="444"/>
      <point x="153" y="444" type="curve" smooth="yes"/>
      <point x="75" y="444"/>
      <point x="30" y="398"/>
      <point x="30" y="364" type="curve" smooth="yes"/>
      <point x="30" y="337"/>
      <point x="56" y="321"/>
      <point x="81" y="321" type="curve" smooth="yes"/>
      <point x="83" y="321"/>
      <point x="94" y="322"/>
      <point x="94" y="322" type="curve"/>
      <point x="124" y="399" type="line"/>
      <point x="132" y="406"/>
      <point x="146" y="406"/>
      <point x="154" y="406" type="curve" smooth="yes"/>
      <point x="203" y="406"/>
      <point x="231" y="370"/>
      <point x="231" y="313" type="curve" smooth="yes"/>
      <point x="231" y="247"/>
      <point x="187" y="213"/>
      <point x="127" y="199" type="curve"/>
      <point x="127" y="52" type="line" smooth="yes"/>
      <point x="127" y="42"/>
      <point x="118" y="37"/>
      <point x="112" y="37" type="curve" smooth="yes"/>
      <point x="66" y="35" type="line"/>
      <point x="66" y="0" type="line"/>
      <point x="271" y="0" type="line"/>
      <point x="271" y="35" type="line"/>
      <point x="225" y="37" type="line" smooth="yes"/>
      <point x="219" y="37"/>
      <point x="210" y="42"/>
      <point x="210" y="52" type="curve" smooth="yes"/>
      <point x="210" y="187" type="line"/>
      <point x="269" y="207"/>
      <point x="317" y="236"/>
    </contour>
  </outline>
</glyph>
<glyph name="glottalstop" format="2">
  <advance width="419"/>
  <unicode hex="0294"/>
  <outline>
    <contour>
      <point x="384" y="457" type="curve" smooth="yes"/>
      <point x="384" y="556"/>
      <point x="303" y="618"/>
      <point x="197" y="618" type="curve" smooth="yes"/>
      <point x="98" y="618"/>
      <point x="35" y="563"/>
      <point x="35" y="521" type="curve" smooth="yes"/>
      <point x="35" y="494"/>
      <point x="46" y="469"/>
      <point x="82" y="469" type="curve" smooth="yes"/>
      <point x="104" y="469"/>
      <point x="122" y="483"/>
      <point x="122" y="483" type="curve"/>
      <point x="146" y="561" type="line"/>
      <point x="163" y="573"/>
      <point x="181" y="577"/>
      <point x="199" y="577" type="curve" smooth="yes"/>
      <point x="247" y="578"/>
      <point x="294" y="528"/>
      <point x="294" y="449" type="curve" smooth="yes"/>
      <point x="294" y="359"/>
      <point x="219" y="301"/>
      <point x="163" y="282" type="curve"/>
      <point x="163" y="57" type="line" smooth="yes"/>
      <point x="163" y="49"/>
      <point x="151" y="40"/>
      <point x="143" y="39" type="curve" smooth="yes"/>
      <point x="97" y="35" type="line"/>
      <point x="97" y="0" type="line"/>
      <point x="313" y="0" type="line"/>
      <point x="313" y="35" type="line"/>
      <point x="266" y="39" type="line" smooth="yes"/>
      <point x="258" y="40"/>
      <point x="246" y="49"/>
      <point x="246" y="57" type="curve" smooth="yes"/>
      <point x="246" y="274" type="line"/>
      <point x="296" y="297"/>
      <point x="384" y="343"/>
    </contour>
  </outline>
</glyph>
<glyph name="apostrophemod" format="2">
  <advance width="193"/>
  <unicode hex="02BC"/>
  <outline>
    <contour>
      <point x="158" y="554" type="curve" smooth="yes"/>
      <point x="158" y="606"/>
      <point x="128" y="638"/>
      <point x="83" y="638" type="curve" smooth="yes"/>
      <point x="49" y="638"/>
      <point x="29" y="613"/>
      <point x="29" y="583" type="curve" smooth="yes"/>
      <point x="29" y="562"/>
      <point x="43" y="547"/>
      <point x="43" y="547" type="curve"/>
      <point x="99" y="547" type="line"/>
      <point x="99" y="542"/>
      <point x="100" y="535"/>
      <point x="100" y="530" type="curve" smooth="yes"/>
      <point x="101" y="479"/>
      <point x="66" y="433"/>
      <point x="25" y="394" type="curve"/>
      <point x="59" y="387" type="line"/>
      <point x="82" y="407"/>
      <point x="158" y="466"/>
    </contour>
  </outline>
</glyph>
<glyph name="glottalstopmod" format="2">
  <advance width="272"/>
  <unicode hex="02C0"/>
  <outline>
    <contour>
      <point x="254" y="614" type="curve" smooth="yes"/>
      <point x="254" y="673"/>
      <point x="197" y="711"/>
      <point x="128" y="711" type="curve" smooth="yes"/>
      <point x="64" y="711"/>
      <point x="18" y="674"/>
      <point x="18" y="648" type="curve" smooth="yes"/>
      <point x="18" y="632"/>
      <point x="26" y="617"/>
      <point x="49" y="617" type="curve" smooth="yes"/>
      <point x="64" y="617"/>
      <point x="74" y="625"/>
      <point x="74" y="625" type="curve"/>
      <point x="90" y="676" type="line"/>
      <point x="101" y="684"/>
      <point x="117" y="686"/>
      <point x="129" y="686" type="curve" smooth="yes"/>
      <point x="161" y="687"/>
      <point x="195" y="656"/>
      <point x="195" y="609" type="curve" smooth="yes"/>
      <point x="195" y="556"/>
      <point x="143" y="525"/>
      <point x="106" y="513" type="curve"/>
      <point x="106" y="378" type="line" smooth="yes"/>
      <point x="106" y="374"/>
      <point x="97" y="369"/>
      <point x="92" y="368" type="curve" smooth="yes"/>
      <point x="62" y="365" type="line"/>
      <point x="62" y="344" type="line"/>
      <point x="203" y="344" type="line"/>
      <point x="203" y="365" type="line"/>
      <point x="172" y="368" type="line" smooth="yes"/>
      <point x="168" y="369"/>
      <point x="160" y="374"/>
      <point x="160" y="378" type="curve" smooth="yes"/>
      <point x="160" y="508" type="line"/>
      <point x="192" y="522"/>
      <point x="254" y="546"/>
    </contour>
  </outline>
</glyph>
<glyph name="colontriangularmod" format="2">
  <advance width="229"/>
  <unicode hex="02D0"/>
  <outline>
    <contour>
      <point x="190" y="432" type="line"/>
      <point x="38" y="432" type="line"/>
      <point x="83" y="289" type="line"/>
      <point x="145" y="289" type="line"/>
    </contour>
    <contour>
      <point x="190" y="0" type="line"/>
      <point x="145" y="143" type="line"/>
      <point x="83" y="143" type="line"/>
      <point x="38" y="0" type="line"/>
    </contour>
  </outline>
</glyph>
<glyph name="dotaccent" format="2">
  <advance width="100"/>
  <unicode hex="02D9"/>
  <outline>
    <contour>
      <point x="100" y="577" type="curve" smooth="yes"/>
      <point x="100" y="605"/>
      <point x="78" y="628"/>
      <point x="50" y="628" type="curve" smooth="yes"/>
      <point x="22" y="628"/>
      <point x="0" y="605"/>
      <point x="0" y="577" type="curve" smooth="yes"/>
      <point x="0" y="548"/>
      <point x="22" y="526"/>
      <point x="50" y="526" type="curve" smooth="yes"/>
      <point x="78" y="526"/>
      <point x="100" y="548"/>
    </contour>
  </outline>
</glyph>
<glyph name="ring" format="2">
  <advance width="214"/>
  <unicode hex="02DA"/>
  <outline>
    <contour>
      <point x="214" y="602" type="curve" smooth="yes"/>
      <point x="214" y="661"/>
      <point x="166" y="710"/>
      <point x="107" y="710" type="curve" smooth="yes"/>
      <point x="47" y="710"/>
      <point x="0" y="661"/>
      <point x="0" y="602" type="curve" smooth="yes"/>
      <point x="0" y="543"/>
      <point x="47" y="495"/>
      <point x="107" y="495" type="curve" smooth="yes"/>
      <point x="166" y="495"/>
      <point x="214" y="543"/>
    </contour>
    <contour>
      <point x="170" y="602" type="curve" smooth="yes"/>
      <point x="170" y="567"/>
      <point x="142" y="539"/>
      <point x="107" y="539" type="curve" smooth="yes"/>
      <point x="72" y="539"/>
      <point x="43" y="567"/>
      <point x="43" y="602" type="curve" smooth="yes"/>
      <point x="43" y="637"/>
      <point x="72" y="666"/>
      <point x="107" y="666" type="curve" smooth="yes"/>
      <point x="142" y="666"/>
      <point x="170" y="637"/>
    </contour>
  </outline>
</glyph>
